<svg xmlns="http://www.w3.org/2000/svg" viewBox="0 0 100.2 119.1"><defs><style>.a{fill:#00b0f0;stroke:#fff;stroke-linecap:round;stroke-linejoin:round;opacity:0.75;isolation:isolate;}</style></defs><title>florida</title><path class="a" d="M650.2,500.9h0Zm-.3,0h0Zm.9,0-.3-.3h.3Zm-1.6,0h0Zm1.3-.3v-.3h.3Zm-3.7.3h-.3v0Zm0-.6v.3h-.3v-.3Zm3.7-.6h0Zm3.5-.2v.3h-.3v-.3h-.3v.6h-.9v-.3h.6l.3-.3h.3v0Zm-4.1.5v-.3h0Zm3-.5v0h-.3v-.3h.3Zm-5.8.5h.3v.3h.3v.3h-.3v.3h-.3l.3-.3v-.3h-.3v0l-.3-.3h0v0Zm8.1-1.1h-.3v.3h.3v-.3h.3l-.3.3h-.3v.3h-.3v.3h-.3v-.9h.3v0h.3v-.3h.3Zm-21.4,2.6h0Zm24.5-3.5H658v-.3Zm-24.2,3.5h-.3v-.3h.3Zm-1.2,0v-.3h.3v.3Zm1.5-.6h0Zm.3,0h-.3l.3-.3Zm26.5-4.4v.3h-.3v-.3Zm-2,.6h-.3v-.3h.3Zm2.3-.6v0l.3-.3h.3l-.3.3Zm-6.3.6h.3v.3h-.6v-.3Zm3.4-.3v.3h0v0h-.3l-.3-.3h.3v-.3h.3Zm.9,0v-.3h-.3v-.3l.3.3Zm-2.6.3h.6v.9h-.3l-.3.3h-.3l-.3.3H656v.3h-.3l.3-.3h-.3v.3h-.3v-.3h.3v-.3h0V498h.3v-.3h-.3v-.3h.3v.6h-.3v.3h.9V498h.3l-.3-.3v0h.6v0h0v-.3h-.3v-.3h-.6v-.3h.6v.3Zm7.5-1.7v0l-.3.3v-.3Zm-9.5,1.7h-.3v-.3h0Zm5.7-1.1v.3h.3v.3l-.3-.3h-.3V496Zm-1.4.5-.3-.3V496l.3.3Zm-1.7,0h.3l.3.3v.3h-.6l-.3-.3v-.3Zm.5,0h-.3v-.3h.3Zm.3-.3v0H658l.3-.3Zm-2.2.3-.3-.3h.3Zm9.5-2-.3.3H665v.3l-.3.3v-.3h-.3v.3h-.5v-.3h.6l.3-.3h.3v-.3h.5Zm-5.8,1.5h.3v.3h.3v.6h.3v.3h-.3v-.3h-.6v-.6h-.3V496l-.3-.3v-.3h.3v.3h.3Zm-.9.2h-.3V496h-.3v-.3h.3v.3h.3Zm2-.8v.3h-.3v-.3h-.3v-.3h.6Zm-3.1.3h-.3v-.3h.3Zm1.1-.3h-.3v-.3h.3Zm.6,0v-.3h0Zm-1.2,0v-.3h0Zm9.2-1.8h-.3v-.3h.3Zm-.8.3v.3h-.6v.3h-.3v.3h-.3v-.3h0l.3-.3h.6v-.3h.3v-.3h.3v0Zm-5.8.6v0Zm9-2.5v0Zm-.9.3h.3v.3h-.6v.3h-.3v-.3h.3v-.3h.3V492h.3v.3Zm1.2-.6v-.3h.3v-.3h.3v-.3h.3v.3h-.3v.3h-.3v.3Zm.6-1.2h0Zm.8,0h-.3v-.3h.3v-.3h.3v-.3h.3l-.3.3v.3h-.3Zm-3.2-.3v.3l-.3-.3Zm4.1-.9-.3.3v-.3Zm-2.6-.5v0Zm-4.9.3-.3-.3h.3Zm9.8-2.1h0Zm-4.3.6h0Zm-.6,0h-.3v-.3Zm1.4-.6H671v0Zm-1.7,0v-.3h.3v.3Zm2.3-.6.3-.3v.3Zm-.9.3h-.2v-.3h.3l-.1.3Zm3-.9v.3h-.3v-.3Zm-3.8.6h0Zm-2.4.3v0h0Zm3.2-.3v-.3h.3v.3Zm-2.6,0h.3v.3h-.3Zm1.5-.3h0Zm2.6-.5h0Zm2-.6v.3h-.3v.3h-.3V485h.6Zm-2.6.3-.3.3v-.3Zm-6.3,0h0v0Zm-.3-.6H665v0Zm-1.4.3v.3h-.3V485h.3v0Zm2-.3-.3.3v-.3h0v0Zm-.3-.5v.3h0Zm-1.5.8h.6v0h.3v.3h0v.3h-.3l-.3-.3h-.5l.2-.3v-.6h.3v.3Zm.9-.6v0Zm-1.4.3h-.3v-.3h.3v.3Zm0-.5h-.3v.3l-.3-.3h.6Zm-.6,0h-.3v0Zm.6-.3h0Zm0,0h-.3v-.3Zm-.9,0v0Zm1.7-.3h0v0Zm-1.1,0h0Zm-.9,0,.3.3h-.3l-.3-.3v.3h-.3v-.3h.6Zm.3,0v0h-.3v-.3Zm14.1-1.4-.3.3v.6l-.3.3v.3l-.3.3v.6h-.3v.3h.3v.3h-.3v.6h-.3v.3H675v.3h-.3l.3-.3v0h-.3v.6l-.3.3h-.3v.3l-.3.3v.6h-.3v.3h-.3v.3l-.2.2v.3h-.2v.3h-.3v-.5h.3l.3-.3v-.9h.6v-.6h.3V487l.3-.3v-.3H674v-.3h.3v.3h.3v-.6h.3v-.6h.3v-.3l.3-.3v-.5l.3-.3v0h.3v-1.1h-.6v-.3h.6l.3-.3v-.3h.3v-.3l.3-.3v-.3h.3v.3h0v.3H677v.3l-.2.4Zm-14.4,1.1h0Zm.3-.3-.3.3-.3-.3h.6Zm14.4-2.3h-.3v-.3h.3Zm.3,0h-.3v.3h-.3v-.3h.3v-.3l.3-.3v.6Zm.3-.9h-.3v0h.3v-.3h-.3l.3-.3V478h.3v.3l-.3.3v1.2Zm0-1.7v-.6l.3.3h-.3Zm-17.6,2v0Zm-1.8-2.3H658v-.3h.3Zm0-.3h0Zm-1.1.3v0Zm.3,0h-.3v-.3h.3Zm20.2-3.7v.9l-.3-.3h-.3l.3-.3v-.3h-.3v0h.3v-.3h.3Zm-18.8,2.5h.3v.3h-.3v.3h-.3v.3h-.3v-.6h0v-.3h.6Zm-1.7,0h-.3v0Zm20.2-3.4h.3v.3l-.3.3h-.3v-.3h.3Zm.3,0h0ZM655.8,476v0h0Zm-.3-.2v0h0Zm.3-.3h.9v.3h-.3v.3h.3v-.3h.6v.3h-.9v-.3h0v.3h-.3v-.6h-.3v.3h.3v0h-.6v-.3h.3Zm-1.2,0v.3h-.3v-.3Zm22.8-3.8h-.3v-.3h.3Zm.3-.2h-.3v-.3Zm-.3-.3v0Zm0-.3v0Zm0,0v0ZM651.1,475h0Zm.3,0h-.3v0l.3-.3Zm-.6.3V475l.3.3.3.3h-.3v.3h-.3v-.6h-.3l-.3-.3h.3Zm-1.1-1.8v-.3h-.3v-.3h.3v.3h.3v.3Zm-2.9-6.9-.3.3v-.6h.3Zm-.3-.3h-.3V466h.3Zm0-.6h-.3v-.3h.3Zm-1.4-.6h-.3v-.3h.3Zm-2.3.3h0v0Zm-.6,0h0Zm4.1.6h-.6v-.3l-.3-.3h-.6v-.3h-.3v0h.9v.3h.6v.3Zm-4.7-.6v-.3h.3Zm.9-.3h-.3v-.3h.3Zm1.1-.5v.3h-.3Zm-1.4.2v0Zm1.1-.2h0Zm-1.4.2h-.3v-.3h.3Zm1.4-.2h0Zm-1.1,0h0Zm.6,0v0Zm0-.3h-.3V464h.3Zm-2,.3v.3l.3.3h.3v.3h.6v.3h.3v-.4h.3v.3h.3v-.3h0v-.3h.3v.3h.6v.3h-.3l-.3.3h-.3v.3h-.3l-.3-.3H642l-.3-.3h-.3l-.3-.3h-.3v-.6h-.3v-.6Zm1.7-1.2h-.3v-.3h.3Zm.3-.3h-.3v-.3h.3Zm-2.3.9-.3-.3-.3-.3v-.3h.3v.6Zm.8-1.2h0Zm.6-.6h.3l.3.3v.6h-.3l-.3-.3Zm-.9.3v0Zm-.2,0h-.3v-.3h.3Zm-.3-.3v0h0Zm1.7,0-.3-.3h.3Zm-2.3,0h0Zm.6,0h-.3v-.3h.3Zm-.6-.3v0Zm2.3-.3h-.3v-.3h.3Zm-3.1.3h-.3v0Zm.8-.3h0Zm0,0v-.3h.3Zm.9-.3h.3V461l.3.3v.3h.3v1.2h.3v.3l.3.3v.3l.3.3v.6h.3v.3h-.6v-.6H642v-.6l-.3-.3v-.3h0v-.3h-.3v-.6H641l-.3-.3v-.3h-.3v-.3Zm-1.2.3h-.3v-.3Zm.9-.3h0Zm1.4-.2v0Zm-2,1.7v0h-.3v-.3l-.3-.3v-.3l-.3-.3v-.3h.3v.6h.3v.6h.3Zm.9-1.7h-.3v0Zm36-2.9V457l-.3-.3v-1.4h-.3v-.9l.3.3v1.2l.3.3v2Zm-36.9,1.7v0Zm0,0h-.3v-.3h.3Zm-.3,0h-.3v-.3h.3Zm-.5,0v0Zm.8-.3h0Zm-.3,0h0Zm2.6-.3h-.3V459h.3Zm-2,.3h-.3v-.3h0v.3Zm-.3-.3h-.3v0h.3Zm-.8,0v0Zm-.6,0v.3h.3v.6h.3v.9h-.3v-1.2h-.3v-.3h-.3v-.3Zm-6.3-8.6v0Zm.2,0-.3-.3h.3Zm0,.2h-.3l-.3-.3v-.3h.3v.3Zm-1.4-1.3v0Zm-.9-.9h.3v.3h-.3Zm.9.9h.3v.6h.3l.3.3h-.3l-.3-.3-.3-.3-.3-.3-.3-.3V449h-.6v-.3h.3v.3h.3v.3h.3Zm-.6-.9v-.3h0Zm39.5-6.7v.3h.3v.3l.3.3.3.6.3.3.3.3v.6l.3.3.3.3v.3l.3.3.3.3.3.3v.3l.3.3v.3h-.4v-.6h-.3l-.3-.3h.3v-.3h-.3v-.3h-.3v-.3l-.3-.3h-.3v-.7l-.3-.3h-.2V444h0v-.6h-.3v-.3h-.3v-.5h-.3V442l-.3.3-.3-.3h.6Zm-40.1,6.7-.3-.3v-.6h-.3v-.3h-.3v-.3h-.3v-.3h.3v.3h.3v.3h.3v.6h.3v.6Zm1.2-2h0Zm-.3-.3h0v0h0Zm.3-.9v0h0Zm-2.6.6v0h-.3v-.3h.3Zm.3-.6h.3v-.3h.3v0l-.3.3h-.3v-.3h-.3v-.3h.3v.6Zm.8-.6v0Zm-.5-.3h-.3v-.3h.3Zm.5-.3h-.3V444h.3Zm2.7-.5h-.3l.3-.3Zm-3,0v.3h-.3v-.3Zm3-.3v0Zm.2-.3v0Zm-2,0h-.3v-.3h.3Zm1.8-2h-.3v0Zm35.6-3.5v.6h.3v.9h.3v.3l.3.3.3.6v.3h.3v.6l.3.3.3.3-.3.3v-.3l-.3.3v-.6h0l-.3-.3V441h-.3v-.3h0v-.6h-.3v-.3l-.3-.3v-.6h-.3v-.6h-.3v-.9h-.3v-.3l-.3-.3h-.3v-.6h-.3v-.5H666v-.3h-.2l.3-.3v.3l.3.3.3.3.3.6.6.6v.3Zm-35.2,1.5v.3h-.3v-.3Zm-6.3,0H626v-.3h.3Zm0-.9v.3H626v-.3Zm-.3-.9-.3.3v-.6h0v.3Zm-.5-2-.3.3v-.6h.3Zm34-12.6v0h-.3v-.3h.3Zm-32.3,4.5v0Zm0-.9h0Zm0,0v0Zm-.3,0v0Zm0-.2v-.3h.3Zm0-.3h0Zm0,0v0Zm0-.3v0Zm.3-.3v0Zm-.3,0h-.3l.3-.3Zm-.3,0h-.3l.3-.3Zm-.3-.3H626v-.3h.3Zm0,0v-.3h.3Zm.6-.3v.3h-.3v-.3h0v0l.3-.3Zm-.3-.3h0Zm.3,0v0Zm-.6,0v0Zm.3-.2v0Zm-1.1-.3v0Zm0,0h0Zm1.1,0v.3h-.3l.3-.3h-.3v-.3Zm-1.1,0v0Zm0-.3v.3l-.3-.3Zm0,0h0Zm.2,0v0Zm.3-.3v0Zm-.3,0h0Zm-.2-.3v0Zm0,0h-.3v-.3h.3Zm1.1-.2v-.3h0Zm-1.1-.3v0Zm.8-.3v.9H626v-.3h-.3v.3l-.3-.3h.6v-.3h.3Zm-.6.3v.3h-.3v-.3Zm.9-.3v.3h-.3v-.3Zm-.9.3h-.3v-.3h.3Zm.6-.3h0Zm.3,0h-.3v-.3Zm.3,0h-.3v-.3h.3Zm-.6-.3h0Zm.3,0v0Zm0-.3h0Zm-.3,0H626v0Zm-.3-.3h-.3l.3-.3Zm-.3,0v0Zm-.8-1.2h0Zm0,0v0Zm-.3-.3h0Zm-.6-1.1-.3.3v-.3Zm-.2,0v.3l-.3-.3Zm0,0h0Zm-.3-.3v0Zm.3-.3v.3h0Zm-3.8.6h0Zm-.6,0h0Zm4.1-.6v0h0Zm-3.5,0-.3.3v-.3Zm-1.2.3v0Zm1.2-.6h-.3v-.3h.3Zm-.3,0-.3.3v-.3h-.3l.3-.3h.3Zm.3-.3h0Zm-.3-.3-.3.3v-.3Zm.3,0v0Zm.9,0-.3-.3h.3Zm.3-.3h0Zm-1.8.6h-.3l.3-.3h0Zm2.1-.6h0Zm-2.1.3h-.3l.3-.3Zm-.6-.3v.3h-.3v-.3Zm.3,0h-.3l.3-.3Zm-.3-.3h-.3v-.3h.3Zm0-.6h0Zm-1.7-.7v0Zm0-.3v0Zm0-.6v.3h-.3v-.3Zm24.8-3.8v0l-.3-.3h.3l-.3-.3h.6v.3Zm-.3-.3-.3-.3h.3Zm-28.2,1.8h0Zm-.3,0v0Zm-.3-.3v0Zm-.3-2.7h0Zm-.3-.2v0Zm-.3,0h0Zm.3,0h0Zm-28,2.9h.3l.3.3h0v.9h-1.2l-.3-.3-.3-.3h-.5v-.3h1.2v.3h.6v-.3H584v-.3Zm4.1-.3H588v-.3Zm1.4-.6-.3.3v-.3Zm-3.1,0h0Zm4-.9h0Zm-.6.9v.3h-.3v.3h-.6l-.3.3h-.3l-.3.3-.3.3h-.3v.3h-.3v.3H587l-.6.3-.3.3h-.6v.3h-.3v-.3l-.3-.3h-.2l-.3-.3h.3l.3.3h.3l.3.3h.3v-.3h.6V413h.3l.3-.3h.3v-.3h.3v-.3h.3l.3-.3h.3l.3-.3h.6v-.3h.3l.2-.3h-.3v-.3h.3l.3-.3.3-.3.3-.3v.3h-.3v.3l-.3.3v.3Zm2.9-2.3h-.3l-.3.3-.3.3h-.3l-.3.3-.3-.3h.9v-.3l.3-.3h.3v-.3h.3v.3Zm0-1.4v.3h-.3v-.3ZM605,404h-.3v-.3h.3Zm-8.9-.3h.3l-.3.3v.3h-.3v-.6h.3v0Zm.6-.3-.3.3v-.3Zm-.3,0h0Zm0,0h0Zm1.2-.6h0Zm.5-.3-.3.3v-.3Zm0,0h0v0ZM580,408l3.2-2.6,3.2-13.2h.9l3.8-.3,2.9-.3h1.8l1.8-.3h3.9l.3-.3h3.8l1.5-.3h2.6l1.8-.3H615l2.3-.3,4.9-.3,1.8-.3h3l1.8-.3H630v.9h.3v.3h.3v.3h.3v1.8h.3v.3h.3v.3h.6v-.3h1.5l.3-.3v-.3H633V391l.3-.3v-.9l-.3-.3v-.3l.3-.3v-.3H633V388h-.3v-.6h-.3v-.2h-.3v-.8h.3v-.3h-.3v-.9h.3v-.6h.9v-.9h.9v-.3l.3.3v.3H636v0h.3v.6h.3v-.3h.6v.3h.9v-.3h.3v.3h.3v.3l.3-.3.3.3h.6v.3h.6l.3.3h.6v-.3h.3v.3h-1.5v.3h.3v-.3h.3v.6h-.3v0h.3v-.3l.3-.3v-.6h.6v2.7h.3v.9l-.3-.3-.3-.3V387H641v-.3h-.3v.9h-.3l-.3.3h.3v.3l-.3.3v-.3h-.3v0h-.6v0h.3v.3l.3-.3v.3h0v.3h.3v.3h.3v0h.3v-.3h.3v.3h.3v-.3H641v-.6h-.3v-.3h0l.3.3h.3v.9h.3v.3l.3.3v.3h-.3l.3.3v.6H641v-.3h.3l.3-.3v.3h.3v-.3h-.6V390h-.6l.3.3v.3h0v-.3h-.3v.3h-.3v.6h-.3v-.3h-.3v-.3h0v-.3h-.3v.3h.3l-.3.3v-.3h-.3v-.3H639v.3h.3v.3h0v.3h-.9v-.3h-.8v.3h.3v-.3h.6v.3l.3.3h.3v.3h.3v.9h-.6v.3h-.3v.3h-.3v.6h.3v.3h.3v.3h.6v.3h-.3v.6h-.3v.6h-.3v.3h-.3v.3h0l-.3.3v.3h.3v-.3h.3V396h.6v1.8h-.3v.3h.6v.3l.3.3v.3h.9v.3h.3v.3h.3v.3h-.3v.9h.3v.9h.3v.3h.3v.3h.3v.3h.3v.9H642v.6h-.9v.3h-.3v.3h.3v.3h.3v.6h.6v.6h-.3v.3h-1.2v1.2l.3.3v1.8h.6v.6h-.3v.3l.3.3h.3v.6h-.3v.3h.3v.3h.3l.3.3v.3h.3v.3h-.3v.3h.6v.6h.9v0l.3.3V414h-.3v-.3h.3v-.3h.3v-.6h-.3v-.9h-.3l-.3-.3-.3-.6-.3-.3h-.3v.3l-.3-.3-.3-.3h-.3v-.6h-.6v-.3l.3-.3h-.3v-1.8h-.3v-.3h-.3v-.3h.3v-.6l.3-.3h.9V405h-.3v-.3l-.3-.3v-.3h-.3v-.3h.9l.3-.3.3-.3v-.8h.3v-.3h-.3v-.3h-.3v-.3l-.3-.3v-.5h-.3v-.3h-.3v-.3l-.3-.3.3-.3v-.3h0V399h.6v-.3h-.3v-.3h-.3v.3l-.3-.3h-.3v-.3h-.3v-.3h-1V397h.3v-.8h.3v-.3h-.9v-.3l.3-.3v-.6l.3-.3v-.5h-.6v-.3H639v-1.2l.3.3.3-.3h.3v.3h0v-.3h-.3v-.9h-.3v-.3l.3-.3v.3h.9v.3h.6v-.6h-.3v-.3h.3v.3h.3v-.3h.3l.3.3h-.3v.3h.3v-.3h.3v.6l.3.3v.3h.3v.6l.3-.3h-.3v-.6h-.3v-.6h-.3v-.6h.3v-.3h.6v1.5h.3v.9h.3v.6l.3.3v.3l.3.3v.6l.3.3v.6h.3v.6l.3.3v.6h.3v.6l.3.3v.6l.3.3v.3h0v0l-.3-.3v-.3l-.3-.3v-.3l-.3-.3v-.3H645v-.3h-.3v-1.3h-.3v-.3H644v.3h.3v.9l.3.3v.6h.3l.3.3v.6h.3v.3h.3v.9l.3.3h-.3v.3h.3v.6h.3v.3l.3.3v.3h.3v-.3l-.3-.3-.3-.3v-.6h-.3v-.7l.6.3h-.3v-.3h-.3v-.3h.3v.3h.3v.3l.3.3v1.2h.3v.6h.3v.3l.3.3v.3l.3.3v.3l.3.3v.3l.3.3v.3h.3v.6h.3v.3l.3.6.3.6.6.6.3.6v.3l.3.3.3.6.3.3.3.3v.3h.3v.6h.3v.6h.3v.3l.3.3v.3l.6.3v.3l.3.3v.3h.3v.3l.3.3h.3v.3h-.3V414H654v-.3h-.3v-.3l-.3-.3v-.3h-.3v-.3h-.3v-.6h-.3v-.3l-.3-.3-.3-.3v-.3l-.3-.3-.3-.3v-.3l-.3-.3v-.3h-.3v.3h.3v.3h.3v.6h.3v.3l.3.3v.3h.3v.6h.3v.3h.3v.6h.3v.3l.3.3.3.3v.6h.6v.3h.3l.3.3v.3h-.3l.3.3v.3l.3.3h0v-.3h-.3v-1.4l-.3-.3v-.3h.3v.6l.3.3.3.3.3.3v.3l.3.3.3.3.3.3.3.3.3.3.3.6.3.3.3.3.3.3.3.3v.3l.3.3.3.3h.3l.3.6.3.3.3.3.3.3v.3h.3v.3h.3l.3.3v.3h.3v.3l.3.3v.6h.3v.3l.3.3v.3h.3v.3l-.3.3h-.3l-.3.3v.3h-.7v.3h.3v1.2l.3.6v.6l.3.3v.6l.3.3v.6l.3.6.3.6.3.6.6.9.3.6.3.3.3.6.3.6.3.3h.3v.3l.3.3h-.6v0l-.3-.3v-.3l-.3-.3H665v-.3h-.3v-.6l-.3-.3v-.3h-.3V433h-.2v-.3l-.3-.3v-.3h-.3v-.3l-.3-.3v-.8h-.3v-.6h-.6v-.6h-.3v-.3h-.3V429l-.3-.3v-.3l-.3-.3-.3-.6v-.3l-.3-.3v-.3H660V426h-.3v-1.5l-.3-.3-.3-.3.3-.3v-.3h-.3v-.6h.3v.6h.3v-.9h0v-.3l.3.3v-.3h.3v-.3h.6v.3h.3v1.2h-.3v.9l-.3.6v.6h.3l-.3.3.3.3v.9l.3.3v.3l-.3-.3v-.6h-.3v.3h.3v.6l.3.3v.6l.3.3.3.6.3.3v.3h.3v-.3l-.3-.3v-1.4l-.3-.3V427h-.3v-.3h.3v-.6l-.3-.3v-.6l.3-.3v-.3l-.3-.3h.3v-1.7h-.3V422h-.3v-.5h-.6l.3.3h-.3l-.3-.3v.3l-.3-.3v.9h-.6v-.3h-1.1v0l-.3-.3V421h-.3l.3-.3h.3v-.3h.3v-.3h-.3v-.3H658v-.3h-.3v-.3h-.3v.3h-.3v-.3h-.3v-.3h-.3v-.3h-.3v.3h.3v.9h.3v.9h.3v.9h.3v.3l.3.3v.6h.3v.6h.3v.3l.3.3h-.3v.3h.3v.3h.3v.9h.3v.6h.3v.3l.3.3v.3h.3v.6h.3v.3l.3.3v.3h.3v.6h.3v.6h.3v.6h.3v.3h.3v.3l.3.3v.3h.3v.3l.3.3v.3h.3v.6h.3v.3h.3v.3h.3v.6h.3v.3l.3.3v.3h.3v.3l.3.3v.6l-.3.3h.3v-.7l.3-.3v.3l.3.3v.3h.3v.3h.3v.6h.3v.3h.3v.3h.3v.3l.3.3v.3h.3v.9h.3v.6l.3.3v.3l.3.3v.6h.3v.6h.3v.6h.3v.6h.3v.3l.3.3v.3h.3v.3h.3v.6h.3v.3l.3.3v.3h.3v.3h.3v.6h.3v.3h.3v0h-.3V447h-.3v-.3H672v.3h-.6v0h-.6v-.3h-.6l-.3-.3v.3h.6v.3h.3v.3h.3v.3l.3.3v-.6h.3V447h.3v.3h.3v.3h.3v.3h.3l.3.3v-.3l-.3-.3h.3v.3l.3.3v.3h.3v.3l.3.3.3.3v.3l.3.3v.3l.3.6.3.3v.3h-.8v0h-.3v-.3l-.6-.3v.3h.3l.3.3h.3v.3h.9v.6h.3v.6h.3v.6l.3.3v.3l-.3-.3v-.3h-.3v.6h.3v1.2h.3v1.5l.3.3v2.1h.3v2.4h.3V468h-.3l.3.3v0l.3.3v2.7h.3v1.5l.3.3v.6h-.3v.3h-.3v-1.4h.3V472h-.3l.3-.3v-.6l-.3-.3v-1.1h-.3l.3.3v.6h-.3v.3h-.3v2.7h-.3v.3h-.3v.3H676v.6h-.3v.3h.3v.6h-.3v.3l-.3.3v1.8h-.3v1.5h.3v.3h.3v.3h0v.6l.3.3v.3h-.3v.6h-.3v.3h-.3v.6h-.3v.6h-.3l-.3.3v.3h.3v.3h.3v.3h.3v.3h-.3l-.3-.3v-.3h-.6V484h-.3v.3h-.3v.3l.3-.3h.3v.3h.3v-.1l.3.3h-.3v-.3h-.3v-.3h-.6v.3H673v-.3h.1v-.3h-1.2v.3h-.3l.3.3v-.3h.6v.3h.3v.3h-.3v-.3h-.3v.3h-.3l.3-.3h-.3v.3h-.3v.3h-.3v-.3H671v.3h-.5v.3h.3v.6h-.3l.3-.3h-.9v.3h-.3l-.3-.3v.3h0v0l.3.3H669V486h-.3v0h-.3v.3h-.3v-.6h-.3v.6l-.3-.3h-.6l-.3.3h-.3v.6h-.5v.3h-.6l-.3.3h-1.1l-.3.3h-.3v-.3H663l-.3-.3h-.3v-.3l.3.3h.3l.3.3.3-.3h-.3l-.6-.3h-.3v-.3h-.3l-.3-.6h-.3v-1h.3v-1.2h.6l.3.3h0l.3.3v.3h.3v.3l.3.3h.9v.3H666V485h.3v-.6h-.7v-.3h-.3v-.3H665v-.6h-.9v.3h-.2v0h-.3v-.3h-.3l-.3-.2h-.3v-.3h-.6v.3h-.6v-.6h0v-.2h-.3v-.3l-.3-.3v-.3h0v0h-.3l-.3-.3v-.3H660v-.3h.3v-.6h.6v-.3h.3v-.6h0v.3h.3v-.3h.3l-.3-.3h-.3v0h-.3v.6l-.3.3-.3.3H660l-.3.3v-.3h-.3v-.3h.3l-.3-.3v-.3h-.3v-.6h-.5V478h-.3l.3-.3h-.3v-.3h.3l.3-.3.3-.3h.3v.3h.3v.3h.3v-.5h-.3v0h-.3v-.3h-.3v-.3h-.6V476h-.3l.3.3h-.3l-.3-.3v.3h.3v.3l-.3.3v.3h0v.3h-.3v-.3h-.6v0l.3-.3h-.3v-.6h-.6l.3-.3h.3v-.3h-.3v-.3h-.3v-.2H656V475h-.3l-.3-.3-.3.3-.3-.3v0h-.3v-.3h-.3v.3H654v-.3h-.6v-.3h-.6v.3h.3v.3h.9v.3h.9v.3h.3V475h.3v.3h.3l.3.3h-.3v-.3h-.3v.3h-.3v-.3h.3v0h-.3v0h-.3v.3h.3l-.3.3v0h0v-.3h-.3v-.3h-.3v0H654v.3h0v0h-.3V475h-.3v.3h0V475h-.3v.3h0v-.9h-.3v.3h-.6v-.3h.6v-.3h-.5v.3H652v.3h-.3v-.3h0v-.3h-.3v.3h-.3v.3h.3v-.3h.3v.6h-.3v-.3h-.3l-.3-.3v-.3l-.3.3.3.3v0h-.9v-.6h-.3v-.3l.3-.3v.3h.6v.3h.3l-.3-.3h.3v0h.3v-.3l-.3-.3v.3h-.6v-.3l-.3.3v-.3h-.3v-.3h-.3v.3l-.3-.3-.3-.6V472h-.3v-.3l-.3-.3h.3v.3h.3v-.3l-.3-.3v-.6l-.3.3h.3v.6h-.3v-.9h-.3v-1.4h-.3v-.9h-.3v-.3h0l-.3-.3V467h-.3v-.3h.3v-.6h-.3v-.8h-.3V465H646v-.3l-.3-.3v.3h.3v.3h-.3v.3l-.3-.3-.3-.3v.3H645v-.3h-1.5v-.3h.3l-.3-.3.3-.3v.3h.6v-.3h.3v-.3h.3V463h.3v-1.5h.3v-.3h.3V461h.3v-.3h.3v-.3h.3v-.3h-.3v.3H646v.3h-.3v.3h-.3v.3h-.3v1.2h-.3v1.2h-.6v.3h-.3v-.3l-.3.3h-.3v.3H643v-.6h-.3v0l-.3-.3h.3v-1.2h-.3v-.3h-.3v-.6h-.3V461h.3v-.3h-.3v-.9l.3-.3v-1.1h-.3v-.3h.3v-.3l-.3-.3h-.6v-.3h-.3V457l.3-.3h.3v-.2h.3v-.3h.9v-.9l.3-.3h-.3v-.6h-.3v.3h.3v.6h-.3v.6h-.9v.3h-.9v.3h-.3v.3h.1v.3h-.6v-.6h-.3v-.3h-.3v.3h-.5v-.6h-.5v-.3h-.3v.3h.6v.6h.6v.3h.6v.3l.3.3v.3h.3v.6l.3.3v.9h.3l-.3.3h-.4v-.6h.3l-.3-.3h-.3v.6h-.3v-.3h-.3v.3H639v-.6h-.3v.3h-.3v-.3h-.2v-.7l.3-.3h-.3v.3h-.3v.3h.3v.3h-.3v-.3h-.3v.3h.3l.3.3V459h-.3v-.3h-.3v-.3h-.3v-.3H637l.3-.3v.3h.3v-.3h-.3v-.3h0l-.3-.3h-.3v-.5h-.6v-.2l-.3-.3v.3h.3v.3l.3.3v.3h.3v.3h.3v.3h-.3v-.3h-.3v-.6h-.3v-.3l-.3-.3v-.3h-.3l-.3-.3v-.3h-.3v-.3l-.3-.3v-.3l-.3-.3v-.3H634v-.6l-.3-.3-.3-.3v-.3l.3.3v-.3h-.3V452l-.3-.3-.3-.3h-.3l.3.3.3.3v.3h.3v.3h-.2V452h-.3v-.3h-.3v-.2H632v-.3h.3v-.3l.3.3v-.9h-.3v-.6H632v-.5h-.3V449h-.3l-.3-.3h-.6l-.3-.3H630l-.3-.3h.6v-.6H630v.3h-.6v-.6h.3v-.3h.6l.3.3h1.8v.3h.6v-.3h-.3l-.3-.3h.3v-.3h.3v.3l.3-.3h.3v-.3h-.3l-.3.3h-.3v.3h-1.2v.3l-.3-.3h-.9v-.3h.6v.3h.3v-.6h.3V446h-.2l-.3.3V446l-.3-.3h.6v-.6h.3v.3h.3v-.3h-.3v-.8h.3V444h.3v0l.3-.3h-.3v-.3h.3v-.3h.6l.3.3v-.6h-.7v-.2l.3-.3h.3v-.6h.3v-.3h.3v-.3h0v-.9h-.3v-.5h-.4v-.3h0v-.3h-.3v-.3h0l.3-.3h-.6v.3h-.3l-.3.3-.3.3h.3v.9l.3.3v.6H632l-.3-.3v.3h-.3v0h-.2v-.6H631l.3-.3V440H631l.3-.3v-.6H631v-.3l-.3-.3h-.9v.3h-.3v-.3h.3l.3-.3h.3v.3l.3-.3h-1.2v-.3h-.3v-.2h-.3v.6h-.3v-.6h-.3l-.3-.3v.3h.3v.3h.3v.3h-.3v.6h.3l.3-.3h.6l-.3.3h-.3l-.3.3H628v.3h0v.3h1.2v.3l.3.3v-.3l.3.3h.6v-.3h.6l-.3.3h-.3l-.3.3.3.3v.3h-.3V441h-.3v.3h.3v.3h.3v.3h-.3v-.3h-.3l.3.3h.3v.3h-.6l.3.3h0v.3h0v.3h-.3v.3l.3.3v.3h-.9l-.3-.3h.3l-.3-.3h-.6V443H628v-.4h-.3v-1.2h-.3v0h-.3l.3.3v.3h-.6v-.3h-.3v-.3h-.2l.3.3v.3h.6v.3h.3v.3h.3v.3h.3v.3l.3.3v.6h.3l-.3.3v-.6l-.3-.3v-.3l-.3-.3h-.3v-.3h-.3v-.3l-.6-.3h-.3v-.3l-.3-.3v-.3l-.3-.3V440l.3-.3v-.3h0v1.2h.3v-1.2h.3v-3.2l-.3-.3v-.2l-.3-.3h.3l.3.3.3-.3h-.6l-.3-.3.3-.3v-.3h.3v-.6h0v-.3h.3l-.3-.3V433h.3v-.3h-.3v-.3h.3v-.3h.3l-.3-.3v-.3h.3V431h-.3v-.2h.3v-.6h.3v-.6h0V429h-.3l.3-.3h0v-.6h0v-1.2h-.3v-.3h.3V426h0v-.3h-.3v-.3h.3v-.3l-.3-.3v-.3h-.3v-.3h.3v-.3h-.3v0h-.3v-.6H626V423h.3v0h.6v.6h.3v-.3h-.3v-1.7h-.3l-.3-.3v.3H626v0l-.3-.3h.3V421h-.6v-.3h-.3v-.3h-.3v-.3h.3v-.3h-.6v-1.2h.1v-.3l-.3.3H624v-.3l-.3-.3v-.3h.3v-.3h-.6v-.8l-.3.3h-1.7l-.3-.3v.3h-.3v0h-.6v.3h-.8v-.3h-.3v-.3h-.3V416h0v-.6h-.9v-.3h-.5v-.4h.6v-.3h-.3v.3h-.3v.3h-.3v-.3h.3l-.3-.3h-.3v-.3h-.3v-.3h-.3l.3-.3h-.3v-.3h-.3v-.3H615v0h-.3v-.3h-.3v-.3h-.3V412l-.3.3V412h-.3v-.3H613v-.3h-.3v-.3h-.2v-.3h0V410h0v-1.2h-.3v-.3h-.6v.3l-.3-.3H611l-.3-.3V408h-.2v0h-.6l-.3-.3v-.3H609v-.3h0v-.9h-.3l-.3-.3-.3-.3v-.3h-.3V405h-.3v-.3h-.3v-.3h-.6l-.3-.3H606l-.3-.3v0h-.5v-.3h-.8l-.3-.3h-.5V403H603v-.3h-.6v-.3h-.3v-.3h-.3v0h-.3v-.3h-1.2v.3h-.6v0h-.6v.3l-.3.3h-.2v-.6l-.3.3v-.3l-.3-.3v.3h-.3v.3h-.3v-.3h-.3v.3h-.3v.3h.3v.3h-.3v.3h-.2V403H596v.3h-.3v.9h-.3v.4l.3.3v-.3h0v.3h.6v.3h-1.2v-.3l-.3.3v-.3h-.3v-.3h-.3v.3h.3v.6h1.8v.3l.3.3v.3h-.3v.3h-1.5v-.3l.3.3h.9v-.3h-.3l-.3-.3h-1.2v.3H594v.3h-.9l-.3.3-.3.3h-.3v.3h-.3v.3h-.2v.3h-.6v.3h-.3v.3h-.3v.3h-.3v.3l-.3.3h-.5v.3h-.3l-.3.3h-.3v.3h-.3l-.3.3v.3h-.3v-.3h0V410h.3v-.6h.3v-.3h-.5l.3.3-.3.3h-.6v-.3h-.3v.3h.6l-.3.3v.3h-.3v0l-.3.3v-.3h-.3l.3.3h-.3l.3.3h-.3v.3h-.6v.3l-.3-.3h-1.1l-.6.3-.3.3h-.5l-.3.3h-.6v.3h.3l.3-.3v.3h-1.8v.3h-.3v.3l-.3-.3-.3-.3v-.3h-.3v-.6h-.3v-.6l-.3-.6v-1.5h.3v.6l-.3.3.3.3v.9l.3.3v.3l.3.3v.3l.3.3h.9v-2.1h-.3l.3-.3h-.3v-.6h-.3l-.3-.3v-.3h-.3v-.3l-.3-.3" transform="translate(-578.4 -382.9)"/></svg>