<svg xmlns="http://www.w3.org/2000/svg" viewBox="0 0 164.3 153.04"><defs><style>.a{fill:#00b0f0;stroke:#fff;opacity:0.75;isolation:isolate;}</style></defs><title>northeast</title><path class="a" d="M716.6,179.8a.91.91,0,0,1-.7-.3l-.3-.3a.8.8,0,0,1-.2-1,1,1,0,0,1,.3-1l.3-.3h0a.91.91,0,0,1-.3-.7v-.3a.94.94,0,0,1,1-1h.2a.86.86,0,0,1,.6-.3c.1-.1.2-.2.3-.2v-1.7a.91.91,0,0,1,.3-.7v-.5c0-.2,0-.3.1-.4l.2-.4v-1.9l-.6-.1h-.2a.91.91,0,0,1-.7-.3l-.1-.1-1.8-.5-.8-.3h-.1a.37.37,0,0,1-.3-.1l-.7-.2h-.4a.91.91,0,0,1-.7-.3h-.2a.91.91,0,0,1-.7-.3h0a.86.86,0,0,1-.6-.3l-.1-.1-1.5-.5-1.1-.3c-.1,0-.1,0-.2-.1l-.5-.3-.8-.3a1,1,0,0,1-.5-.4c-.1,0-.1-.1-.2-.1h0a.86.86,0,0,1-.6-.3h-1.5a.89.89,0,0,1-.8-.5c-.1,0-.1-.1-.2-.1h-.2a.91.91,0,0,1-.7-.3h0a1.06,1.06,0,0,1-.9-.9c-.1-.1-.1-.1-.1-.2s-.1-.1-.2-.1a.35.35,0,0,1-.1-.2c-.1,0-.1-.1-.2-.1a.35.35,0,0,1-.1-.2c-.1,0-.1-.1-.2-.1a.91.91,0,0,1-.3-.7V160h0c-.1-.1-.2-.2-.2-.3s-.1-.2-.1-.3h0a.91.91,0,0,1-.3-.7v-.3c-.1,0-.2-.1-.3-.2a.91.91,0,0,1-.3-.7v-.2a.35.35,0,0,1-.1-.2c-.1,0-.1-.1-.2-.1h-.6a.91.91,0,0,1-.7.3h0a1.06,1.06,0,0,1-1-.9h0a.86.86,0,0,1-.3-.6h0a1,1,0,0,1-.7-.4l-.3-.3-.7.2h-.4l-1.7.3-6.8,1.7h-.7l-3.1.6-1.1.3-.8.3c-.1,0-.2.1-.3.1h-.6l-.4.2a.6.6,0,0,1-.4.1h-.2l-3.1.5-.1.1a.91.91,0,0,1-.7.3h-.5l-1.9.3-.8.3h-.2l-3.5.6-2.5.6-.8.3c-.1,0-.2.1-.3.1h-.1l-.4.2c-.1,0-.2.1-.3.1l-1.8.3-1.4.3h-.7l-1.9.2h0a.91.91,0,0,1-.7.3h-.8a.91.91,0,0,1-.7.3h-.5l-1.7.3-2.1.3-1.1.2a1.61,1.61,0,0,1-.7.4l-2.3.3h.4a.91.91,0,0,1-.7.3h-1l-1,.3-1.5.3-3.8.6-1.1.3h-.1l-2,.3h-.1a.91.91,0,0,1-.7-.3l-.3-.3a.91.91,0,0,1-.3-.7v-.5L633,163v-1.2a.86.86,0,0,1-.3-.6l-.6-4.3a1,1,0,0,1,.4-.9l9.5-7.4.3-.3.2-.8h-.2a.91.91,0,0,1-.7-.3h0a.86.86,0,0,1-.6-.3l-.3-.3a.91.91,0,0,1-.3-.7v-.5a.86.86,0,0,1-.6-.3.91.91,0,0,1-.3-.7v-1.6a.91.91,0,0,1-.3-.7v-.5l-.1-.1-2.3-3.2a1,1,0,0,1-.2-.7,1,1,0,0,1,.4-.7l6.3-4.6c.1-.1.3-.1.4-.2l24.5-4.7,3-8.8v-.5a.91.91,0,0,1,.3-.7l.7-.7.2-.9c0-.2.1-.3.3-.5l.3-.3a.91.91,0,0,1,.7-.3h.2a.35.35,0,0,1,.2-.1c.1-.1.1-.2.2-.2v-.1a1.09,1.09,0,0,1,.2-1l.6-.6a.52.52,0,0,1,.4-.2.76.76,0,0,1,.2-.4.35.35,0,0,1,.2-.1c0-.1.1-.1.1-.2a.86.86,0,0,1,.6-.3h0a.86.86,0,0,1,.6-.3h0a.35.35,0,0,1,.2-.1l.6-.9c0-.1.1-.1.1-.2l.3-.3v-1a.91.91,0,0,1,.3-.7h0a.84.84,0,0,1,.4-.7c0-.1.1-.1.1-.2h0a.86.86,0,0,1,.3-.6h0a.86.86,0,0,1,.3-.6.35.35,0,0,1,.2-.1c0-.1.1-.1.1-.2l.3-.3a.86.86,0,0,1,.3-.6h0a.84.84,0,0,1,.4-.7c0-.1.1-.1.1-.2h0a.86.86,0,0,1,.3-.6c0-.1.1-.1.2-.1s.1-.1.1-.2l.3-.3a.86.86,0,0,1,.3-.6h0a.84.84,0,0,1,.4-.7c0-.1.1-.1.1-.2s.1-.1.2-.1l.3-.3c0-.1.1-.1.1-.2a.86.86,0,0,1,.3-.6l.3-.3a.35.35,0,0,1,.2-.1l.3-.3.3-.3c0-.1.1-.1.1-.2a.52.52,0,0,1,.4-.2,1,1,0,0,1,.4-.5c0-.1.1-.1.1-.2s.1-.1.2-.1a1,1,0,0,1,.7-.4h0a.84.84,0,0,1,.4-.7,1,1,0,0,1,.7-.4h0a.86.86,0,0,1,.6-.3h0c0-.1.1-.1.2-.1l.3-.3a1,1,0,0,1,.8-.5h1.6a.91.91,0,0,1,.7-.3h1.2l.7-.2,1.2-.3h.8l.4-.2a.6.6,0,0,1,.4-.1h.5l1-.3h.3l1.3-.5c.1,0,.2-.1.4-.1h.2l2.2-.5,1.7-.6c.1,0,.2-.1.3-.1h.5l1-.3,2.9-.9,1.7-.6c.1,0,.2-.1.3-.1h.1l1.6-.5h.1l1.5-.3,1.8-.3,2.3-.5.1-.1a.91.91,0,0,1,.7-.3h.6l.4-.2a.6.6,0,0,1,.4-.1h.5l2.2-.5,1.4-.3.8-.3,1.2-.3.8-.3c.1,0,.2-.1.3-.1h.1l2.8-.8,1.3-.3v-.5a.91.91,0,0,1,.3-.7h0a.86.86,0,0,1,.3-.6v-1a1.15,1.15,0,0,1-.6-.9.79.79,0,0,1,.5-.8,1,1,0,0,1,.5-.4.76.76,0,0,1,.2-.4h0a.84.84,0,0,1,.4-.7,1,1,0,0,1,.8-.5h.6a.79.79,0,0,1,.8.5c.1,0,.1.1.2.1h0v-.5a.91.91,0,0,1,.3-.7c0-.1.1-.1.2-.1a1,1,0,0,1,.5-.4.87.87,0,0,1,.9-.6h.2a.91.91,0,0,1,.7-.3h0a4.33,4.33,0,0,1,.5.1V75.1a1.06,1.06,0,0,1,.9-1h0a.91.91,0,0,1-.3-.7v-.3a.91.91,0,0,1,.3-.7v-.5a.91.91,0,0,1,.3-.7,4917165483666.43,4917165483666.43,0,0,1,.6-1.2.86.86,0,0,1,.3-.6.35.35,0,0,1,.2-.1c0-.1.1-.1.1-.2s.1-.1.2-.1l.3-.3c0-.1.1-.1.1-.2a.75.75,0,0,1,.5-.7,1.42,1.42,0,0,1-.2-.6v-.3a.91.91,0,0,1,.3-.7V66a.89.89,0,0,1,.5-.8c0-.1.1-.1.1-.2l.3-.3a.35.35,0,0,1,.2-.1c0-.1.1-.1.1-.2H744a.94.94,0,0,1-1-1V63a.91.91,0,0,1-.3-.7v-.9a1.42,1.42,0,0,1,.2-.6l-.2-.2a.91.91,0,0,1-.3-.7v-2a.91.91,0,0,1,.3-.7v-.8a.91.91,0,0,1,.3-.7c0-.1.1-.1.2-.1l.3-.3c0-.1.1-.1.1-.2V55a1.05,1.05,0,0,1,.5-.9l-.2-2.2-.3-1.4V49.4a.37.37,0,0,1,.1-.3l2.6-7.8.9-2.4,1.7-5.1.3-1.4a1,1,0,0,1,.7-.8h2.9a.79.79,0,0,1,.8.5c.1,0,.1.1.2.1a.91.91,0,0,1,.3.7v1.3a.91.91,0,0,1,.3.7V36h.2a.91.91,0,0,1,.7.3h.4c.1-.1.1-.1.2-.1s.1-.1.1-.2.1-.1.2-.1a1,1,0,0,1,.7-.4l.3-.3a.35.35,0,0,1,.2-.1c0-.1.1-.1.1-.2a.91.91,0,0,1,.7-.3h.2v-.2a1.06,1.06,0,0,1,.9-1,.86.86,0,0,1,.6-.3.91.91,0,0,1,.7-.3h.2v-.5a.94.94,0,0,1,1-1h.2a.91.91,0,0,1,.7-.3h2a.91.91,0,0,1,.7.3.52.52,0,0,1,.2.4.76.76,0,0,1,.4.2h.2a.91.91,0,0,1,.7.3h.2a.91.91,0,0,1,.7.3.35.35,0,0,1,.1.2c.1,0,.1.1.2.1h0a.86.86,0,0,1,.6.3l.3.3a.86.86,0,0,1,.6.3.35.35,0,0,1,.1.2c.1,0,.1.1.2.1a.35.35,0,0,1,.1.2c.1,0,.1.1.2.1h.2a.91.91,0,0,1,.7.3h0a1,1,0,0,1,.8.8l.9,3.4.6,1.4v.1l.6,2.3.8,2.5.5,1.1c0,.1.1.2.1.3l.3,1.4.8,2.6.9,2.3V53l.5,2.3.3.3a1,1,0,0,1,.5.8v.8h0a.35.35,0,0,1,.1.2,1,1,0,0,1,.4.5A.91.91,0,0,1,779,59h0a.86.86,0,0,1,.3.6h.5a.91.91,0,0,1,.7.3.86.86,0,0,1,.3.6h1.4a.91.91,0,0,1,.7-.3h.6a.91.91,0,0,1,.7.3.35.35,0,0,1,.1.2c.1,0,.1.1.2.1a.35.35,0,0,1,.1.2c.1,0,.1.1.2.1a.91.91,0,0,1,.3.7V62a.91.91,0,0,1,.3.7V63a.91.91,0,0,1-.3.7h0a.35.35,0,0,1,.1.2c.1,0,.1.1.2.1a.35.35,0,0,1,.1.2,1,1,0,0,1,.5.8v1.9a.35.35,0,0,1,.1.2c.1,0,.1.1.2.1l.3.3a.35.35,0,0,1,.1.2c.1,0,.1.1.2.1h0a1,1,0,0,1,1-.9h.3a1,1,0,0,0,1.2,0h.3a.79.79,0,0,1,.8.5c.1,0,.1.1.2.1h0a1.18,1.18,0,0,1,.9.9h0a.35.35,0,0,1,.1.2,1,1,0,0,1,.4.5,1.09,1.09,0,0,1,.1.5c.1.1.1.2.2.3V70c.1,0,.2.1.3.2a.35.35,0,0,1,.1.2c.1,0,.1.1.2.1a.35.35,0,0,1,.1.2c.1,0,.1.1.2.1h0a.86.86,0,0,1,.6.3.35.35,0,0,1,.1.2c.1,0,.1.1.2.1a.91.91,0,0,1,.3.7v.2a.52.52,0,0,1,.2.4.76.76,0,0,1,.4.2.91.91,0,0,1,.3.7v.3a.79.79,0,0,1-.5.8c0,.1-.1.1-.1.2a.84.84,0,0,1-.4.7c0,.1-.1.1-.1.2h0a.86.86,0,0,1-.3.6v.2a.91.91,0,0,1-.3.7h0a.86.86,0,0,1-.3.6h0a.86.86,0,0,1-.3.6l-.3.3c-.1.1-.2.2-.3.2a.71.71,0,0,1-.3.6l-.1.1-.1.1a1,1,0,0,1-.5.4.76.76,0,0,1-.2.4.91.91,0,0,1-.7.3h-1.8c-.1.1-.2.3-.3.4a.6.6,0,0,1,.1.4V82a.87.87,0,0,1-.6.9,1.08,1.08,0,0,1-1,1h-1.5a1.42,1.42,0,0,1-.6-.2c-.1.1-.1.1-.2.1a.76.76,0,0,1-.2.4v.2a.91.91,0,0,1-.3.7.87.87,0,0,1-.6.8.6.6,0,0,1-.4.1H783a.35.35,0,0,1-.2.1c0,.1-.1.1-.1.2h0v.1a.79.79,0,0,1-.5.8,1,1,0,0,1-.8.5h0a.9.9,0,0,1-.5-.1.6.6,0,0,1-.1.4,1.23,1.23,0,0,1,.4.8V89a.91.91,0,0,1-.3.7.1.1,0,0,0-.1.1c.1.1.1.2.1.4v.9a1.06,1.06,0,0,1-.9,1,.37.37,0,0,1-.1.3,1.76,1.76,0,0,1-.4.5,1,1,0,0,1-.8.5h-.3a1.42,1.42,0,0,1-.6-.2l-.3.3a1,1,0,0,1-.7.4V95a1.06,1.06,0,0,1-.9,1,.91.91,0,0,1-.7.3h0a1,1,0,0,1-1-.9l-.1.1a1.18,1.18,0,0,1-.9.9.91.91,0,0,1-.7.3h-.3a.91.91,0,0,1-.7-.3.52.52,0,0,1-.2-.4,1.38,1.38,0,0,1-.4-.3.71.71,0,0,1-.3.6.37.37,0,0,1-.1.3c-.1.1-.1.2-.2.3v.4h.5a.94.94,0,0,1,1,1v.3a.91.91,0,0,1-.3.7.86.86,0,0,1-.6.3v.2a.94.94,0,0,1-1,1h-.3a.91.91,0,0,1-.7-.3c-.1-.1-.2-.3-.3-.4h-.1v.3a1.23,1.23,0,0,1-.4.8.76.76,0,0,1,.4.2.91.91,0,0,1,.3.7v.3a.94.94,0,0,1-1,1h-.3a.94.94,0,0,1-1-1V102a.75.75,0,0,1,.1-.5,1,1,0,0,1-.7-.7l-.1.1v.8a.94.94,0,0,1-1,1h-.2l-.3.3-.1.1c0,.1-.1.1-.1.2a.87.87,0,0,1-.6.8c-.1,0-.2.1-.4.1,0,.1-.1.2-.2.3a.35.35,0,0,1-.2.1l-.3.3c0,.1-.1.1-.1.2l-.3.3v.2a.94.94,0,0,1-1,1h-.2a.6.6,0,0,1-.4-.1.9.9,0,0,1-.6-.6l-.1.1-.3.3a.35.35,0,0,1-.2.1c-.1.2-.3.3-.4.4a1,1,0,0,1-.6.9.79.79,0,0,1-.5.8,1.42,1.42,0,0,1,.2.6v.3a.91.91,0,0,1-.3.7h0a.86.86,0,0,1-.3.6.91.91,0,0,1-.7.3c-.1.1-.1.2-.2.3.1.1.2.2.2.3a.91.91,0,0,1-.2,1.1l-.3.3v.2a.91.91,0,0,1-.3.7h0v.1a.79.79,0,0,1-.5.8,1,1,0,0,1-.7.4h0c-.1.1-.2.2-.3.2v.7a.91.91,0,0,1,.3.7v1.1a.91.91,0,0,1-.3.7v.5a.91.91,0,0,1-.3.7h0v.2a.91.91,0,0,1-.3.7h0a.75.75,0,0,1-.1.5c-.1.1-.1.2-.2.3l-.2.8h0v1.8a.91.91,0,0,1,.3.7v.2a.86.86,0,0,1,.3.6h0a.35.35,0,0,1,.1.2l.3.3c.1,0,.1.1.2.1l.2.2h.1a1,1,0,0,1,.8-.5h.3a.91.91,0,0,1,.7.3h0a1.06,1.06,0,0,1,.9,1v.6a.91.91,0,0,1-.3.7v.2a.91.91,0,0,1-.3.7c0,.1-.1.1-.2.1a1,1,0,0,1-.7.4l-.3.3a.86.86,0,0,1-.6.3h0c-.1.1-.2.2-.3.2v.5a1.07,1.07,0,0,1-.2.6l-.1.1c0,.2-.1.3-.2.5a1.15,1.15,0,0,1,.1,1c-.1.1-.2.3-.3.4a.37.37,0,0,1,.3.1,1.76,1.76,0,0,1,.5.4c.1,0,.1.1.2.1h1.1a1.06,1.06,0,0,1,1,.9h0a1.18,1.18,0,0,1,.9.9h0a.35.35,0,0,1,.1.2c.1,0,.1.1.2.1l.6.6a.86.86,0,0,1,.6.3.91.91,0,0,1,.3.7v.3c.1,0,.2.1.3.2a.35.35,0,0,1,.1.2,1,1,0,0,1,.5.8v.2h.2a1.06,1.06,0,0,1,1,.9h0a.91.91,0,0,1,.3.7v.2a.91.91,0,0,1,.3.7v.2h0a.86.86,0,0,1,.6.3h1.5a.91.91,0,0,1,.7-.3h.2l.3-.3a.86.86,0,0,1,.6-.3h0a.86.86,0,0,1,.6-.3h0a.35.35,0,0,1,.2-.1c.1-.1.2-.3.4-.3l.3-.2h-.5a1,1,0,0,1-1-1v-.2a.91.91,0,0,1-.3-.7v-.5h0a.91.91,0,0,1-.7.3h-.3a.71.71,0,0,1-.6-.3h0l-.1-.1a.1.1,0,0,0-.1-.1c-.1,0-.1-.1-.2-.1a1.06,1.06,0,0,1-.9-1V137a.91.91,0,0,1,.3-.7.35.35,0,0,1,.2-.1c0-.1.1-.1.1-.2a.91.91,0,0,1,.7-.3h2.3a.91.91,0,0,1,.7.3l2,2a.91.91,0,0,1,.3.7v.1l.1.2.2.2a.35.35,0,0,1,.1.2,1,1,0,0,1,.4.7.91.91,0,0,1,.3.7v.2a.91.91,0,0,1,.3.7v.1l.2.4a.6.6,0,0,1,.1.4v1.2a.91.91,0,0,1-.3.7v.3l.2.7a1.09,1.09,0,0,1-.2,1l-.3.3a.91.91,0,0,1-.7.3h-.3a1,1,0,0,1-1-1v-.3c0-.2,0-.3.1-.4s-.1-.2-.1-.3h0a.35.35,0,0,1-.2.1,1,1,0,0,1-.8.5h-.2c-.1.1-.2.2-.3.2a1.08,1.08,0,0,1-1,1h-.9c0,.1-.1.2-.2.3a1.06,1.06,0,0,0-.9.9h0a1.06,1.06,0,0,1-.9.9h0a.35.35,0,0,1,.1.2c.1,0,.1.1.2.1h0a.91.91,0,0,1,.7-.3.6.6,0,0,1,.4.1.87.87,0,0,1,.6.8h0a.91.91,0,0,1,.3.7v.9a.79.79,0,0,1-.5.8c0,.1-.1.1-.1.2a.91.91,0,0,1-.7.3H764a.91.91,0,0,1-.7.3h-.1l-.4.2a.6.6,0,0,1-.4.1h-.3l-.5.3a.52.52,0,0,1-.2.4,1.42,1.42,0,0,1,.2.6.94.94,0,0,1-1,1H760a.87.87,0,0,1-.9-.6,1,1,0,0,1,.1-.9c-.2,0-.3-.1-.4-.3a.91.91,0,0,1-.3-.7V153a1.38,1.38,0,0,1-.4.3.6.6,0,0,1-.4.1.91.91,0,0,1-.7-.3l-.3-.3a.91.91,0,0,1-.3-.7.75.75,0,0,1-.5.1h0c-.2,0-.3,0-.4-.1h-.1a1,1,0,0,1-.4.5c0,.1-.1.1-.1.2l-.3.3a.91.91,0,0,1-.7.3.6.6,0,0,1-.4-.1c-.1,0-.1-.1-.2-.1l-.3.3c0,.1-.1.1-.1.2a.91.91,0,0,1-.7.3H752c-.1.1-.2.2-.3.2a.91.91,0,0,1-.3.7v.2a.94.94,0,0,1-1,1h-.2a14751496450833.42,14751496450833.42,0,0,1-1.2.6.86.86,0,0,1-.6.3l-.3.3a.35.35,0,0,1-.2.1,1,1,0,0,1-.8.5h-.2a.86.86,0,0,1-.6.3l-.3.3a.91.91,0,0,1-.7.3c0,.1-.1.2-.2.3l-.3.3a.87.87,0,0,1-.6.8.6.6,0,0,1-.4.1h-.5a.91.91,0,0,1-.7-.3c-.1-.1-.2-.2-.2-.3h-.8c0,.1-.1.2-.2.3l-.1.1h.6a.94.94,0,0,1,1,1v.2h.2a.91.91,0,0,1,.7.3l.3.3a.35.35,0,0,1,.1.2h.1l.3-.3.3-.3c0-.1.1-.1.1-.2a.91.91,0,0,1,.7-.3h.9a.94.94,0,0,1,1,1v.6a.79.79,0,0,1-.5.8c0,.1-.1.1-.1.2a.35.35,0,0,1-.2.1c0,.1-.1.1-.1.2a.52.52,0,0,1-.4.2.76.76,0,0,1-.2.4.86.86,0,0,1-.6.3l-.3.3a.86.86,0,0,1-.6.3l-.3.3a.35.35,0,0,1-.2.1c0,.1-.1.1-.1.2l-.6.6a.86.86,0,0,1-.6.3l-.3.3a1.06,1.06,0,0,1-.9.9l-.3.3a.52.52,0,0,1-.4.2.87.87,0,0,1-.8.6l-.3.3a.86.86,0,0,1-.6.3l-.3.3c0,.1-.1.1-.2.1s-.1.1-.1.2a.86.86,0,0,1-.6.3l-.3.3a.35.35,0,0,1-.2.1c0,.1-.1.1-.1.2a.86.86,0,0,1-.6.3h0a.86.86,0,0,1-.6.3l-.1.1-.1.1a1,1,0,0,1-.7.4l-.3.3-.1.1h-.1c0,.1-.1.1-.1.2a.35.35,0,0,1-.2.1c0,.1-.1.1-.1.2a.86.86,0,0,1-.6.3l-.3.3a.35.35,0,0,1-.2.1c0,.1-.1.1-.1.2l-.6.6a.86.86,0,0,1-.6.3h0a.86.86,0,0,1-.6.3h0a.35.35,0,0,1-.2.1c0,.1-.1.1-.1.2a.86.86,0,0,1-.6.3h0a.86.86,0,0,1-.6.3h0a.86.86,0,0,1-.6.3h0a.91.91,0,0,1-.7.3h-1l-.6.6c-.1.1-.2.1-.3.2l-.6.3a.6.6,0,0,1-.4.1h-.3a.76.76,0,0,1-.5.2h0a.91.91,0,0,1-.7.3h-.6l-.4.2a.6.6,0,0,1-.4.1H722l-.3.3a.86.86,0,0,1-.6.3l-.3.3a.86.86,0,0,1-.6.3h0a.91.91,0,0,1-.7.3.6.6,0,0,1-.4-.1c-.1-.1-.2-.1-.3-.2h-.7a.84.84,0,0,1-.4.7c0,.1-.1.1-.1.2a.86.86,0,0,1-.6.3l-.6.6a.35.35,0,0,1-.2.1,1,1,0,0,1-.5.4C716.8,179.8,716.7,179.8,716.6,179.8Zm11.3-13.3a1.42,1.42,0,0,1,.6.2h0c0-.1.1-.1.1-.2h0a.75.75,0,0,1,.1-.5,1.76,1.76,0,0,1,.4-.5c0-.1.1-.1.1-.2a.91.91,0,0,1,.7-.3h.7a.91.91,0,0,1,.7-.3h.8a.91.91,0,0,1,.7-.3h.4a.91.91,0,0,1,.7-.3h.5a.86.86,0,0,1,.6-.3h0a.86.86,0,0,1,.6-.3h0a.91.91,0,0,1,.7-.3h.2a.86.86,0,0,1,.3-.6l.3-.3a.35.35,0,0,1,.2-.1c0-.1.1-.1.1-.2l.6-.6a.86.86,0,0,1,.3-.6l.6-.6a.86.86,0,0,1,.3-.6l.3-.3a.35.35,0,0,1,.2-.1c0-.1.1-.1.1-.2a.86.86,0,0,1,.6-.3h0a.91.91,0,0,1,.7-.3c0-.1.1-.2.2-.3l.3-.3.1-.1h-.1a.91.91,0,0,1-.7.3h-.2a.35.35,0,0,1-.2.1c0,.1-.1.1-.1.2s-.1.1-.2.1a1,1,0,0,1-.5.4.6.6,0,0,1-.4.1h-.4c-.2,0-.3,0-.4-.1s-.2.1-.3.1-.1.1-.2.1l-.3.3a1,1,0,0,1-.5.4.6.6,0,0,1-.4.1.91.91,0,0,1-.7-.3h0a.86.86,0,0,1-.6.3c-.1.1-.1.1-.2.1a1,1,0,0,1-.8.5,1.42,1.42,0,0,1-.6-.2h0a1,1,0,0,1-.8.5H733a.91.91,0,0,1-.7.3h-.5c-.1.1-.1.1-.2.1s-.1.1-.1.2h0a1.06,1.06,0,0,1-.9.9h0v.2a.79.79,0,0,1-.5.8c0,.1-.1.1-.1.2a.91.91,0,0,1-.7.3H729a.52.52,0,0,1-.4.2.76.76,0,0,1-.2.4.86.86,0,0,1-.6.3h0a.35.35,0,0,1-.2.1,1,1,0,0,1-.7.4c-.1.1-.1.1-.2.1s-.1.1-.1.2h0a.86.86,0,0,1-.3.6l-.1.1h.2a.6.6,0,0,1,.4.1c.1.1.2.1.3.2h.1C727.3,166.5,727.9,166.5,727.9,166.5Zm30.4-18h0c.1-.1.3-.2.4-.3s.1-.3.2-.4l.1-.1h-.6v.5l-.1.3Zm1.3-2a.64.64,0,0,1,0,.6l.1-.1a.86.86,0,0,1,.3-.6h0l-.2-.2C759.8,146.3,759.7,146.4,759.6,146.5Zm-9.9,12.3a1,1,0,0,1-1-1v-.9a.91.91,0,0,1,.3-.7V156a1,1,0,0,1,1-1h.3a.94.94,0,0,1,1,1v.2l.3.3a1,1,0,0,1,0,1.4l-.3.3a.86.86,0,0,1-.6.3h0a.91.91,0,0,1-.7.3Zm18.8-7.5a.91.91,0,0,1-.7-.3h-.5a.79.79,0,0,1-.8-.5c-.1,0-.1-.1-.2-.1l-.3-.3a.91.91,0,0,1-.2-1.1,1,1,0,0,1,.9-.6h.3a.91.91,0,0,1,.7.3h1a.86.86,0,0,1,.6-.3c.1-.1.1-.1.2-.1h0l-.2-.2a.91.91,0,0,1-.2-1.1,1,1,0,0,1,.9-.6h.6a.79.79,0,0,1,.8.5l.3.3a1,1,0,0,1,.4.7h0a.35.35,0,0,1,.1.2c.1,0,.1.1.2.1l.3.3a.91.91,0,0,1,.3.7v.6a.91.91,0,0,1-.3.7.35.35,0,0,1-.2.1,1,1,0,0,1-.8.5h-.2a.91.91,0,0,1-.7.3A17,17,0,0,0,768.5,151.3Zm4.4-51.6a1.06,1.06,0,0,1-1-.9.91.91,0,0,1-.3-.7v-.6a.94.94,0,0,1,1-1h0a.78.78,0,0,1,.7.3v-.2a.94.94,0,0,1,1-1h.3a.94.94,0,0,1,1,1v.3a1,1,0,0,1-1,1h-.3a.9.9,0,0,1-.5-.1v.8A.87.87,0,0,1,772.9,99.7Z" transform="translate(-631.6 -30.5)"/></svg>