<svg xmlns="http://www.w3.org/2000/svg" viewBox="0 0 241.41 190.2"><defs><style>.a{opacity:0.75;}.b{fill:#00b0f0;stroke:#fff;}</style></defs><title>reliabilityfirst</title><g class="a"><path class="b" d="M585.8,278a1,1,0,0,1-.8-.5l-2-3.2c-.1-.1-.1-.2-.1-.4l-.6-3.2a.84.84,0,0,1,.2-.7l2.6-3.8a.92.92,0,0,1,.6-.4l2.3-.6h.2a1.42,1.42,0,0,1,.6.2l1.5,1,2.3.2.3-.2-.7-2.9v-.3l.3-3.5v-2a1,1,0,0,1,.8-1l1.2-.3h1.4a1.42,1.42,0,0,1,.6.2l1.2.9a1,1,0,0,1,.4.7l.2,1.2h1.5l-.4-2.8-2.5-.5c-.1,0-.1,0-.2-.1l-1.5-.6c-.1-.1-.2-.1-.3-.2l-2.3-2.3-.1-.1-2.3-2.9a1.23,1.23,0,0,1-.2-1,.87.87,0,0,1,.8-.6l3.5-.6h.2a1,1,0,0,1,.9.6l.8,1.6.9.9,1.4-.6c.1,0,.1,0,.2-.1l.3-.1-.1-.2-1.2-1.7-1.5-.7-2.3-.9c-.1,0-.1,0-.2-.1l-1.5-.9a1.16,1.16,0,0,1-.5-.7l-.3-2.3a1,1,0,0,1,.5-1l1.6-.9.3-1.7a.9.9,0,0,1-.5.1H593a.91.91,0,0,1-.7-.3l-.3-.3c-.1-.1-.2-.2-.2-.3h-.4c-.2,0-.3,0-.4-.1l-.4-.2h-.3a.91.91,0,0,1-.7-.3h0a.86.86,0,0,1-.6.3h0v.2a.91.91,0,0,1-.3.7l-.3.3a.91.91,0,0,1-.7.3c-.2,0-.3,0-.4-.1l-.4-.2h-.6a.91.91,0,0,1-.7-.3l-.3-.3a.86.86,0,0,1-.3-.6h-.2a1.06,1.06,0,0,1-1-.9h-.5c-.2,0-.3,0-.4-.1s-.2.1-.3.1h0a.91.91,0,0,1-.7.3h-.6c-.2,0-.3,0-.4-.1l-.4-.2h-1.2a.79.79,0,0,1-.8-.5,1,1,0,0,1-.4-.7.91.91,0,0,1-.3-.7h0l-.3-.3c-.1-.1-.1-.2-.2-.3l-.2-.4-.2-.2a.91.91,0,0,1-.3-.7c-.1,0-.2-.1-.3-.2h-.8a1.09,1.09,0,0,1-1-.7c-.1.1-.2.1-.4.1a.91.91,0,0,1-.7.3h-1.2a.91.91,0,0,1-.7-.3h-.2a1.42,1.42,0,0,1-.6-.2.76.76,0,0,1-.5.2.52.52,0,0,1-.4.2h0l.1.1c.1,0,.1.1.1.2a1,1,0,0,1,.5.8v.8a1.06,1.06,0,0,1,.9,1v.9a1.42,1.42,0,0,1-.2.6,1.06,1.06,0,0,1-.1,1.3l-.3.3a.91.91,0,0,1-.7.3H570a.6.6,0,0,1-.4-.1,1.23,1.23,0,0,1-.8.4h-.5a.35.35,0,0,1-.2.1l-.3.3a1,1,0,0,1-.7.4h0a.35.35,0,0,1-.2.1c0,.1-.1.1-.1.2l-.6.6a.91.91,0,0,1-.7.3h-.9a.79.79,0,0,1-.8-.5l-.3-.3h0l-.1.1a.6.6,0,0,1-.4.1h-.6a.75.75,0,0,1,.1.5v.8a.35.35,0,0,1,.1.2,1,1,0,0,1,.5.8v.9a.79.79,0,0,1-.5.8l-.3.3c0,.1-.1.1-.1.2a1.79,1.79,0,0,1-1.2,1.2h0l-.4.2a.91.91,0,0,1-.3.7v1a.91.91,0,0,1-.3.7l-.9.9a.35.35,0,0,1-.2.1,1,1,0,0,1-.8.5h-.5a.86.86,0,0,1-.3.6l-.6.6v.6a1,1,0,0,1,0,1.4v.8a.91.91,0,0,1-.3.7l-.3.3a.35.35,0,0,1-.2.1,1,1,0,0,1-.7.4,1.06,1.06,0,0,1-1,.9H554a.91.91,0,0,1-.7-.3l-.3-.3c-.1-.1-.1-.2-.2-.3h-1a.91.91,0,0,1-.7-.3h0a.86.86,0,0,1-.6-.3l-.9-.9-.2-.2c-.1,0-.1.1-.2.1a1.79,1.79,0,0,1-1.2,1.2l-.1.1c0,.1.1.2.1.3a.91.91,0,0,1,.3.7v.6a.94.94,0,0,1-1,1h-.5v.5a.91.91,0,0,1-.3.7l-.3.3a.91.91,0,0,1-.7.3H545a1.06,1.06,0,0,1-1-.9.86.86,0,0,1-.6-.3l-.9-.9a.35.35,0,0,1-.1-.2h-.1c0,.1-.1.1-.2.2l-.3.3a.91.91,0,0,1-.7.3H541a.86.86,0,0,1-.6.3h0v.5c0,.2,0,.3-.1.4l-.2.4v.3a.79.79,0,0,1-.5.8,1,1,0,0,1-.8.5h-.6a.91.91,0,0,1-.7-.3l-.3-.3a.86.86,0,0,1-.3-.6h-.5a.91.91,0,0,1-.7-.3h0a1,1,0,0,1-.7-.4c-.1,0-.1-.1-.2-.1h-.2a.79.79,0,0,1-.8-.5c-.1,0-.1-.1-.2-.1h0a.35.35,0,0,1-.2.1l-.3.3a1,1,0,0,1-.8.5h-.2a.86.86,0,0,1-.3.6h0a.84.84,0,0,1-.4.7,1,1,0,0,1-.8.5H530a.79.79,0,0,1-.8-.5.92.92,0,0,1-.4-.6.75.75,0,0,1-.5.1h-.8v.5a.79.79,0,0,1-.5.8l-.3.3a1,1,0,0,1-.8.5h-.6a.91.91,0,0,1-.7-.3H524a.94.94,0,0,1-1-1v-1.1h0a.91.91,0,0,1-.3-.7v-.3a1.06,1.06,0,0,1,.9-1v-.6a.91.91,0,0,1-.3-.7v-.6a.91.91,0,0,1,.3-.7v-.2a.91.91,0,0,1,.3-.7l.3-.3a.91.91,0,0,1-.3-.7V253a.91.91,0,0,1,.3-.7v-.5a.79.79,0,0,1,.5-.8,1,1,0,0,1,.8-.5h.4a.86.86,0,0,1,.3-.6l.6-.6a.37.37,0,0,1,.1-.3.6.6,0,0,1-.1-.4V248a1.06,1.06,0,0,1,.9-1c.1-.1.2-.2.3-.2v-.5a.91.91,0,0,1,.3-.7.86.86,0,0,1,.3-.6v-.5a.91.91,0,0,1,.3-.7h0a1.06,1.06,0,0,1,.9-.9.37.37,0,0,1,.1-.3.6.6,0,0,1-.1-.4V242a.91.91,0,0,1-.3-.7V241a.91.91,0,0,1-.3-.7v-.4a1.61,1.61,0,0,1,.3-.9h0a1.06,1.06,0,0,1-.9-1v-.8a.35.35,0,0,1-.1-.2c-.1,0-.1-.1-.2-.1l-.3-.3a1.06,1.06,0,0,1-.9-1v-.8a.79.79,0,0,1,.5-.8c0-.1.1-.1.1-.2s.1-.3.2-.5a1.42,1.42,0,0,1-.2-.6v-.2a.91.91,0,0,1-.3-.7v-.3a.91.91,0,0,1,.3-.7,1.18,1.18,0,0,1,.9-.9h0v-.6l-.2-.7c0-.1-.1-.2-.1-.3v-1.9a.91.91,0,0,1-.3-.7v-1.6l-.3-2.6v-.9l-.3-2V218l-.3-2v-2.6l-.2-.7c0-.1-.1-.2-.1-.3V209l-.3-1v-.1l-.1-1.1-1.9,1a.75.75,0,0,1-.5.1h-.1l-2.9.1-3.1-.3-5.4.3h-4.9l-4.5.6h-.4l-2.9-.9a1,1,0,0,1-.7-.9l-.3-2.9a.9.9,0,0,1,.1-.5l1.5-3.8c0-.1.1-.2.2-.3l2.3-2.6.1-.1,2.3-2-.9-1.2-1.5-1.3-1.7-.8-1.9,2.8a.91.91,0,0,1-.8.4h-.1l-3.5-.3a.76.76,0,0,1-.4-.1l-2.9-1.5-.3-.3-2.5-3-2.4-1.1a1.06,1.06,0,0,1-.6-.7.81.81,0,0,1,.3-.9l.3-.3a.35.35,0,0,1,.2-.1.78.78,0,0,1,.4-.4V185c0-.2,0-.3.1-.4a.6.6,0,0,1-.1-.4v-.6a1,1,0,0,0,0-1.2v-.8a1,1,0,0,1-.6-.8h-.2a.91.91,0,0,1-.7-.3.86.86,0,0,1-.6-.3.86.86,0,0,1-.6-.3,1.18,1.18,0,0,1-.9-.9.91.91,0,0,1-.3-.7v-.8c-.1-.1-.1-.2-.2-.3a1.07,1.07,0,0,1,.1-1.1l2.9-3.5a1.61,1.61,0,0,1,.7-.4l4.3-.3h1.2l4.3-.3,2.6-.3h1.9l-2.1-3.7-2-2.6c0-.1-.1-.1-.1-.2l-1.8-3.5-1.8-4.4a1.1,1.1,0,0,1,.3-1.2l2.9-2.3a.76.76,0,0,1,.4-.2l3.6-.8,2.3-1.5,1.6-2.7a1.16,1.16,0,0,1,.7-.5l2.5-.3,5.9-2.3c.1,0,.2,0,.2-.1l2.6-.3h.1a1.07,1.07,0,0,1,.6.2,1.61,1.61,0,0,1,.4.7l.3,3.2a.9.9,0,0,1-.1.5l-1.1,2.7.5,3.2.3,3.9.3,3.1.9,3.1,1.5,5.5v3.5l1.8,2.6,2,2.3a.52.52,0,0,1,.2.4l.8,2.8,1,1.4,4.1-.5h1.2l1.6-.2,2.3-2.6,3.1-4.7,1.1-4.2.8-4.4v-4.8l-.3-3.8-2.8-5.6-1.8-3.8.4-1.3a.6.6,0,0,1-.1-.4l.3-4.3.3-6.9v-.2l1.2-5.2,1.5-4.6c0-.1,0-.1.1-.1l2-4.1c.1-.1.1-.2.2-.3l2-1.8,2-1.5.8-.8a.91.91,0,0,1,.7-.3h.2a1.06,1.06,0,0,1,.7.6l1.2,2.9a1.09,1.09,0,0,1,.1.5v.2h.2l.2-1.8-.3-2.8a.6.6,0,0,1,.1-.4l1.2-3.2a1.38,1.38,0,0,1,.3-.4l1.5-1.2c.1,0,.1-.1.2-.1l1.7-.8-.4-2.5a.84.84,0,0,1,.2-.7l1.8-2.6a1,1,0,0,1,.5-.4l3.2-1.2c.1,0,.2-.1.3-.1a.37.37,0,0,1,.3.1l3.2,1.2h.1l2.3,1.2,4,1.7,3.4.9h.1l3.5,1.5c.1.1.3.2.4.3l1.8,2a.78.78,0,0,1,.2.8l-.5,2.7.5,2.3,2,4c0,.1.1.2.1.3l.6,4.1v.5l-1.5,4.3c-.1.2-.1.3-.3.4l-3.2,2.9-2.7,2.5-.7,1.9v1.6l2.1,1.3,2.1-.2,2.4-3.4.1-.1,3.2-3.2.1-.1,4.1-2.9a1.42,1.42,0,0,1,.6-.2.6.6,0,0,1,.4.1l2.6,1.2a1,1,0,0,1,.5.4l2,3.8a.37.37,0,0,1,.1.3l.6,3.7.9,2.9c0,.1.1.3,0,.5l-.5,3.1,1.1,1.5,1.5.8a.88.88,0,0,1,.5,1l-.3,2.9v.2l-.8,2.5-.3,2.5a1.06,1.06,0,0,1-1,.9h-1.5a1.05,1.05,0,0,1-.9-.5l-.6-1-.2,2-.6,3a.55.55,0,0,1-.3.5l-2,2-2,1.7-.8,1.2.7,2.2a1.09,1.09,0,0,1-.2,1l-3.2,3.1-1.4,1.9-.7,1.5v.7l2.3-.4.6-.6.8-1.1.6-.8a.1.1,0,0,1,.1-.1l1.8-2a1.14,1.14,0,0,1,.8-.3h.1a1,1,0,0,1,.8.5l.7,1.4,4.3,1.9.9.5,3.5-.5,8.4-7.3a.73.73,0,0,1,.6-.2l.5-.4,1.7-1.7,3-2.7c.1-.1.2-.1.3-.2l2.9-1.2.5-.3h.1l6.3-2.3,1.7-.9h.1l4-1.4,4-2.8a1.42,1.42,0,0,1,.6-.2.6.6,0,0,1,.4.1,1,1,0,0,1,.6.8l.5,4,.1.1a.91.91,0,0,1,.3.7v1.3l.6,2.5,1.2-.2,1.1-.3,3.9-.6,1.4-.3,1.1-.3h1a.91.91,0,0,1,.7-.3h.5l1.6-.2a1.23,1.23,0,0,1,.8-.4h.2l1.4-.3,2.1-.3,1.7-.3h.4a.91.91,0,0,1,.7-.3h.8a.86.86,0,0,1,.6-.3l2.3-.3h.6l1.4-.3,1.6-.3.4-.2a.6.6,0,0,1,.4-.1h.1l.7-.2h.1l2.6-.6,3.5-.6.8-.3h.2l2-.3h.3a2.19,2.19,0,0,1,.5-.3l3.5-.6h.3l.4-.2a.6.6,0,0,1,.4-.1h.7l.7-.2,1.2-.3,3.3-.6h.7l6.8-1.7,1.8-.3h.4l1-.3h.8a.87.87,0,0,1,.9.6,1.06,1.06,0,0,1,1,.9.86.86,0,0,1,.3.6h1.3a.79.79,0,0,1,.8.5c.1,0,.1.1.2.1a1.06,1.06,0,0,1,.9,1v.2a.35.35,0,0,1,.1.2,1,1,0,0,1,.5.8v.5c.1.1.2.2.2.3a1.09,1.09,0,0,1,.1.5h0a.91.91,0,0,1,.3.7v.5c.1.1.1.1.1.2l.3.3a1,1,0,0,1,.4.7h.5a.91.91,0,0,1,.7.3h1.8a1,1,0,0,1,.9.6,1,1,0,0,1,.5.4c.1.1.3.2.3.4l.3.1a.1.1,0,0,1,.1.1l.5.2,1.1.3,1.8.6a.76.76,0,0,1,.4.2h.2a.91.91,0,0,1,.7.3h.2a.91.91,0,0,1,.7.3h.2l.7.2h.1a.37.37,0,0,1,.3.1l.9.3,2,.6c.2,0,.3.1.4.3h0c.1,0,.2,0,.2.1l1.5.6a1,1,0,0,1,.6.9v1.8a.37.37,0,0,1-.1.3l-.2.7v1a.91.91,0,0,1-.3.7v1.6a1,1,0,0,1-.6.9,2.1,2.1,0,0,1-1.3,1.3h-.2v.8a.91.91,0,0,1-.3.7v.2a.75.75,0,0,1,.5-.1h.6a.91.91,0,0,1,.7.3h1.2a.91.91,0,0,1,.7.3h0a1.06,1.06,0,0,1,.9,1v.3l.2.4a1.7,1.7,0,0,1,.1.7v5.4a.91.91,0,0,1-.3.7c0,.2-.1.3-.2.5s.1.1.1.2a.85.85,0,0,1,0,.7v.6c0,.2,0,.3-.1.4a1.27,1.27,0,0,1,.1.6v.3a1.61,1.61,0,0,1-.3.9h0a.37.37,0,0,1-.1.3c0,.1.1.2.1.3s.1.1.1.2a1,1,0,0,1,.4.5.91.91,0,0,1-.2,1.1h0a.86.86,0,0,1-.3.6v.2a.79.79,0,0,1-.5.8c0,.1-.1.1-.1.2a.84.84,0,0,1-.4.7c0,.1-.1.1-.1.2h0v.4a1,1,0,0,1-.6.9v.5c.1,0,.2.1.3.2l.3.3a1,1,0,0,1,0,1.4l-.2.2-.1.2a.6.6,0,0,1-.1.4.87.87,0,0,1-.8.6l-.3.3a.35.35,0,0,1-.2.1c0,.1-.1.1-.1.2h0a.84.84,0,0,1-.4.7c0,.1-.1.1-.1.2h0c0,.3-.3.6-.6.8v.3a.91.91,0,0,1-.3.7.86.86,0,0,1-.3.6V208a.91.91,0,0,1-.3.7l-.1.1-.2.7a.52.52,0,0,1-.2.4v.5a1,1,0,0,1-.4.8l-.2.5a.89.89,0,0,1-.8.5.86.86,0,0,1-.6.3.91.91,0,0,1-.7.3h-.3a.91.91,0,0,1-.7-.3l-.3-.3a.91.91,0,0,1-.3-.7V210a.37.37,0,0,1,.1-.3l.5-1.4a.76.76,0,0,1-.2-.5h-1.8a.35.35,0,0,1-.2.1,1,1,0,0,1-.8.5h-.3a1,1,0,0,1-1-1c-.1,0-.2-.1-.3-.2h-.2a.91.91,0,0,1-.7-.3h-.4v.4a.91.91,0,0,1,.3.7v.4a.37.37,0,0,1-.1.3h0a.6.6,0,0,1,.1.4v.1l.2.4a.6.6,0,0,1,.1.4c.1,0,.2.1.3.2h0a1,1,0,0,1,.8.5l.2.4.2.2a.91.91,0,0,1,.3.7v.2a.52.52,0,0,1,.2.4.76.76,0,0,1,.4.2l.3.3a.84.84,0,0,1,.7.4c.1,0,.1.1.2.1l.3.3h0c.1-.1.2-.2.3-.2a.6.6,0,0,1,.4-.1.91.91,0,0,1,.7.3l.3.3c.1.1.1.2.2.3l.3.6a.6.6,0,0,1,.1.4v.2a.91.91,0,0,1,.3.7v.3a1.42,1.42,0,0,1-.2.6c0,.1.1.1.1.2s.1.2.1.3.2.1.3.2l.3.3a.91.91,0,0,1,.3.7v.1l.2.7c0,.1.1.2.1.3v.6l.2.4a.6.6,0,0,1,.1.4v1.2c0,.2,0,.3-.1.4l-.3.6c0,.1-.1.2-.2.3v.4a.91.91,0,0,1-.3.7v.2a.91.91,0,0,1-.3.7,1.06,1.06,0,0,1-.9.9v.2a.91.91,0,0,1-.3.7v.2a.91.91,0,0,1-.3.7l-.3.3h0v1.2a.79.79,0,0,1-.5.8h0a1.42,1.42,0,0,1,.2.6v1.2a.79.79,0,0,1-.5.8c0,.1-.1.1-.1.2a.86.86,0,0,1-.3.6v.2a.91.91,0,0,1-.3.7h0c0,.3-.3.6-.6.8a.76.76,0,0,1-.1.4,1.23,1.23,0,0,1,.4.8V239a.79.79,0,0,1-.5.8l-.3.3c0,.1-.1.1-.1.2v.2a.79.79,0,0,1-.5.8c0,.1-.1.1-.1.2a1,1,0,0,1-.7.8.75.75,0,0,1,.1.5v.3a.91.91,0,0,1-.4.8.6.6,0,0,1,.1.4v.3a.91.91,0,0,1-.3.7,1,1,0,0,1-.7.8.9.9,0,0,1,.1.5v2.3a.94.94,0,0,1-1,1h-.3a1.06,1.06,0,0,1-1-.9.86.86,0,0,1-.3-.6l-.6-.6a1.4,1.4,0,0,1-.3-.9h0a.91.91,0,0,1-.3-.7v-3.3a1.27,1.27,0,0,1,.1-.6.6.6,0,0,1-.1-.4v-1.7c0-.2,0-.3.1-.4a.6.6,0,0,1-.1-.4v-.3a.91.91,0,0,1,.3-.7v-.2a.91.91,0,0,1,.3-.7V237a.91.91,0,0,1,.3-.7.86.86,0,0,1,.3-.6h0v-.3c-.1-.1-.2-.2-.2-.3a.91.91,0,0,1,.2-1.1h0a.87.87,0,0,1,.6-.8h.1l-.1-.1-.2.2a1,1,0,0,1-.8.5h-.3a1.06,1.06,0,0,1-1-.9h0a.91.91,0,0,1-.3-.7V232a.91.91,0,0,1,.3-.7.37.37,0,0,1,.1-.3c.1-.1.1-.2.2-.3v-.1a1,1,0,0,1-.6-.8h-.8a.87.87,0,0,1-.9-.6.85.85,0,0,1,0-.7v-.3a.75.75,0,0,1-.5.1H699a.91.91,0,0,1-.7-.3h0c-.3,0-.6-.3-.8-.6a1,1,0,0,1-.8-.5c-.1,0-.1-.1-.2-.1l-.3-.3h-.5a.91.91,0,0,1-.7-.3c-.1,0-.3-.1-.4-.1v.1l.1.1a.91.91,0,0,1,.3.7v.8a.35.35,0,0,1,.1.2c.1,0,.1.1.2.1l.6.6c.1,0,.1.1.1.2a1,1,0,0,1,.5.8v.6l.2.4a.6.6,0,0,1,.1.4v.3a.91.91,0,0,1-.3.7l-.3.3a.91.91,0,0,1-.7.3.6.6,0,0,1-.4-.1,1.76,1.76,0,0,1-.5-.4l-.3-.3c-.1,0-.1-.1-.2-.1a.86.86,0,0,1-.6-.3l-.1-.1c-.1,0-.2.1-.4.1h-.6a.79.79,0,0,1-.8-.5,1,1,0,0,1-.4-.7h0a.37.37,0,0,1-.3-.1h-.1a.6.6,0,0,1-.4.1,1.42,1.42,0,0,1-.6-.2h0a1,1,0,0,1-.8.5h-.6a.87.87,0,0,1-.9-.6h-.8a.91.91,0,0,1-.7-.3.87.87,0,0,1-.8-.6.76.76,0,0,1-.4-.2l-.3-.3a.35.35,0,0,1-.1-.2,1,1,0,0,1-.4-.7h0a.52.52,0,0,1-.4.2,1,1,0,0,1-.4.5l-.3.3a1,1,0,0,1-.8.5h-.9a.91.91,0,0,1-.7-.3l-.3-.3a.35.35,0,0,1-.1-.2,1,1,0,0,1-.5-.8v-.4h0a.91.91,0,0,1-.3-.7v-1.2a.79.79,0,0,1,.5-.8c0-.1.1-.1.1-.2a.86.86,0,0,1,.3-.6v-.5a1,1,0,0,1,.6-.9.81.81,0,0,1,.3-.9h0a.84.84,0,0,1,.4-.7l.3-.3c0-.1-.1-.1-.1-.2a.91.91,0,0,1,.2-1.1v-.2a1.42,1.42,0,0,1,.2-.6l.6-.9-.7-.4-.3.4a.91.91,0,0,1-.8.4h-.3a.91.91,0,0,1-.7-.3h-.8a.91.91,0,0,1-.7-.3l-.6-.6a.52.52,0,0,1-.2-.4.76.76,0,0,1-.4-.2h-.9a.91.91,0,0,1-.7.3h-.3a1.06,1.06,0,0,1-1-.9h-.2a.94.94,0,0,1-1-1v-1.2a.75.75,0,0,1,.1-.5c-.2,0-.3-.1-.4-.3h0a.86.86,0,0,1-.6-.3h-.9v.2a.91.91,0,0,1-.3.7v1.3a.91.91,0,0,1-.3.7.75.75,0,0,1-.5.7.9.9,0,0,1-.5.1c-.2,0-.3,0-.4-.1l-.6-.3-1.4-.9-.8-.3a.1.1,0,0,1-.1-.1l-.3.1a.1.1,0,0,1-.1-.1l-.9-.6-1.4-.8-.7-.4h-.2v.8a.91.91,0,0,1-.3.7.86.86,0,0,1-.3.6h0v.9a.91.91,0,0,1,.3.7v.3a.91.91,0,0,1-.3.7.86.86,0,0,1-.3.6h0a.87.87,0,0,1-.6.8c-.1.1-.1.3-.2.4a.86.86,0,0,1-.3.6v.5a.91.91,0,0,1-.3.7v.2a1,1,0,0,1-1,1c0,.1-.1.2-.2.3l-.3.3a1.06,1.06,0,0,1-1,.9h-.2v.2a.91.91,0,0,1-.3.7v.2a.91.91,0,0,1-.3.7v.2a.94.94,0,0,1-1,1h-.3a1.42,1.42,0,0,1-.6-.2l-.6-.5-.1.1-.3.3v.2a1,1,0,0,0,0,1.2v.6a1,1,0,0,1-.6.9.76.76,0,0,1-.2.4v.8a.91.91,0,0,1-.3.7v.8a.91.91,0,0,1-.3.7v.2a.79.79,0,0,1-.5.8l-.3.3-.3.3a1,1,0,0,1-.8.5h-.9c-.2,0-.3,0-.4-.1l-.4-.2h-.1a.37.37,0,0,1-.3-.1l-.8-.8a.76.76,0,0,1-.4-.2l-.6-.6a.52.52,0,0,1-.2-.4,1.38,1.38,0,0,1-.4-.3v.2a.91.91,0,0,1-.3.7v1.3a.91.91,0,0,1-.3.7v.5a1,1,0,0,1-.6.9v.8a.79.79,0,0,1-.5.8l-.3.3c0,.1-.1.1-.1.2a.84.84,0,0,1-.4.7c0,.1-.1.1-.1.2v1.4a.91.91,0,0,1-.3.7v.5a.91.91,0,0,1-.3.7v.2a.79.79,0,0,1-.5.8c0,.1-.1.1-.1.2a1,1,0,0,1-.4.7c0,.1-.1.1-.1.2a.84.84,0,0,1-.4.7c0,.1-.1.1-.1.2,0,.3-.3.6-.6.8a.91.91,0,0,1-.3.7.86.86,0,0,1-.3.6v.2a.91.91,0,0,1-.3.7v1h0a1.06,1.06,0,0,1,.9,1v.3a.91.91,0,0,1-.3.7h0a.86.86,0,0,1-.3.6v.4l10.3-2.6h.2a.6.6,0,0,1,.4.1l6,2.9a1,1,0,0,1,.5,1.2l-3.5,11.9a1,1,0,0,1-.8.7h-.2a1.23,1.23,0,0,1-.8-.4l-2.4-3.3-5.7,3.9-.3,4.2a.9.9,0,0,1-.9.9l-7.5.9-11.6,1.2-17.3,2.3-8.9,1.2-7.7,1.7h-.2C591.1,278.3,585.8,278,585.8,278ZM693,223.2c.1,0,.2.1.3.1v-.6a.91.91,0,0,1,.3-.7h0a.91.91,0,0,1-.2-1.1c.1-.1.1-.2.2-.3a.86.86,0,0,1,.3-.6h0a1.14,1.14,0,0,1,.3-.6h-.5a.94.94,0,0,1-1-1v-.2a.91.91,0,0,1-.3-.7v-.9a.79.79,0,0,1,.5-.8,1,1,0,0,1,.7-.4l-.1-.2a.1.1,0,0,1-.1-.1l-.3-.3a.91.91,0,0,1-.2-1.1c.1-.1.1-.2.2-.3a.86.86,0,0,1,.3-.6v-.4h-.2a1,1,0,0,1-1-1,1,1,0,0,1-.6-.9V209a.91.91,0,0,1,.3-.7h-.4c-.1.1-.1.2-.2.3h0c.1.1.2.2.2.3a.91.91,0,0,1-.2,1.1h0c0,.2-.1.3-.2.5a1.42,1.42,0,0,1,.2.6v.2a.91.91,0,0,1,.3.7.78.78,0,0,1,.4.4,1,1,0,0,1,.5.8v.3a.91.91,0,0,1-.3.7.86.86,0,0,1-.3.6v.7a1.05,1.05,0,0,1-.5.9,1.42,1.42,0,0,1,.2.6v.9a.91.91,0,0,1-.3.7h0a.91.91,0,0,1,.3.7v.2a.91.91,0,0,1,.3.7v.2a.91.91,0,0,1,.3.7v.5a.91.91,0,0,1,.3.7v.3l.1.2Z" transform="translate(-482.29 -89.4)"/><polyline class="b" points="28.91 36.5 28.61 38.2 28.31 39.3 28.61 40.8 29.21 42.5 29.81 43.7 30.01 45.7 29.81 46.8 29.51 48 28.91 48.9 28.91 49.7 29.81 49.7 30.31 49.7 30.91 50 30.91 51.5 30.31 53 28.31 53 27.71 51.5 26.51 52.1 26.01 53 24.91 52.7 24.31 51.5 22.91 50.9 22.31 51.8 22.01 53 20.21 52.7 18.51 53 17.11 52.4 16.01 50.9 15.71 49.5 17.31 48 18.51 47.1 18.81 45.9 19.61 44.3 21.41 43.7 22.61 42.5 22.91 41.1 23.11 39 23.41 37.9 24.91 37.6 26.31 37.9 26.31 36.5 28.91 36.5"/><polyline class="b" points="82.21 6.8 80.81 8.5 80.81 10 75.31 9.7 74.81 10.6 75.11 11.3 74.81 12.5 72.11 11.1 67.61 10.6 66.71 10.3 64.71 10.3 63.21 11.3 61.21 12.5 59.51 13.7 58.31 14.3 52.81 14.6 52.81 16.9 50.91 19.2 49.11 20.6 47.91 20.6 48.21 19.7 49.11 19.2 49.41 18.1 49.41 17.2 49.71 16.3 51.11 14.8 51.41 13.4 55.11 11.6 57.81 9.4 66.41 7.1 72.41 5.6 77.31 3.3 77.01 3 77.61 2.2 78.51 2.5 79.91 3 80.81 3.9 81.41 5.3 82.21 6.2 82.21 6.8"/><polyline class="b" points="16.21 3.6 17.61 4.1 19.41 3.9 19.91 2.5 21.11 2.5 22.31 2.7 22.91 3.6 24.31 3.6 26.31 3.9 27.71 2.2 28.01 1.6 30.31 1.9 30.31 2.7 31.81 3.6 32.71 3.9 33.51 4.7 34.31 6.5 34.31 8.2 34.91 10.6 35.21 13.1 36.11 14.6 37.51 14.6 39.61 14 40.21 13.1 40.21 11.9 39.01 11.6 37.81 11.9 37.81 10 38.41 8.8 40.71 8.8 42.81 8.8 43.61 7.4 44.71 7.4 45.31 8.2 45.01 9.7 44.11 10.9 43.61 11.6 43.61 16.3 41.91 16.6 40.41 16.6 40.41 18.9 40.41 20.9 39.01 22.6 36.41 23.5 34.91 23.8 33.81 24.4 33.01 22.9 33.31 21.5 31.81 20.6 29.81 20 27.71 19.7 25.71 19.2 25.71 17.8 26.51 16.9 24.31 15.1 22.91 15.1 22.01 15.7 22.01 17.8 21.41 20.3 21.11 21.2 19.41 20.6 19.61 18.9 19.61 17.8 20.21 16.3 20.51 15.1 19.61 14.8 19.41 15.7 18.51 16.3 17.61 16 16.51 16.3 14.81 16.6 11.61 16.6 11.31 15.4 10.41 13.7 10.11 12.5 8.71 12.5 7.91 11.3 7.61 10 9.01 9.7 11.01 9.7 12.71 9.4 12.21 7.4 11.01 5.6 11.61 3.9 11.91 2.2 13.91 1.6 13.91 0.7 14.21 0.5 14.81 0.5 16.51 0.7 16.51 1.6 15.71 2.7 16.21 3.6"/></g></svg>