<svg xmlns="http://www.w3.org/2000/svg" viewBox="0 0 238.005 214.4998"><title>southwest</title><path class="a" d="M436.8,357.9a.9448.9448,0,0,1-1-1v-1.8l-.3-2.8V348a.8907.8907,0,0,1,.5-.8l2.3-1.5c.1,0,.1-.1.2-.1l.9-.3c.1,0,.2-.1.3-.1a.91.91,0,0,1,.8.4l.9,1.2a.7581.7581,0,0,1,.2.4l.1.7h2.1l.4-4.1-2.7-.7a.9211.9211,0,0,1-.7-1.1l.4-2.4-4.7-.5a1.0124,1.0124,0,0,1-.7-.4.952.952,0,0,1-.2-.7l.3-2.1-.2-.4-.3.1h-.2a1.4213,1.4213,0,0,1-.6-.2,1.27,1.27,0,0,1-.4-.7l-.5-8.9-4.1-.2h-.2l-1.8-.5-.7.1-.7,1.6a.9016.9016,0,0,1-.6.6l-1.8.6c-.1,0-.2.1-.3.1h-.1l-4.5-.6-12.9-.3a1.0754,1.0754,0,0,1-1-1v-2l-2.9-.2a.8963.8963,0,0,1-.9-.9l-.3-2.3v-.3l.3-2,.3-1.8a1.0849,1.0849,0,0,1,.8-.8l2.6-.6,1.4-.2.6-.8.2-.2-2.1-.3-3.7-.3h-.2l-3.5-.9a.9213.9213,0,0,1-.7-1.1l.7-4.8-8.8-1.5-.8,1.2-.9,1.2-.3.3-1.5.9a.9015.9015,0,0,1-.5.1.6012.6012,0,0,1-.4-.1l-1.5-.6a.95.95,0,0,1-.6-1l.3-3.5v-.2l.4-1.3-.6-.3H381a.7786.7786,0,0,1-.7-.3,1.1355,1.1355,0,0,1-.3-.8l.3-2.8-.3-1.9-.3-1.1-.3-1.5a1.02,1.02,0,0,1,.2-.9,1.08,1.08,0,0,1,.7-.3h.1l2.3.3a.3673.3673,0,0,1,.3.1l1.4.7.8-.2,1.7-.6c.1,0,.2-.1.3-.1h.6v-.1l-.7-.3c-.1,0-.1-.1-.2-.1l-.9-.6a.9735.9735,0,0,1-.3-1.3l1.5-2.6c.1-.1.2-.3.3-.3l1.8-1.2a.3674.3674,0,0,1,.3-.1l2.3-.6h.2l3.6.3,1,.1V280a.9448.9448,0,0,1,1-1h27.6V267.4l-.3-11.9V244.8a.9448.9448,0,0,1,1-1h3.2a.9448.9448,0,0,1,1,1v1.1l1.8.1v-2.2l-.9-.2a.9738.9738,0,0,1-.8-1v-5.3l-4.3-1.2h-1.6l-.2,2.6a.9866.9866,0,0,1-1,.9h0a2.0978,2.0978,0,0,1-1.3-1.3V238a1.0372,1.0372,0,0,1-.6-.8h0a.9078.9078,0,0,1-.3-.7V236a1.0242,1.0242,0,0,1-.5-.6.8711.8711,0,0,1-.6-.8h0a.8418.8418,0,0,1-.7-.4,1.0122,1.0122,0,0,1-.4-.7c-.1-.1-.1-.1-.1-.2a1.0122,1.0122,0,0,1-.4-.7h0a.9078.9078,0,0,1-.3-.7v-.6a1.0634,1.0634,0,0,1,.9-1v-.2a.7918.7918,0,0,1,.5-.8c0-.1.1-.1.1-.2l.3-.3a.3491.3491,0,0,1,.2-.1c0-.1.1-.1.1-.2V228a.8746.8746,0,0,1,.6-.9.6012.6012,0,0,1,.1-.4.31.31,0,0,0-.1-.2.7492.7492,0,0,1-.5.1h-1.5a.7916.7916,0,0,1-.8-.5c-.1,0-.1-.1-.2-.1h-.2a1.0021,1.0021,0,0,1-1-1,.7808.7808,0,0,1-.4-.4l-.3-.3c-.1,0-.1-.1-.2-.1l-.3-.3a.3491.3491,0,0,1-.1-.2.7811.7811,0,0,1-.4-.4h-.5a.9448.9448,0,0,1-1-1V221a.8642.8642,0,0,1-.3-.6.52.52,0,0,1-.2-.4.8747.8747,0,0,1-.6-.9v-.2a1.0634,1.0634,0,0,1-.9-1c-.1,0-.2-.1-.3-.2h-.2a.9448.9448,0,0,1-1-1v-.3a1.4215,1.4215,0,0,1,.2-.6.7639.7639,0,0,1-.2-.5h0a1.3959,1.3959,0,0,1-.3-.9.9075.9075,0,0,1-.3-.7v-.2H409a.9448.9448,0,0,1-1-1v-1l-1.1-2.7a.6369.6369,0,0,1,0-.6l.6-2.6a.9738.9738,0,0,1,1-.8H412a.9448.9448,0,0,1,1,1v1.7a.9078.9078,0,0,1,.7-.3l9.8-.3a1.0253,1.0253,0,0,1,1,1l.3.3.1-.1a.8641.8641,0,0,1,.6-.3l4.3-.3a.9082.9082,0,0,1,.7.3,1.08,1.08,0,0,1,.3.7v.1l.8,1.8H435l2.6-.3h2.6l.7-2.2a.8484.8484,0,0,1,.8-.7l1.8-.2.5-10.1a.8963.8963,0,0,1,.9-.9l6.9-.6h.1a1.0253,1.0253,0,0,1,1,1v.2l.1.6h1.5a.8746.8746,0,0,1,.9.6l.9,2.2,1-.2h.2a1.0721,1.0721,0,0,1,.6.2l.4.4.6-3a1.0573,1.0573,0,0,1,.6-.7l2.9-1.2c.1,0,.2-.1.4-.1a1.4213,1.4213,0,0,1,.6.2l1.8,1.3.8.1.2-1.6a1.0634,1.0634,0,0,1,1-.9h1.5a.9448.9448,0,0,1,1,1v.2l.4,1.9.8-.1h2.8a.9078.9078,0,0,1,.7.3l.3.3.1.1.9,1.2a1.4213,1.4213,0,0,1,.2.6v1.9l1.7,1.4a1.234,1.234,0,0,1,.4.8v.9a.7918.7918,0,0,1-.5.8c0,.1-.1.1-.1.2v.8a.9078.9078,0,0,1-.3.7v1a.7918.7918,0,0,1-.5.8l-.3.3a1.02,1.02,0,0,1-.8.5h-.5a.9078.9078,0,0,1-.7.3h-.4a.8643.8643,0,0,1-.6.3c-.1.1-.1.1-.2.1h0a.7634.7634,0,0,1,.2.5.9077.9077,0,0,1,.3.7v.3a1,1,0,0,0,0,1.2v.6a.7918.7918,0,0,1-.5.8,1.02,1.02,0,0,1-.8.5H471a.7917.7917,0,0,1-.8-.5c-.1,0-.1-.1-.2-.1l-.3-.3c-.1,0-.1-.1-.1-.2a.9984.9984,0,0,1-.4-.5.8711.8711,0,0,1-.6-.8l-.3-.3a.8643.8643,0,0,1-.3-.6h-.2a1.0021,1.0021,0,0,1-1-1c-.1,0-.2-.1-.3-.2h-.1l-1.4.3h-.9l-1.4.3h-1.9l-2.3.3h-4.8l-1,.3h-2.5l-3.1.3H444l1.1,11.1a1.1355,1.1355,0,0,1-.3.8,1.08,1.08,0,0,1-.7.3h-6.9a.9866.9866,0,0,1-1-.9l-.2-4.1-4.3.7h-.2a1.4227,1.4227,0,0,1-.6-.2,1.0122,1.0122,0,0,1-.4-.7l-.2-3.4-4.3.4.5,2.2a1.22,1.22,0,0,1,.8.9l.8,11.5,1.1.4a.9989.9989,0,0,1,.5.4l1.2,1.6h2.9v-1.3a1.0634,1.0634,0,0,1,.9-1l3.9-.5.2-2.1a1.0122,1.0122,0,0,1,.4-.7,1.4213,1.4213,0,0,1,.6-.2h.2l3.8.7.6-1.8a.9605.9605,0,0,1,.9-.7h8.9a1.0021,1.0021,0,0,1,1,1l.3,8.7a1.0253,1.0253,0,0,1-1,1h-.9l-.2,1.2a1.1822,1.1822,0,0,1-.9.9l-1.9.2-.6.8a1.38,1.38,0,0,1-.4.3l-.8.4-.2.5.7.7a1.1355,1.1355,0,0,1,.3.8l-.3,2.6a1.0607,1.0607,0,0,1-.9.9l-1.1.1.2.5h1.3a.9078.9078,0,0,1,.7.3,1.08,1.08,0,0,1,.3.7l-.3,10.7a.9738.9738,0,0,1-.8,1l-.7.1v.9l2.9.2a.8963.8963,0,0,1,.9.9l.6,7.8a1.1355,1.1355,0,0,1-.3.8,1.08,1.08,0,0,1-.7.3h-3.3l.4,6.2,1.3-.2h.1a1.8539,1.8539,0,0,1,.7.2,1.1355,1.1355,0,0,1,.3.8v4.4l1.9.6a.9934.9934,0,0,1,.7,1l-.2,4.9s40.4-2.6,40.5-2.6a1.05,1.05,0,0,1,.9.5L497,290a1.0481,1.0481,0,0,1-.1,1.2L493,296v.2l8.6-.5a.91.91,0,0,1,.8.4,1.02,1.02,0,0,1,.2.9l-1.5,4.9a.9984.9984,0,0,1-.4.5l-2.6,1.8a.3674.3674,0,0,1-.3.1l-3.5,1-.4,1.5,1.1,3.5a1.1284,1.1284,0,0,1-.1.8l-1.2,2a1.05,1.05,0,0,1-.9.5h-.1a.9689.9689,0,0,1-.8-.7l-.7-2.4-1,2,.3,1,1.1.7a1.05,1.05,0,0,1,.5.9v2a1.1355,1.1355,0,0,1-.3.8.8437.8437,0,0,1-.7.2H491l-.9-.1.5,2.1a.9476.9476,0,0,1-.5,1.1l-2.3,1.2a.6012.6012,0,0,1-.4.1h-.2l-2.9-.6a.9738.9738,0,0,1-.8-1V316l-2.3.8.2,2.6,1.1.9,4.9,4.6a.9669.9669,0,0,1,0,1.4l-1.9,1.9-.8,2.4c0,.1-.1.1-.1.2l-1.4,2.2-.5,2.9v3l.8,2.5a1.09,1.09,0,0,1-1,1.4h-.1l-2-.3h-.6l-.1.7a.9738.9738,0,0,1-1,.8h-1.2a.9078.9078,0,0,1-.7-.3l.6,4.6a.9747.9747,0,0,1-.4.9l-.5.3-.1.8,1.1.1V350a.8065.8065,0,0,1,.3-.9.9078.9078,0,0,1,.7-.3h.2l1.5.3a1.0577,1.0577,0,0,1,.7.6l.6,1.5c0,.1.1.2.1.4v1.8a.9605.9605,0,0,1-.7.9l-.4.1h0l1.6,1.3a1.1285,1.1285,0,0,1,.3,1.1.9606.9606,0,0,1-.9.7l-8.1.3h-5.8a1.4213,1.4213,0,0,1-.6-.2c-.1,0-.1-.1-.2-.2h0c-.1-.1-.1-.1-.1-.2l-1.4-3.5a.9017.9017,0,0,1-.1-.5l.3-2.3c0-.1.1-.2.1-.4l1.5-2.6a.2151.2151,0,0,1,.2-.2l2.3-2.3v-.8l-1.3.1-.9.6-.5,1.7a1.0574,1.0574,0,0,1-.6.7l-.4.1-.4,1c-.1.1-.1.2-.2.3l-1,1-.5,2.1a1.057,1.057,0,0,1-.6.7c-.1,0-.2.1-.4.1a1.4218,1.4218,0,0,1-.6-.2l-2.5-1.6-2.7-.5a1.0852,1.0852,0,0,1-.8-.8l-.8-5.1-1.5-1.5H453l-.4,2,.6,4.7a1.8839,1.8839,0,0,1-.2.8,1.08,1.08,0,0,1-.7.3h-1.5a.9738.9738,0,0,1-1-.8l-.7-2.9h-.2l-.4,1.4a.9689.9689,0,0,1-.8.7l-2.6.5-.8,1h1.4a1.0634,1.0634,0,0,1,1,.9l.3,2a1.1355,1.1355,0,0,1-.3.8l-.8.8.2,1.5a1.0775,1.0775,0,0,1-.2.8,1.1355,1.1355,0,0,1-.8.3l-8.3-.2Zm36.1-2.2.7-3-.4-1.5-1.3-.9-.3.1-.2.5c0,.1-.1.1-.1.2l-1.4,2.2-.7,2.4Zm3.9-13.4c.1,0,.1.1.2.2V340l-.6-1.3v.3a1.0122,1.0122,0,0,1-.4.7l-.4.3v1.6Zm-12.1,0,.2-1.7a.948.948,0,0,1,.8-.9l.2-.1-.2-1.1h0l-.4.4-1.1,1.7a1.0122,1.0122,0,0,1-.7.4h-.2a1.4213,1.4213,0,0,1-.6-.2l-1.1-.8v2Zm-3.6-2.7h0l-.4-.9a.6012.6012,0,0,1-.1-.4v-1.6l.6-4.3a1.0634,1.0634,0,0,1,1-.9h2l1.2.3c.2.1.5.2.6.4l.6.9a.7549.7549,0,0,1,.1.8l-.2,1,.2,1.1.4.1.2-.3.3-.5c0-.1.1-.1.1-.2l.9-1.2a.91.91,0,0,1,.8-.4h.6a1.4213,1.4213,0,0,1,.6.2l.9.6.3.3.4.7.1-.5a1.0634,1.0634,0,0,1,1-.9h.6a1.0767,1.0767,0,0,1,1,.8l.3,1.5,1.6,2.1-.8-1.9a.94.94,0,0,1,.1-.9.91.91,0,0,1,.8-.4h.9a1.05,1.05,0,0,1,.9.5l.2.3h0a.9738.9738,0,0,1,1-.8h.2l.6.1v-.5l-.3-1.5-.4-.8-1-.7a.9094.9094,0,0,1-.4-.8v-3.1l-.3-2a1.1353,1.1353,0,0,1,.3-.8.9075.9075,0,0,1,.7-.3h.1l1.4.2-1-2.5-1.7-2.5c0-.1-.1-.1-.1-.2l-1.2-3.2a.6375.6375,0,0,1,0-.6l.6-2a1.0244,1.0244,0,0,1,.5-.6v-.6l-.8-1.5a1.9492,1.9492,0,0,1-.1-.8c0-.3.3-.5.5-.6l.4-.2-1.6-.9a1.05,1.05,0,0,1-.5-.9v-1.5a.9448.9448,0,0,1,1-1h1.1V304l.3-1.5c0-.1.1-.2.1-.4l.4-.7-4.6-3.4-3.7-.4.1.3a.6375.6375,0,0,1,0,.6L470,300a1.0767,1.0767,0,0,1-1,.8h-2.3a.9448.9448,0,0,1-1-1v-1h-2.4v4.7l2.1.1v-1a1.1355,1.1355,0,0,1,.3-.8.8437.8437,0,0,1,.7-.2h.1l2.3.3a1.22,1.22,0,0,1,.9.8l.2.9h1.2a1.0634,1.0634,0,0,1,1,.9l.2,2.1,1.5.2a1.0634,1.0634,0,0,1,.9,1v2.3a.961.961,0,0,1-.6.9,1.2345,1.2345,0,0,1-.4.8l-.9.6c-.2.1-.3.2-.5.2l.3.1a1.0242,1.0242,0,0,1,.6.5l.3.6a1.0635,1.0635,0,0,1-.2,1.2l-.4.4a.9984.9984,0,0,1,.5.4l.7,1.1.8.2a1.0767,1.0767,0,0,1,.8,1v2.6a1.0253,1.0253,0,0,1-1,1l-5.3-.2v1.4l.4.1a.8485.8485,0,0,1,.7.8l.1.6a.9078.9078,0,0,1,.7-.3.3672.3672,0,0,1,.3.1l1.8.6a1.1432,1.1432,0,0,1,.7.8l.3,1.3.5.7a1.0625,1.0625,0,0,1,.1.8l-.2.9.1.1,1,.5a.7918.7918,0,0,1,.5.8l.3,2a1.0074,1.0074,0,0,1-.6,1.1l-1.5.6c-.1,0-.2.1-.4.1H474l-1.8-.3a1.0122,1.0122,0,0,1-.7-.4,1.0775,1.0775,0,0,1-.2-.8v-.2l-.8.6a1.4213,1.4213,0,0,1-.6.2c-.2,0-.3,0-.4-.1a1.1493,1.1493,0,0,1-.6-.9v-2.8h-2.5a1.0633,1.0633,0,0,1-1-.9l-.3-2v-.4l.3-1.2c0-.1.1-.2.2-.4l.6-.9-.1-1.3h-2.3a.91.91,0,0,1-.8-.4.7777.7777,0,0,1-.2-.8l.3-1.8a.9615.9615,0,0,1,.9-.8V318a.9448.9448,0,0,1,1-1h1l.1-.4c0-.1.1-.2.1-.3a.9934.9934,0,0,1-.7-1v-1.6h-2.8a.9605.9605,0,0,1-.9-.7l-.4-1.2-.5-.1-.1.3a1.0767,1.0767,0,0,1-1,.8h-1.1l-1.4.3h-.4l-1.5-.3a.9738.9738,0,0,1-.8-1l.2-4.6-.5-.1h-1.2v2.5a1.4217,1.4217,0,0,1-.2.6l-1.5,2a.5357.5357,0,0,1-.4.3l-.9.4-.2,1.5c-.1.4-.4.8-.8.8l-1.3.3-1.9,1.2-.5,1.4c-.1.2-.2.3-.3.5l-1,.8,1.6,1.9a.9075.9075,0,0,1,.3.7v7.5l6.4,4.1c.1.1.2.1.3.2l.6.8,1.3-.7a1.3,1.3,0,0,1,1,0,1.05,1.05,0,0,1,.5.9V336a.9015.9015,0,0,1-.1.5l-1.1,2-.4.9.5.8h0v-.1a.9592.9592,0,0,1,.2-.9,1.1355,1.1355,0,0,1,.8-.3h.1l2.6.3a1.02,1.02,0,0,1,.8.5l.1.2Zm-31.1-20h0l2.5.5-.3-.5a1.0954,1.0954,0,0,1,0-.8.9016.9016,0,0,1,.6-.6l1.1-.4.4-.8a1.1493,1.1493,0,0,1,.9-.6h.2v-.5a1.1355,1.1355,0,0,1,.3-.8.8437.8437,0,0,1,.7-.2h.1l.6.1-.2-.4a1.3875,1.3875,0,0,1,0-.9c.2-.3.4-.5.7-.5l1.2-.2v-.3a1.0767,1.0767,0,0,1,.8-1l1.8-.3,1.1-.3h2a.91.91,0,0,1,.8.4l.5.7.3-1.2a.8486.8486,0,0,1,.8-.7l.6-.1-.2-2a.8967.8967,0,0,1,.7-1l.2-.1v-.3h-2.8a.6012.6012,0,0,1-.4-.1l-2-.9a1.0074,1.0074,0,0,1-.6-1.1l.6-3.2c0-.1.1-.2.1-.3l.6-1-.6-1.4-1.3-1.3a.52.52,0,0,1-.2-.4l-.4-1.2-2.1-.5a.85.85,0,0,1-.7-.7l-.6-2a.9712.9712,0,0,1,.6-1.2l4.3-1.4-1.4-.5a.0979.0979,0,0,1-.1-.1l-.9-.4-.3.1v.9a.9738.9738,0,0,1-.8,1l-3.8.9h-.2l-7.1-.2.3,1.7v.2l-.3,14.1V311a1.05,1.05,0,0,1-.5.9l-1.1.7-.2.8a1.0575,1.0575,0,0,1-.6.7c-.1,0-.2.1-.4.1a1.4213,1.4213,0,0,1-.6-.2l-.5-.3-.3.1h0l.8,1.6h1.4a.9448.9448,0,0,1,1,1v3.2Zm-20.7-5.1.2-.1-.1-.3h-1Zm60.9-2.6a.3674.3674,0,0,1,.3.1l.8.3-.2-.2-.4-.6a1.02,1.02,0,0,1-.8.5h-.1v.1C470,311.9,470.1,311.9,470.2,311.9Zm16.6-.1h0v-1.9c0-.2,0-.3.1-.4l.7-1.5-.2-1.7-1.1-.4a.9605.9605,0,0,1-.7-.9,1.2308,1.2308,0,0,1,.5-1l.5-.3-.2-1.1-.8-1.4h-.2l-.1.2v1.7a.9611.9611,0,0,1-.6.9l-1.2.6a.85.85,0,0,1-.8,0,.9019.9019,0,0,1-.6-.6l-.1-.4-1-.4-.2.5-.6,1.2c-.1.1-.1.2-.2.3h2.3a.9448.9448,0,0,1,1,1v3.9l.7-.2,1.4-.6c.1,0,.2-.1.4-.1a1.4213,1.4213,0,0,1,.6.2.91.91,0,0,1,.4.8v1.6Zm-8.3-5.8Zm-67.1-2.4,1.3-1.3v-2.8a.9605.9605,0,0,1,.7-.9l.2-.1-1.2-.3h-1.9l-2.2-.2v.5l.5,1.3.8,2.2,1.8,1.6Zm39.8-3,3.2-1.5,1.4-3.2-1.6-1.9-2.3-3.1-6.8.5.4,4.3.8.6a.9984.9984,0,0,1,.4.5l.3,1.2.9-.1h.2a.6012.6012,0,0,1,.4.1l1.5.6a.8711.8711,0,0,1,.6.8l.2,1.2Zm24.2-6.6.2-1.1-1,.1v1Zm-46.8-14.5h0a.9448.9448,0,0,1,1-1h1.9v-1.3L428,277v2.4Zm-.8-12.4.5-10-1.1-.1.2,10.1Z" transform="translate(-265.1343 -194.0001)"/><path class="b" d="M441.6,407.1a1.0754,1.0754,0,0,1-1-1v-.3a.9078.9078,0,0,1,.3-.7h0v-.3a.3491.3491,0,0,1-.1-.2,1.02,1.02,0,0,1-.5-.8v-.3a.9078.9078,0,0,1,.3-.7.8418.8418,0,0,1,.4-.7c0-.1.1-.1.1-.2v-.2a.9082.9082,0,0,1,.3-.7,1.1823,1.1823,0,0,1,.9-.9h0v-.8a.9084.9084,0,0,1,.3-.7.8422.8422,0,0,1,.4-.7c0-.1.1-.1.1-.2h0a.9077.9077,0,0,1-.3-.7v-.3a.9081.9081,0,0,1,.3-.7h0a.9077.9077,0,0,1-.3-.7v-.9a.9669.9669,0,0,0,0-1.4.7494.7494,0,0,1,.1-.5.9934.9934,0,0,1-.7-1V391a.8639.8639,0,0,1-.3-.6c-.1-.1-.1-.1-.1-.2-.1,0-.1-.1-.2-.1h0a1.0634,1.0634,0,0,1-.9-1v-.6a1.4218,1.4218,0,0,1,.2-.6,1.05,1.05,0,0,1-.5-.9v-.2h0a1.0634,1.0634,0,0,1-.9-1v-.3a.7809.7809,0,0,1-.4-.4l-.3-.3a1.0122,1.0122,0,0,1-.4-.7.908.908,0,0,1-.3-.7v-.6a.9078.9078,0,0,1,.3-.7v-1a.9078.9078,0,0,1-.3-.7v-.5a.3491.3491,0,0,1-.1-.2,1.0122,1.0122,0,0,1-.4-.7.8643.8643,0,0,1-.3-.6c-.1-.1-.1-.1-.1-.2-.1,0-.1-.1-.2-.1a.8421.8421,0,0,1-.7-.4l-.3-.3a1.0122,1.0122,0,0,1-.4-.7h0l-12.1-1.1c-.2,0-.3-.1-.5-.2l-10.1-7.2a1,1,0,0,1,0-1.6l12.1-9.8.5-11.8h-.1a.9078.9078,0,0,1-.7-.3,14751496450395.28,14751496450395.28,0,0,1-1.2-.6l-.3-.3a.3491.3491,0,0,1-.1-.2c-.1,0-.1-.1-.2-.1h-.7a1.0128,1.0128,0,0,1-.9-.6.7581.7581,0,0,1-.4-.2l-.3-.3a1.0634,1.0634,0,0,1-.9-1c-.1-.1-.2-.1-.3-.2a.8643.8643,0,0,1-.6-.3h-.2a.7918.7918,0,0,1-.8-.5l-.3-.3a.7808.7808,0,0,1-.4-.4H417v.2a1.0634,1.0634,0,0,1-.9,1h0a.9075.9075,0,0,1-.7.3H412a.9078.9078,0,0,1-.7-.3.752.752,0,0,1-.7-.5c-.1,0-.1.1-.2.1a.6008.6008,0,0,1-.4.1h-.2a.9077.9077,0,0,1-.7.3c0,.1-.1.2-.2.3l-.3.3a.9078.9078,0,0,1-.7.3h0c-.2,0-.3,0-.4-.1a.6012.6012,0,0,1-.4.1h-.3a.9078.9078,0,0,1-.7-.3l-.3-.3h0a.9078.9078,0,0,1-.7.3h-.3a.9078.9078,0,0,1-.7.3h-.8c-.1.1-.2.2-.3.2s-.2.1-.3.1a.8643.8643,0,0,1-.3.6l-.6.6a.9078.9078,0,0,1-.7.3h-.8c0,.1-.1.2-.2.3l-.6.6a.9078.9078,0,0,1-.7.3h-.3a1.0634,1.0634,0,0,1-1-.9h0a.8642.8642,0,0,1-.3-.6l-.3-.3h-.8a1.0634,1.0634,0,0,1-1-.9h-.2a.9078.9078,0,0,1-.7-.3h0c-.2,0-.3-.1-.5-.2a1.4217,1.4217,0,0,1-.6.2h-.2a.9078.9078,0,0,1-.7.3h-.3a.7918.7918,0,0,1-.8-.5c-.1-.1-.2-.1-.2-.2a.6012.6012,0,0,1-.4.1h-.3a1.0634,1.0634,0,0,1-1-.9h0a.8421.8421,0,0,1-.4.7l-.3.3a.9984.9984,0,0,1-.5.4v.5a.7918.7918,0,0,1-.5.8c0,.1-.1.1-.1.2l-.3.3a.9078.9078,0,0,1-.7.3h-.3a.9078.9078,0,0,1-.7-.3h0a1.1822,1.1822,0,0,1-.9-.9h0a.9078.9078,0,0,1-.3-.7V342a.9078.9078,0,0,1-.3-.7v.1h-.4c-.1.1-.1.1-.2.1l-.3.3a1.02,1.02,0,0,1-.8.5h-.9a.9078.9078,0,0,1-.7-.3h0a1.0634,1.0634,0,0,1-.9-1v-.5h-1.1a.9448.9448,0,0,1-1-1v-.1l-.2.2a1.0122,1.0122,0,0,1-.7.4h0a.8421.8421,0,0,1-.4.7,1.0124,1.0124,0,0,1-.7.4.9077.9077,0,0,1-.7.3H374a.908.908,0,0,1-.7-.3h0a.8643.8643,0,0,1-.6-.3h-.2a.9448.9448,0,0,1-1-1v-.6a.511.511,0,0,0-.6-.8h0a.8418.8418,0,0,1-.7-.4,1.02,1.02,0,0,1-.5-.8V337a.8643.8643,0,0,1-.3-.6.3674.3674,0,0,1-.3-.1c-.1-.1-.2-.1-.3-.2h-.2a.9078.9078,0,0,1-.7-.3h-.5a.9015.9015,0,0,1-.5-.1,2.092,2.092,0,0,1-.4.6,1.0122,1.0122,0,0,1-.7.4.8643.8643,0,0,1-.6.3h0a.9078.9078,0,0,1-.7.3.6012.6012,0,0,1-.4-.1,1.7556,1.7556,0,0,1-.5-.4,1.0122,1.0122,0,0,1-.4-.7h0a1.1822,1.1822,0,0,1-.9-.9h0l-.3.3a.9077.9077,0,0,1-.7.3H361a.9081.9081,0,0,1-.7-.3.8647.8647,0,0,1-.6-.3h-.4a1.0128,1.0128,0,0,1-.9-.6.7576.7576,0,0,1-.4-.2h-.2a.6012.6012,0,0,1-.4-.1c-.1,0-.1-.1-.2-.1s-.1.1-.2.1a.6012.6012,0,0,1-.4.1.9081.9081,0,0,1-.7-.3h-1.3a.908.908,0,0,1-.7-.3l-.3-.3a.9077.9077,0,0,1-.3-.7v.2a.9075.9075,0,0,1-.3-.7v-.5a.8643.8643,0,0,1-.3-.6.52.52,0,0,1-.2-.4.3491.3491,0,0,1-.2-.1,1.05,1.05,0,0,1-.9.5h-.8a.7918.7918,0,0,1-.8-.5c-.1,0-.1-.1-.2-.1h-.1a.961.961,0,0,1-.9.6h-1.5a.9078.9078,0,0,1-.7-.3l-.6-.6a1.1822,1.1822,0,0,1-.9-.9l-.3-.3a.3491.3491,0,0,1-.1-.2,1.0122,1.0122,0,0,1-.4-.7l-.3-.3a.3491.3491,0,0,1-.1-.2l-.3-.3c-.1-.1-.2-.1-.2-.2a.6012.6012,0,0,1-.4.1h-.6a.9078.9078,0,0,1-.7-.3,1.1355,1.1355,0,0,1-.3-.8l.3-3.5v-2.3l.3-3.3v-4.5a.9081.9081,0,0,1,.3-.7V306a.9082.9082,0,0,1,.3-.7v-1.8l-10,.2-.8,7.2a.9613.9613,0,0,1-.8.9l-8.8,1.3.6,4h9.5a.9078.9078,0,0,1,.7.3,1.08,1.08,0,0,1,.3.7l-.3,9.5a1.0253,1.0253,0,0,1-1,1h-.1l-13.8-1.1-.8,4.9,9.9.8a.8418.8418,0,0,1,.7.4.7829.7829,0,0,1,.1.8l-5.2,18.8a.9934.9934,0,0,1-1,.7l-11.7-.8-6.3,7.4a.7127.7127,0,0,1-.6.3l-11,2-3.1.5-.8,8.2a.9866.9866,0,0,1-1,.9h-1.6l-5.2-.6-3.8-.3h-1.9l-1.4-.3-4-.3-2.7-.3a.752.752,0,0,1-.7-.5.9714.9714,0,0,1-.1-.9l1.7-4.7-.3-6.1v-.2l1.1-5.9v-5.9a.7638.7638,0,0,1,.2-.5l7.5-11.9.3-.3,6-4.3,9.2-5.8,4.5-32.1a.8641.8641,0,0,1,.3-.6v-2.7l.3-1.8a1.0575,1.0575,0,0,1,.6-.7v-1l.3-1.7v-1.7l.3-3.3v-1.1a1.0251,1.0251,0,0,1,1-1h.1l3.2.3h1.9l1.7.3h3.1a.9078.9078,0,0,1,.7.3h0l3.1.2.2-1.3v-3l.3-2.6.3-4.5v-2l.6-9.9v-.2l.6-6.4v-1.7l.6-6.7V237l.6-8.4.3-8a1.0253,1.0253,0,0,1,1-1l6.4.3,9,.6,11.6.6,21.1.6,3.3.3h10l6.9.3h29.1a1.0128,1.0128,0,0,1,.9.6.9984.9984,0,0,1,.5.4c.1,0,.1.1.2.1a.8418.8418,0,0,1,.7.4c.1,0,.1.1.2.1a.9687.9687,0,0,1,.8.7,1.2347,1.2347,0,0,1,.8-.4H420a.9448.9448,0,0,1,1,1v.3a.7808.7808,0,0,1,.4.4,1.02,1.02,0,0,1,.5.8v.8h0a.9128.9128,0,0,1,.2,1.1,1.7556,1.7556,0,0,1-.4.5,1.02,1.02,0,0,1-.8.5h-.5a.8421.8421,0,0,1-.4.7.9984.9984,0,0,1-.5.4.7576.7576,0,0,1-.2.4v.5a.9081.9081,0,0,1-.3.7.8642.8642,0,0,1,.3.6c.1.1.1.1.1.2.1,0,.1.1.2.1h0a1.1822,1.1822,0,0,1,.9.9h.2a.7918.7918,0,0,1,.8.5,1.02,1.02,0,0,1,.5.8v.3a.9078.9078,0,0,1-.3.7h0a1.1822,1.1822,0,0,1,.9.9h0a.9078.9078,0,0,1,.3.7.7806.7806,0,0,1,.4.4h0a1.42,1.42,0,0,1,.6-.2h.3a.8746.8746,0,0,1,.9.6h.3a.9448.9448,0,0,1,1,1v.3a.9078.9078,0,0,1-.3.7v13.7l.3,5.1v20.3a.9448.9448,0,0,1-1,1H397.8v5.9a1.1353,1.1353,0,0,1-.3.8.8437.8437,0,0,1-.7.2h-.1l-2-.3-3.3-.3-2,.5-1.4.9-.9,1.6h0l1.4.5a1.0074,1.0074,0,0,1,.6,1.1l-.3,1.8a.9738.9738,0,0,1-1,.8h-1.3l-1.6.5-1.2.3h-.2c-.2,0-.3,0-.4-.1l-1.6-.8-.8-.1v.1l.3,1.1v.1l.3,2v.2l-.2,1.8h.6a.7494.7494,0,0,1,.5.1l1.5.9a.8408.8408,0,0,1,.4,1.1l-.6,1.9-.2,2.7.3.1.9-.5.8-1,1.1-1.7a.91.91,0,0,1,.8-.4h.2l10.4,1.8a.9907.9907,0,0,1,.8,1.1l-.7,4.8,2.5.6,3.7.3,2.3.3h2.9a1.0767,1.0767,0,0,1,1,.8l.3,1.8a1.0219,1.0219,0,0,1-.4,1l-1.2.9a1.4213,1.4213,0,0,1-.6.2c-.2,0-.3,0-.4-.1l-1-.5-.4.5a2.092,2.092,0,0,1-.6.4l-1.8.3-1.9.4-.2,1.1-.3,1.9.2,1.4,3,.2a.9866.9866,0,0,1,.9,1v1.9l12,.3h.1l4.3.6,1.1-.4.7-1.6a1.0575,1.0575,0,0,1,.7-.6l1.5-.3h.5l1.9.6,4.7.3a.8963.8963,0,0,1,.9.9l.5,8.6h.2a.8746.8746,0,0,1,.9.6l.6,1.5a.9015.9015,0,0,1,.1.5l-.2,1.3,4.7.5a1.0122,1.0122,0,0,1,.7.4,1.0775,1.0775,0,0,1,.2.8l-.4,2.6,2.6.7a1.0838,1.0838,0,0,1,.8,1.1l-.6,5.7a1.0634,1.0634,0,0,1-1,.9h-3.8a.9738.9738,0,0,1-1-.8l-.2-1.2-.3-.4H438l-1.8,1.1v3.8l.3,2.8v.8h12a.9078.9078,0,0,1,.7.3,1.08,1.08,0,0,1,.3.7l-.5,12,8,.5a.9547.9547,0,0,1,.9,1.1l-.2,4,9.7.5a.9078.9078,0,0,1,.7.3.6628.6628,0,0,1,.2.7l-.2,3.1,9.1.5a.8963.8963,0,0,1,.9.9l.3,2.3v.4l-.6,2-.3,2.2V391l.5,1.6a.9668.9668,0,0,1-.5,1.2L461,401.6l-.8,5.5a1.0634,1.0634,0,0,1-1,.9C459.2,407.7,441.6,407.1,441.6,407.1Zm-9.2-84.8a.3674.3674,0,0,1-.3-.1l-.8-.3-2.8-.6-3.7-.3a.9866.9866,0,0,1-.9-1v-2.9h-1a.961.961,0,0,1-.9-.6l-1.5-2.9a1.06,1.06,0,0,1,.3-1.3l.9-.6a.3491.3491,0,0,0,.2-.1l.9-.3c.1,0,.2-.1.3-.1h.2a.9984.9984,0,0,1,.4-.5l1-.6v-2.6l.3-14-.6-2.8a.7777.7777,0,0,1,.2-.8,1.2345,1.2345,0,0,1,.8-.4l8.3.3,2.9-.7v-1a.9738.9738,0,0,1,.8-1l1.5-.3h.2c.2,0,.3,0,.4.1l1.1.6,1.7.6a2.1859,2.1859,0,0,1,.5.3l.9,1.2a1.0775,1.0775,0,0,1,.2.8,1.7937,1.7937,0,0,1-.5.7l-1.2.6a.0979.0979,0,0,0-.1.1l-3.5,1.2.2.5,2,.5a.9878.9878,0,0,1,.7.7l.5,1.5,1.3,1.3c.1.1.2.2.2.3l.9,2a.972.972,0,0,1-.1.9l-.8,1.3-.4,2.2,1.1.5h3.6a.9448.9448,0,0,1,1,1v2a.9605.9605,0,0,1-.7.9H448l.2,2.1a.9908.9908,0,0,1-.8,1.1l-.8.2-.4,1.7a.9738.9738,0,0,1-1,.8H445l-1.3-.2a2.0936,2.0936,0,0,1-.6-.4l-.6-.8h-1.1l-1,.3-1,.2v.3a1.0635,1.0635,0,0,1-.9,1l-.8.1.4.8a1.1833,1.1833,0,0,1-.1,1,.91.91,0,0,1-.8.4h-.1l-1.2-.2v.6a.91.91,0,0,1-.4.8,1.4213,1.4213,0,0,1-.6.2h-.2l-.4-.1-.2.5a1.205,1.205,0,0,1-.5.5l-.4.2.1.2a.601.601,0,0,1,.1.4v1.2a1.2343,1.2343,0,0,1-.4.8C432.8,322.2,432.6,322.3,432.4,322.3Zm-22-16.7a.3674.3674,0,0,1-.3-.1l-.9-.3a.7581.7581,0,0,1-.4-.2l-2-2a.52.52,0,0,1-.2-.4l-.9-2.3-.6-1.4c0-.1-.1-.2-.1-.4V297a.9078.9078,0,0,1,.3-.7l.3-.3a.9078.9078,0,0,1,.7-.3h.1l2.9.3h2.1l2.3.6a.9768.9768,0,0,1,.7,1.2l-.3,1.5a1.12,1.12,0,0,1-.7.8l-.2.1v2.5a.9082.9082,0,0,1-.3.7l-2,2C410.9,305.5,410.7,305.6,410.4,305.6Z" transform="translate(-265.1343 -194.0001)"/></svg>
