<svg xmlns="http://www.w3.org/2000/svg" viewBox="0 0 238 214.5"><defs><style>.a{fill:#80d7f7;}.a,.b{stroke:#fff;}.b{fill:#00b0f0;opacity:0.75;isolation:isolate;}</style></defs><title>southwest</title><path class="a" d="M436.8,357.9a.94.94,0,0,1-1-1v-1.8l-.3-2.8V348a.89.89,0,0,1,.5-.8l2.3-1.5c.1,0,.1-.1.2-.1l.9-.3c.1,0,.2-.1.3-.1a.91.91,0,0,1,.8.4l.9,1.2a.76.76,0,0,1,.2.4l.1.7h2.1l.4-4.1-2.7-.7a.92.92,0,0,1-.7-1.1l.4-2.4-4.7-.5a1,1,0,0,1-.7-.4,1,1,0,0,1-.2-.7l.3-2.1-.2-.4-.3.1h-.2a1.42,1.42,0,0,1-.6-.2,1.27,1.27,0,0,1-.4-.7l-.5-8.9-4.1-.2h-.2l-1.8-.5-.7.1-.7,1.6a.9.9,0,0,1-.6.6l-1.8.6c-.1,0-.2.1-.3.1h-.1l-4.5-.6-12.9-.3a1.08,1.08,0,0,1-1-1v-2l-2.9-.2a.9.9,0,0,1-.9-.9l-.3-2.3v-.3l.3-2,.3-1.8a1.09,1.09,0,0,1,.8-.8l2.6-.6,1.4-.2.6-.8.2-.2-2.1-.3-3.7-.3h-.2l-3.5-.9a.92.92,0,0,1-.7-1.1l.7-4.8-8.8-1.5-.8,1.2-.9,1.2-.3.3-1.5.9a.9.9,0,0,1-.5.1.6.6,0,0,1-.4-.1l-1.5-.6a1,1,0,0,1-.6-1l.3-3.5v-.2l.4-1.3-.6-.3H381a.78.78,0,0,1-.7-.3,1.14,1.14,0,0,1-.3-.8l.3-2.8-.3-1.9-.3-1.1-.3-1.5a1,1,0,0,1,.2-.9,1.08,1.08,0,0,1,.7-.3h.1l2.3.3a.37.37,0,0,1,.3.1l1.4.7.8-.2,1.7-.6c.1,0,.2-.1.3-.1h.6v-.1l-.7-.3c-.1,0-.1-.1-.2-.1l-.9-.6a1,1,0,0,1-.3-1.3l1.5-2.6c.1-.1.2-.3.3-.3l1.8-1.2a.37.37,0,0,1,.3-.1l2.3-.6h.2l3.6.3,1,.1V280a.94.94,0,0,1,1-1h27.6V267.4l-.3-11.9V244.8a.94.94,0,0,1,1-1h3.2a.94.94,0,0,1,1,1v1.1l1.8.1v-2.2l-.9-.2a1,1,0,0,1-.8-1v-5.3l-4.3-1.2h-1.6l-.2,2.6a1,1,0,0,1-1,.9h0a2.1,2.1,0,0,1-1.3-1.3V238a1,1,0,0,1-.6-.8h0a.91.91,0,0,1-.3-.7V236a1,1,0,0,1-.5-.6.87.87,0,0,1-.6-.8h0a.84.84,0,0,1-.7-.4,1,1,0,0,1-.4-.7c-.1-.1-.1-.1-.1-.2a1,1,0,0,1-.4-.7h0a.91.91,0,0,1-.3-.7v-.6a1.06,1.06,0,0,1,.9-1v-.2a.79.79,0,0,1,.5-.8c0-.1.1-.1.1-.2l.3-.3a.35.35,0,0,1,.2-.1c0-.1.1-.1.1-.2V228a.87.87,0,0,1,.6-.9.6.6,0,0,1,.1-.4.31.31,0,0,0-.1-.2.75.75,0,0,1-.5.1h-1.5a.79.79,0,0,1-.8-.5c-.1,0-.1-.1-.2-.1h-.2a1,1,0,0,1-1-1,.78.78,0,0,1-.4-.4l-.3-.3c-.1,0-.1-.1-.2-.1l-.3-.3a.35.35,0,0,1-.1-.2.78.78,0,0,1-.4-.4h-.5a.94.94,0,0,1-1-1V221a.86.86,0,0,1-.3-.6.52.52,0,0,1-.2-.4.87.87,0,0,1-.6-.9v-.2a1.06,1.06,0,0,1-.9-1c-.1,0-.2-.1-.3-.2h-.2a.94.94,0,0,1-1-1v-.3a1.42,1.42,0,0,1,.2-.6.76.76,0,0,1-.2-.5h0a1.4,1.4,0,0,1-.3-.9.91.91,0,0,1-.3-.7v-.2H409a.94.94,0,0,1-1-1v-1l-1.1-2.7a.64.64,0,0,1,0-.6l.6-2.6a1,1,0,0,1,1-.8H412a.94.94,0,0,1,1,1v1.7a.91.91,0,0,1,.7-.3l9.8-.3a1,1,0,0,1,1,1l.3.3.1-.1a.86.86,0,0,1,.6-.3l4.3-.3a.91.91,0,0,1,.7.3,1.08,1.08,0,0,1,.3.7v.1l.8,1.8H435l2.6-.3h2.6l.7-2.2a.85.85,0,0,1,.8-.7l1.8-.2.5-10.1a.9.9,0,0,1,.9-.9l6.9-.6h.1a1,1,0,0,1,1,1v.2l.1.6h1.5a.87.87,0,0,1,.9.6l.9,2.2,1-.2h.2a1.07,1.07,0,0,1,.6.2l.4.4.6-3a1.06,1.06,0,0,1,.6-.7l2.9-1.2c.1,0,.2-.1.4-.1a1.42,1.42,0,0,1,.6.2l1.8,1.3.8.1.2-1.6a1.06,1.06,0,0,1,1-.9h1.5a.94.94,0,0,1,1,1v.2l.4,1.9.8-.1h2.8a.91.91,0,0,1,.7.3l.3.3.1.1.9,1.2a1.42,1.42,0,0,1,.2.6v1.9l1.7,1.4a1.23,1.23,0,0,1,.4.8v.9a.79.79,0,0,1-.5.8c0,.1-.1.1-.1.2v.8a.91.91,0,0,1-.3.7v1a.79.79,0,0,1-.5.8l-.3.3a1,1,0,0,1-.8.5h-.5a.91.91,0,0,1-.7.3h-.4a.86.86,0,0,1-.6.3c-.1.1-.1.1-.2.1h0a.76.76,0,0,1,.2.5.91.91,0,0,1,.3.7v.3a1,1,0,0,0,0,1.2v.6a.79.79,0,0,1-.5.8,1,1,0,0,1-.8.5H471a.79.79,0,0,1-.8-.5c-.1,0-.1-.1-.2-.1l-.3-.3c-.1,0-.1-.1-.1-.2a1,1,0,0,1-.4-.5.87.87,0,0,1-.6-.8l-.3-.3a.86.86,0,0,1-.3-.6h-.2a1,1,0,0,1-1-1c-.1,0-.2-.1-.3-.2h-.1l-1.4.3h-.9l-1.4.3h-1.9l-2.3.3h-4.8l-1,.3h-2.5l-3.1.3H444l1.1,11.1a1.14,1.14,0,0,1-.3.8,1.08,1.08,0,0,1-.7.3h-6.9a1,1,0,0,1-1-.9l-.2-4.1-4.3.7h-.2a1.42,1.42,0,0,1-.6-.2,1,1,0,0,1-.4-.7l-.2-3.4-4.3.4.5,2.2a1.22,1.22,0,0,1,.8.9l.8,11.5,1.1.4a1,1,0,0,1,.5.4l1.2,1.6h2.9v-1.3a1.06,1.06,0,0,1,.9-1l3.9-.5.2-2.1a1,1,0,0,1,.4-.7,1.42,1.42,0,0,1,.6-.2h.2l3.8.7.6-1.8a1,1,0,0,1,.9-.7h8.9a1,1,0,0,1,1,1l.3,8.7a1,1,0,0,1-1,1h-.9l-.2,1.2a1.18,1.18,0,0,1-.9.9l-1.9.2-.6.8a1.38,1.38,0,0,1-.4.3l-.8.4-.2.5.7.7a1.14,1.14,0,0,1,.3.8l-.3,2.6a1.06,1.06,0,0,1-.9.9l-1.1.1.2.5h1.3a.91.91,0,0,1,.7.3,1.08,1.08,0,0,1,.3.7l-.3,10.7a1,1,0,0,1-.8,1l-.7.1v.9l2.9.2a.9.9,0,0,1,.9.9l.6,7.8a1.14,1.14,0,0,1-.3.8,1.08,1.08,0,0,1-.7.3h-3.3l.4,6.2,1.3-.2h.1a1.85,1.85,0,0,1,.7.2,1.14,1.14,0,0,1,.3.8v4.4l1.9.6a1,1,0,0,1,.7,1l-.2,4.9,40.5-2.6a1.05,1.05,0,0,1,.9.5L497,290a1,1,0,0,1-.1,1.2L493,296v.2l8.6-.5a.91.91,0,0,1,.8.4,1,1,0,0,1,.2.9l-1.5,4.9a1,1,0,0,1-.4.5l-2.6,1.8a.37.37,0,0,1-.3.1l-3.5,1-.4,1.5,1.1,3.5a1.13,1.13,0,0,1-.1.8l-1.2,2a1.05,1.05,0,0,1-.9.5h-.1a1,1,0,0,1-.8-.7l-.7-2.4-1,2,.3,1,1.1.7a1.05,1.05,0,0,1,.5.9v2a1.14,1.14,0,0,1-.3.8.84.84,0,0,1-.7.2H491l-.9-.1.5,2.1a1,1,0,0,1-.5,1.1l-2.3,1.2a.6.6,0,0,1-.4.1h-.2l-2.9-.6a1,1,0,0,1-.8-1V316l-2.3.8.2,2.6,1.1.9,4.9,4.6a1,1,0,0,1,0,1.4l-1.9,1.9-.8,2.4c0,.1-.1.1-.1.2l-1.4,2.2-.5,2.9v3l.8,2.5a1.09,1.09,0,0,1-1,1.4h-.1l-2-.3h-.6l-.1.7a1,1,0,0,1-1,.8h-1.2a.91.91,0,0,1-.7-.3l.6,4.6a1,1,0,0,1-.4.9l-.5.3-.1.8,1.1.1V350a.81.81,0,0,1,.3-.9.91.91,0,0,1,.7-.3h.2l1.5.3a1.06,1.06,0,0,1,.7.6l.6,1.5c0,.1.1.2.1.4v1.8a1,1,0,0,1-.7.9l-.4.1h0l1.6,1.3a1.13,1.13,0,0,1,.3,1.1,1,1,0,0,1-.9.7l-8.1.3h-5.8a1.42,1.42,0,0,1-.6-.2c-.1,0-.1-.1-.2-.2h0c-.1-.1-.1-.1-.1-.2l-1.4-3.5a.9.9,0,0,1-.1-.5l.3-2.3c0-.1.1-.2.1-.4l1.5-2.6a.22.22,0,0,1,.2-.2l2.3-2.3v-.8l-1.3.1-.9.6-.5,1.7a1.06,1.06,0,0,1-.6.7l-.4.1-.4,1c-.1.1-.1.2-.2.3l-1,1-.5,2.1a1.06,1.06,0,0,1-.6.7c-.1,0-.2.1-.4.1a1.42,1.42,0,0,1-.6-.2l-2.5-1.6-2.7-.5a1.09,1.09,0,0,1-.8-.8l-.8-5.1-1.5-1.5H453l-.4,2,.6,4.7a1.88,1.88,0,0,1-.2.8,1.08,1.08,0,0,1-.7.3h-1.5a1,1,0,0,1-1-.8l-.7-2.9h-.2l-.4,1.4a1,1,0,0,1-.8.7l-2.6.5-.8,1h1.4a1.06,1.06,0,0,1,1,.9l.3,2a1.14,1.14,0,0,1-.3.8l-.8.8.2,1.5a1.08,1.08,0,0,1-.2.8,1.14,1.14,0,0,1-.8.3l-8.3-.2Zm36.1-2.2.7-3-.4-1.5-1.3-.9-.3.1-.2.5c0,.1-.1.1-.1.2l-1.4,2.2-.7,2.4Zm3.9-13.4c.1,0,.1.1.2.2V340l-.6-1.3v.3a1,1,0,0,1-.4.7l-.4.3v1.6Zm-12.1,0,.2-1.7a1,1,0,0,1,.8-.9l.2-.1-.2-1.1h0l-.4.4-1.1,1.7a1,1,0,0,1-.7.4h-.2a1.42,1.42,0,0,1-.6-.2l-1.1-.8v2Zm-3.6-2.7h0l-.4-.9a.6.6,0,0,1-.1-.4v-1.6l.6-4.3a1.06,1.06,0,0,1,1-.9h2l1.2.3c.2.1.5.2.6.4l.6.9a.75.75,0,0,1,.1.8l-.2,1,.2,1.1.4.1.2-.3.3-.5c0-.1.1-.1.1-.2l.9-1.2a.91.91,0,0,1,.8-.4h.6a1.42,1.42,0,0,1,.6.2l.9.6.3.3.4.7.1-.5a1.06,1.06,0,0,1,1-.9h.6a1.08,1.08,0,0,1,1,.8l.3,1.5,1.6,2.1-.8-1.9a.94.94,0,0,1,.1-.9.91.91,0,0,1,.8-.4h.9a1.05,1.05,0,0,1,.9.5l.2.3h0a1,1,0,0,1,1-.8h.2l.6.1v-.5l-.3-1.5-.4-.8-1-.7a.91.91,0,0,1-.4-.8v-3.1l-.3-2a1.14,1.14,0,0,1,.3-.8.91.91,0,0,1,.7-.3h.1l1.4.2-1-2.5-1.7-2.5c0-.1-.1-.1-.1-.2l-1.2-3.2a.64.64,0,0,1,0-.6l.6-2a1,1,0,0,1,.5-.6v-.6l-.8-1.5a2,2,0,0,1-.1-.8c0-.3.3-.5.5-.6l.4-.2-1.6-.9a1.05,1.05,0,0,1-.5-.9v-1.5a.94.94,0,0,1,1-1h1.1V304l.3-1.5c0-.1.1-.2.1-.4l.4-.7-4.6-3.4-3.7-.4.1.3a.64.64,0,0,1,0,.6L470,300a1.08,1.08,0,0,1-1,.8h-2.3a.94.94,0,0,1-1-1v-1h-2.4v4.7l2.1.1v-1a1.14,1.14,0,0,1,.3-.8.84.84,0,0,1,.7-.2h.1l2.3.3a1.22,1.22,0,0,1,.9.8l.2.9h1.2a1.06,1.06,0,0,1,1,.9l.2,2.1,1.5.2a1.06,1.06,0,0,1,.9,1v2.3a1,1,0,0,1-.6.9,1.23,1.23,0,0,1-.4.8l-.9.6c-.2.1-.3.2-.5.2l.3.1a1,1,0,0,1,.6.5l.3.6a1.06,1.06,0,0,1-.2,1.2l-.4.4a1,1,0,0,1,.5.4l.7,1.1.8.2a1.08,1.08,0,0,1,.8,1v2.6a1,1,0,0,1-1,1l-5.3-.2v1.4l.4.1a.85.85,0,0,1,.7.8l.1.6a.91.91,0,0,1,.7-.3.37.37,0,0,1,.3.1l1.8.6a1.14,1.14,0,0,1,.7.8l.3,1.3.5.7a1.06,1.06,0,0,1,.1.8l-.2.9.1.1,1,.5a.79.79,0,0,1,.5.8l.3,2a1,1,0,0,1-.6,1.1l-1.5.6c-.1,0-.2.1-.4.1H474l-1.8-.3a1,1,0,0,1-.7-.4,1.08,1.08,0,0,1-.2-.8v-.2l-.8.6a1.42,1.42,0,0,1-.6.2c-.2,0-.3,0-.4-.1a1.15,1.15,0,0,1-.6-.9v-2.8h-2.5a1.06,1.06,0,0,1-1-.9l-.3-2v-.4l.3-1.2c0-.1.1-.2.2-.4l.6-.9-.1-1.3h-2.3a.91.91,0,0,1-.8-.4.78.78,0,0,1-.2-.8l.3-1.8a1,1,0,0,1,.9-.8V318a.94.94,0,0,1,1-1h1l.1-.4c0-.1.1-.2.1-.3a1,1,0,0,1-.7-1v-1.6h-2.8a1,1,0,0,1-.9-.7l-.4-1.2-.5-.1-.1.3a1.08,1.08,0,0,1-1,.8h-1.1l-1.4.3h-.4l-1.5-.3a1,1,0,0,1-.8-1l.2-4.6-.5-.1h-1.2v2.5a1.42,1.42,0,0,1-.2.6l-1.5,2a.54.54,0,0,1-.4.3l-.9.4-.2,1.5c-.1.4-.4.8-.8.8l-1.3.3-1.9,1.2-.5,1.4c-.1.2-.2.3-.3.5l-1,.8,1.6,1.9a.91.91,0,0,1,.3.7v7.5l6.4,4.1c.1.1.2.1.3.2l.6.8,1.3-.7a1.3,1.3,0,0,1,1,0,1.05,1.05,0,0,1,.5.9V336a.9.9,0,0,1-.1.5l-1.1,2-.4.9.5.8h0v-.1a1,1,0,0,1,.2-.9,1.14,1.14,0,0,1,.8-.3h.1l2.6.3a1,1,0,0,1,.8.5l.1.2Zm-31.1-20h0l2.5.5-.3-.5a1.1,1.1,0,0,1,0-.8.9.9,0,0,1,.6-.6l1.1-.4.4-.8a1.15,1.15,0,0,1,.9-.6h.2v-.5a1.14,1.14,0,0,1,.3-.8.84.84,0,0,1,.7-.2h.1l.6.1-.2-.4a1.39,1.39,0,0,1,0-.9c.2-.3.4-.5.7-.5l1.2-.2v-.3a1.08,1.08,0,0,1,.8-1l1.8-.3,1.1-.3h2a.91.91,0,0,1,.8.4l.5.7.3-1.2a.85.85,0,0,1,.8-.7l.6-.1-.2-2a.9.9,0,0,1,.7-1l.2-.1v-.3h-2.8a.6.6,0,0,1-.4-.1l-2-.9a1,1,0,0,1-.6-1.1l.6-3.2c0-.1.1-.2.1-.3l.6-1-.6-1.4-1.3-1.3a.52.52,0,0,1-.2-.4l-.4-1.2-2.1-.5a.85.85,0,0,1-.7-.7l-.6-2a1,1,0,0,1,.6-1.2l4.3-1.4-1.4-.5a.1.1,0,0,1-.1-.1l-.9-.4-.3.1v.9a1,1,0,0,1-.8,1l-3.8.9h-.2l-7.1-.2.3,1.7v.2l-.3,14.1V311a1.05,1.05,0,0,1-.5.9l-1.1.7-.2.8a1.06,1.06,0,0,1-.6.7c-.1,0-.2.1-.4.1a1.42,1.42,0,0,1-.6-.2l-.5-.3-.3.1h0l.8,1.6h1.4a.94.94,0,0,1,1,1v3.2Zm-20.7-5.1.2-.1-.1-.3h-1Zm60.9-2.6a.37.37,0,0,1,.3.1l.8.3-.2-.2-.4-.6a1,1,0,0,1-.8.5h-.1v.1C470,311.9,470.1,311.9,470.2,311.9Zm16.6-.1h0v-1.9c0-.2,0-.3.1-.4l.7-1.5-.2-1.7-1.1-.4a1,1,0,0,1-.7-.9,1.23,1.23,0,0,1,.5-1l.5-.3-.2-1.1-.8-1.4h-.2l-.1.2v1.7a1,1,0,0,1-.6.9l-1.2.6a.85.85,0,0,1-.8,0,.9.9,0,0,1-.6-.6l-.1-.4-1-.4-.2.5-.6,1.2c-.1.1-.1.2-.2.3h2.3a.94.94,0,0,1,1,1v3.9l.7-.2,1.4-.6c.1,0,.2-.1.4-.1a1.42,1.42,0,0,1,.6.2.91.91,0,0,1,.4.8v1.6Zm-8.3-5.8Zm-67.1-2.4,1.3-1.3v-2.8a1,1,0,0,1,.7-.9l.2-.1-1.2-.3h-1.9l-2.2-.2v.5l.5,1.3.8,2.2,1.8,1.6Zm39.8-3,3.2-1.5,1.4-3.2-1.6-1.9-2.3-3.1-6.8.5.4,4.3.8.6a1,1,0,0,1,.4.5l.3,1.2.9-.1h.2a.6.6,0,0,1,.4.1l1.5.6a.87.87,0,0,1,.6.8l.2,1.2Zm24.2-6.6.2-1.1-1,.1v1Zm-46.8-14.5h0a.94.94,0,0,1,1-1h1.9v-1.3L428,277v2.4Zm-.8-12.4.5-10-1.1-.1.2,10.1Z" transform="translate(-265.13 -194)"/><path class="b" d="M441.6,407.1a1.08,1.08,0,0,1-1-1v-.3a.91.91,0,0,1,.3-.7h0v-.3a.35.35,0,0,1-.1-.2,1,1,0,0,1-.5-.8v-.3a.91.91,0,0,1,.3-.7.84.84,0,0,1,.4-.7c0-.1.1-.1.1-.2v-.2a.91.91,0,0,1,.3-.7,1.18,1.18,0,0,1,.9-.9h0v-.8a.91.91,0,0,1,.3-.7.84.84,0,0,1,.4-.7c0-.1.1-.1.1-.2h0a.91.91,0,0,1-.3-.7v-.3a.91.91,0,0,1,.3-.7h0a.91.91,0,0,1-.3-.7v-.9a1,1,0,0,0,0-1.4.75.75,0,0,1,.1-.5,1,1,0,0,1-.7-1V391a.86.86,0,0,1-.3-.6c-.1-.1-.1-.1-.1-.2s-.1-.1-.2-.1h0a1.06,1.06,0,0,1-.9-1v-.6a1.42,1.42,0,0,1,.2-.6,1.05,1.05,0,0,1-.5-.9v-.2h0a1.06,1.06,0,0,1-.9-1v-.3a.78.78,0,0,1-.4-.4l-.3-.3a1,1,0,0,1-.4-.7.91.91,0,0,1-.3-.7v-.6a.91.91,0,0,1,.3-.7v-1a.91.91,0,0,1-.3-.7v-.5a.35.35,0,0,1-.1-.2,1,1,0,0,1-.4-.7.86.86,0,0,1-.3-.6c-.1-.1-.1-.1-.1-.2s-.1-.1-.2-.1a.84.84,0,0,1-.7-.4l-.3-.3a1,1,0,0,1-.4-.7h0l-12.1-1.1c-.2,0-.3-.1-.5-.2l-10.1-7.2a1,1,0,0,1,0-1.6l12.1-9.8.5-11.8h-.1a.91.91,0,0,1-.7-.3,4917165483675.46,4917165483675.46,0,0,0-1.2-.6l-.3-.3a.35.35,0,0,1-.1-.2c-.1,0-.1-.1-.2-.1h-.7a1,1,0,0,1-.9-.6.76.76,0,0,1-.4-.2l-.3-.3a1.06,1.06,0,0,1-.9-1c-.1-.1-.2-.1-.3-.2a.86.86,0,0,1-.6-.3h-.2a.79.79,0,0,1-.8-.5l-.3-.3a.78.78,0,0,1-.4-.4H417v.2a1.06,1.06,0,0,1-.9,1h0a.91.91,0,0,1-.7.3H412a.91.91,0,0,1-.7-.3.75.75,0,0,1-.7-.5c-.1,0-.1.1-.2.1a.6.6,0,0,1-.4.1h-.2a.91.91,0,0,1-.7.3c0,.1-.1.2-.2.3l-.3.3a.91.91,0,0,1-.7.3h0c-.2,0-.3,0-.4-.1a.6.6,0,0,1-.4.1h-.3a.91.91,0,0,1-.7-.3l-.3-.3h0a.91.91,0,0,1-.7.3h-.3a.91.91,0,0,1-.7.3h-.8c-.1.1-.2.2-.3.2s-.2.1-.3.1a.86.86,0,0,1-.3.6l-.6.6a.91.91,0,0,1-.7.3h-.8c0,.1-.1.2-.2.3l-.6.6a.91.91,0,0,1-.7.3h-.3a1.06,1.06,0,0,1-1-.9h0a.86.86,0,0,1-.3-.6l-.3-.3h-.8a1.06,1.06,0,0,1-1-.9h-.2a.91.91,0,0,1-.7-.3h0c-.2,0-.3-.1-.5-.2a1.42,1.42,0,0,1-.6.2h-.2a.91.91,0,0,1-.7.3h-.3a.79.79,0,0,1-.8-.5c-.1-.1-.2-.1-.2-.2a.6.6,0,0,1-.4.1h-.3a1.06,1.06,0,0,1-1-.9h0a.84.84,0,0,1-.4.7l-.3.3a1,1,0,0,1-.5.4v.5a.79.79,0,0,1-.5.8c0,.1-.1.1-.1.2l-.3.3a.91.91,0,0,1-.7.3h-.3a.91.91,0,0,1-.7-.3h0a1.18,1.18,0,0,1-.9-.9h0a.91.91,0,0,1-.3-.7V342a.91.91,0,0,1-.3-.7v.1h-.4c-.1.1-.1.1-.2.1l-.3.3a1,1,0,0,1-.8.5h-.9a.91.91,0,0,1-.7-.3h0a1.06,1.06,0,0,1-.9-1v-.5h-1.1a.94.94,0,0,1-1-1v-.1l-.2.2a1,1,0,0,1-.7.4h0a.84.84,0,0,1-.4.7,1,1,0,0,1-.7.4.91.91,0,0,1-.7.3H374a.91.91,0,0,1-.7-.3h0a.86.86,0,0,1-.6-.3h-.2a.94.94,0,0,1-1-1v-.6a.51.51,0,0,0-.6-.8h0a.84.84,0,0,1-.7-.4,1,1,0,0,1-.5-.8V337a.86.86,0,0,1-.3-.6.37.37,0,0,1-.3-.1c-.1-.1-.2-.1-.3-.2h-.2a.91.91,0,0,1-.7-.3h-.5a.9.9,0,0,1-.5-.1,2.09,2.09,0,0,1-.4.6,1,1,0,0,1-.7.4.86.86,0,0,1-.6.3h0a.91.91,0,0,1-.7.3.6.6,0,0,1-.4-.1,1.76,1.76,0,0,1-.5-.4,1,1,0,0,1-.4-.7h0a1.18,1.18,0,0,1-.9-.9h0l-.3.3a.91.91,0,0,1-.7.3H361a.91.91,0,0,1-.7-.3.86.86,0,0,1-.6-.3h-.4a1,1,0,0,1-.9-.6.76.76,0,0,1-.4-.2h-.2a.6.6,0,0,1-.4-.1c-.1,0-.1-.1-.2-.1s-.1.1-.2.1a.6.6,0,0,1-.4.1.91.91,0,0,1-.7-.3h-1.3a.91.91,0,0,1-.7-.3l-.3-.3a.91.91,0,0,1-.3-.7v.2a.91.91,0,0,1-.3-.7v-.5a.86.86,0,0,1-.3-.6.52.52,0,0,1-.2-.4.35.35,0,0,1-.2-.1,1.05,1.05,0,0,1-.9.5h-.8a.79.79,0,0,1-.8-.5c-.1,0-.1-.1-.2-.1h-.1a1,1,0,0,1-.9.6h-1.5a.91.91,0,0,1-.7-.3l-.6-.6a1.18,1.18,0,0,1-.9-.9l-.3-.3a.35.35,0,0,1-.1-.2,1,1,0,0,1-.4-.7l-.3-.3a.35.35,0,0,1-.1-.2l-.3-.3c-.1-.1-.2-.1-.2-.2a.6.6,0,0,1-.4.1h-.6a.91.91,0,0,1-.7-.3,1.14,1.14,0,0,1-.3-.8l.3-3.5v-2.3l.3-3.3v-4.5a.91.91,0,0,1,.3-.7V306a.91.91,0,0,1,.3-.7v-1.8l-10,.2-.8,7.2a1,1,0,0,1-.8.9l-8.8,1.3.6,4h9.5a.91.91,0,0,1,.7.3,1.08,1.08,0,0,1,.3.7l-.3,9.5a1,1,0,0,1-1,1h-.1l-13.8-1.1-.8,4.9,9.9.8a.84.84,0,0,1,.7.4.78.78,0,0,1,.1.8l-5.2,18.8a1,1,0,0,1-1,.7l-11.7-.8-6.3,7.4a.71.71,0,0,1-.6.3l-11,2-3.1.5-.8,8.2a1,1,0,0,1-1,.9h-1.6l-5.2-.6-3.8-.3h-1.9l-1.4-.3-4-.3-2.7-.3a.75.75,0,0,1-.7-.5,1,1,0,0,1-.1-.9l1.7-4.7-.3-6.1v-.2l1.1-5.9v-5.9a.76.76,0,0,1,.2-.5l7.5-11.9.3-.3,6-4.3,9.2-5.8,4.5-32.1a.86.86,0,0,1,.3-.6v-2.7l.3-1.8a1.06,1.06,0,0,1,.6-.7v-1l.3-1.7v-1.7l.3-3.3v-1.1a1,1,0,0,1,1-1h.1l3.2.3h1.9l1.7.3h3.1a.91.91,0,0,1,.7.3h0l3.1.2.2-1.3v-3l.3-2.6.3-4.5v-2l.6-9.9v-.2l.6-6.4v-1.7l.6-6.7V237l.6-8.4.3-8a1,1,0,0,1,1-1l6.4.3,9,.6,11.6.6,21.1.6,3.3.3h10l6.9.3h29.1a1,1,0,0,1,.9.6,1,1,0,0,1,.5.4c.1,0,.1.1.2.1a.84.84,0,0,1,.7.4c.1,0,.1.1.2.1a1,1,0,0,1,.8.7,1.23,1.23,0,0,1,.8-.4H420a.94.94,0,0,1,1,1v.3a.78.78,0,0,1,.4.4,1,1,0,0,1,.5.8v.8h0a.91.91,0,0,1,.2,1.1,1.76,1.76,0,0,1-.4.5,1,1,0,0,1-.8.5h-.5a.84.84,0,0,1-.4.7,1,1,0,0,1-.5.4.76.76,0,0,1-.2.4v.5a.91.91,0,0,1-.3.7.86.86,0,0,1,.3.6c.1.1.1.1.1.2s.1.1.2.1h0a1.18,1.18,0,0,1,.9.9h.2a.79.79,0,0,1,.8.5,1,1,0,0,1,.5.8v.3a.91.91,0,0,1-.3.7h0a1.18,1.18,0,0,1,.9.9h0a.91.91,0,0,1,.3.7.78.78,0,0,1,.4.4h0a1.42,1.42,0,0,1,.6-.2h.3a.87.87,0,0,1,.9.6h.3a.94.94,0,0,1,1,1v.3a.91.91,0,0,1-.3.7v13.7l.3,5.1v20.3a.94.94,0,0,1-1,1H397.8v5.9a1.14,1.14,0,0,1-.3.8.84.84,0,0,1-.7.2h-.1l-2-.3-3.3-.3-2,.5-1.4.9-.9,1.6h0l1.4.5a1,1,0,0,1,.6,1.1l-.3,1.8a1,1,0,0,1-1,.8h-1.3l-1.6.5-1.2.3h-.2c-.2,0-.3,0-.4-.1l-1.6-.8-.8-.1v.1l.3,1.1v.1l.3,2v.2l-.2,1.8h.6a.75.75,0,0,1,.5.1l1.5.9a.84.84,0,0,1,.4,1.1l-.6,1.9-.2,2.7.3.1.9-.5.8-1,1.1-1.7a.91.91,0,0,1,.8-.4h.2l10.4,1.8a1,1,0,0,1,.8,1.1l-.7,4.8,2.5.6,3.7.3,2.3.3h2.9a1.08,1.08,0,0,1,1,.8l.3,1.8a1,1,0,0,1-.4,1l-1.2.9a1.42,1.42,0,0,1-.6.2c-.2,0-.3,0-.4-.1l-1-.5-.4.5a2.09,2.09,0,0,1-.6.4l-1.8.3-1.9.4-.2,1.1-.3,1.9.2,1.4,3,.2a1,1,0,0,1,.9,1v1.9l12,.3h.1l4.3.6,1.1-.4.7-1.6a1.06,1.06,0,0,1,.7-.6l1.5-.3h.5l1.9.6,4.7.3a.9.9,0,0,1,.9.9l.5,8.6h.2a.87.87,0,0,1,.9.6l.6,1.5a.9.9,0,0,1,.1.5l-.2,1.3,4.7.5a1,1,0,0,1,.7.4,1.08,1.08,0,0,1,.2.8l-.4,2.6,2.6.7a1.08,1.08,0,0,1,.8,1.1l-.6,5.7a1.06,1.06,0,0,1-1,.9h-3.8a1,1,0,0,1-1-.8l-.2-1.2-.3-.4H438l-1.8,1.1v3.8l.3,2.8v.8h12a.91.91,0,0,1,.7.3,1.08,1.08,0,0,1,.3.7l-.5,12,8,.5a1,1,0,0,1,.9,1.1l-.2,4,9.7.5a.91.91,0,0,1,.7.3.66.66,0,0,1,.2.7l-.2,3.1,9.1.5a.9.9,0,0,1,.9.9l.3,2.3v.4l-.6,2-.3,2.2V391l.5,1.6a1,1,0,0,1-.5,1.2L461,401.6l-.8,5.5a1.06,1.06,0,0,1-1,.9C459.2,407.7,441.6,407.1,441.6,407.1Zm-9.2-84.8a.37.37,0,0,1-.3-.1l-.8-.3-2.8-.6-3.7-.3a1,1,0,0,1-.9-1v-2.9h-1a1,1,0,0,1-.9-.6l-1.5-2.9a1.06,1.06,0,0,1,.3-1.3l.9-.6a.35.35,0,0,0,.2-.1l.9-.3c.1,0,.2-.1.3-.1h.2a1,1,0,0,1,.4-.5l1-.6v-2.6l.3-14-.6-2.8a.78.78,0,0,1,.2-.8,1.23,1.23,0,0,1,.8-.4l8.3.3,2.9-.7v-1a1,1,0,0,1,.8-1l1.5-.3h.2c.2,0,.3,0,.4.1l1.1.6,1.7.6a2.19,2.19,0,0,1,.5.3l.9,1.2a1.08,1.08,0,0,1,.2.8,1.79,1.79,0,0,1-.5.7l-1.2.6a.1.1,0,0,0-.1.1l-3.5,1.2.2.5,2,.5a1,1,0,0,1,.7.7l.5,1.5,1.3,1.3c.1.1.2.2.2.3l.9,2a1,1,0,0,1-.1.9l-.8,1.3-.4,2.2,1.1.5h3.6a.94.94,0,0,1,1,1v2a1,1,0,0,1-.7.9H448l.2,2.1a1,1,0,0,1-.8,1.1l-.8.2-.4,1.7a1,1,0,0,1-1,.8H445l-1.3-.2a2.09,2.09,0,0,1-.6-.4l-.6-.8h-1.1l-1,.3-1,.2v.3a1.06,1.06,0,0,1-.9,1l-.8.1.4.8a1.18,1.18,0,0,1-.1,1,.91.91,0,0,1-.8.4h-.1l-1.2-.2v.6a.91.91,0,0,1-.4.8,1.42,1.42,0,0,1-.6.2h-.2l-.4-.1-.2.5a1.21,1.21,0,0,1-.5.5l-.4.2.1.2a.6.6,0,0,1,.1.4v1.2a1.23,1.23,0,0,1-.4.8C432.8,322.2,432.6,322.3,432.4,322.3Zm-22-16.7a.37.37,0,0,1-.3-.1l-.9-.3a.76.76,0,0,1-.4-.2l-2-2a.52.52,0,0,1-.2-.4l-.9-2.3-.6-1.4c0-.1-.1-.2-.1-.4V297a.91.91,0,0,1,.3-.7l.3-.3a.91.91,0,0,1,.7-.3h.1l2.9.3h2.1l2.3.6a1,1,0,0,1,.7,1.2l-.3,1.5a1.12,1.12,0,0,1-.7.8l-.2.1v2.5a.91.91,0,0,1-.3.7l-2,2C410.9,305.5,410.7,305.6,410.4,305.6Z" transform="translate(-265.13 -194)"/></svg>