<svg xmlns="http://www.w3.org/2000/svg" viewBox="0 0 336.74 250.72"><defs><style>.a{fill:#80d7f7;}.a,.c{stroke:#fff;}.b{opacity:0.75;}.c{fill:#00b0f0;}</style></defs><title>southeast</title><path class="a" d="M436.8,357.9a.94.94,0,0,1-1-1v-1.8l-.3-2.8V348a.89.89,0,0,1,.5-.8l2.3-1.5c.1,0,.1-.1.2-.1l.9-.3c.1,0,.2-.1.3-.1a.91.91,0,0,1,.8.4l.9,1.2a.76.76,0,0,1,.2.4l.1.7h2.1l.4-4.1-2.7-.7a.92.92,0,0,1-.7-1.1l.4-2.4-4.7-.5a1,1,0,0,1-.7-.4,1,1,0,0,1-.2-.7l.3-2.1-.2-.4-.3.1h-.2a1.42,1.42,0,0,1-.6-.2,1.27,1.27,0,0,1-.4-.7l-.5-8.9-4.1-.2h-.2l-1.8-.5-.7.1-.7,1.6a.9.9,0,0,1-.6.6l-1.8.6c-.1,0-.2.1-.3.1h-.1l-4.5-.6-12.9-.3a1.08,1.08,0,0,1-1-1v-2l-2.9-.2a.9.9,0,0,1-.9-.9l-.3-2.3v-.3l.3-2,.3-1.8a1.09,1.09,0,0,1,.8-.8l2.6-.6,1.4-.2.6-.8.2-.2-2.1-.3-3.7-.3h-.2l-3.5-.9a.92.92,0,0,1-.7-1.1l.7-4.8-8.8-1.5-.8,1.2-.9,1.2-.3.3-1.5.9a.9.9,0,0,1-.5.1.6.6,0,0,1-.4-.1l-1.5-.6a1,1,0,0,1-.6-1l.3-3.5v-.2l.4-1.3-.6-.3H381a.78.78,0,0,1-.7-.3,1.14,1.14,0,0,1-.3-.8l.3-2.8-.3-1.9-.3-1.1-.3-1.5a1,1,0,0,1,.2-.9,1.08,1.08,0,0,1,.7-.3h.1l2.3.3a.37.37,0,0,1,.3.1l1.4.7.8-.2,1.7-.6c.1,0,.2-.1.3-.1h.6v-.1l-.7-.3c-.1,0-.1-.1-.2-.1l-.9-.6a1,1,0,0,1-.3-1.3l1.5-2.6c.1-.1.2-.3.3-.3l1.8-1.2a.37.37,0,0,1,.3-.1l2.3-.6h.2l3.6.3,1,.1V280a.94.94,0,0,1,1-1h27.6V267.4l-.3-11.9V244.8a.94.94,0,0,1,1-1h3.2a.94.94,0,0,1,1,1v1.1l1.8.1v-2.2l-.9-.2a1,1,0,0,1-.8-1v-5.3l-4.3-1.2h-1.6l-.2,2.6a1,1,0,0,1-1,.9h0a2.1,2.1,0,0,1-1.3-1.3V238a1,1,0,0,1-.6-.8h0a.91.91,0,0,1-.3-.7V236a1,1,0,0,1-.5-.6.87.87,0,0,1-.6-.8h0a.84.84,0,0,1-.7-.4,1,1,0,0,1-.4-.7c-.1-.1-.1-.1-.1-.2a1,1,0,0,1-.4-.7h0a.91.91,0,0,1-.3-.7v-.6a1.06,1.06,0,0,1,.9-1v-.2a.79.79,0,0,1,.5-.8c0-.1.1-.1.1-.2l.3-.3a.35.35,0,0,1,.2-.1c0-.1.1-.1.1-.2V228a.87.87,0,0,1,.6-.9.6.6,0,0,1,.1-.4.31.31,0,0,0-.1-.2.75.75,0,0,1-.5.1h-1.5a.79.79,0,0,1-.8-.5c-.1,0-.1-.1-.2-.1h-.2a1,1,0,0,1-1-1,.78.78,0,0,1-.4-.4l-.3-.3c-.1,0-.1-.1-.2-.1l-.3-.3a.35.35,0,0,1-.1-.2.78.78,0,0,1-.4-.4h-.5a.94.94,0,0,1-1-1V221a.86.86,0,0,1-.3-.6.52.52,0,0,1-.2-.4.87.87,0,0,1-.6-.9v-.2a1.06,1.06,0,0,1-.9-1c-.1,0-.2-.1-.3-.2h-.2a.94.94,0,0,1-1-1v-.3a1.42,1.42,0,0,1,.2-.6.76.76,0,0,1-.2-.5h0a1.4,1.4,0,0,1-.3-.9.91.91,0,0,1-.3-.7v-.2H409a.94.94,0,0,1-1-1v-1l-1.1-2.7a.64.64,0,0,1,0-.6l.6-2.6a1,1,0,0,1,1-.8H412a.94.94,0,0,1,1,1v1.7a.91.91,0,0,1,.7-.3l9.8-.3a1,1,0,0,1,1,1l.3.3.1-.1a.86.86,0,0,1,.6-.3l4.3-.3a.91.91,0,0,1,.7.3,1.08,1.08,0,0,1,.3.7v.1l.8,1.8H435l2.6-.3h2.6l.7-2.2a.85.85,0,0,1,.8-.7l1.8-.2.5-10.1a.9.9,0,0,1,.9-.9l6.9-.6h.1a1,1,0,0,1,1,1v.2l.1.6h1.5a.87.87,0,0,1,.9.6l.9,2.2,1-.2h.2a1.07,1.07,0,0,1,.6.2l.4.4.6-3a1.06,1.06,0,0,1,.6-.7l2.9-1.2c.1,0,.2-.1.4-.1a1.42,1.42,0,0,1,.6.2l1.8,1.3.8.1.2-1.6a1.06,1.06,0,0,1,1-.9h1.5a.94.94,0,0,1,1,1v.2l.4,1.9.8-.1h2.8a.91.91,0,0,1,.7.3l.3.3.1.1.9,1.2a1.42,1.42,0,0,1,.2.6v1.9l1.7,1.4a1.23,1.23,0,0,1,.4.8v.9a.79.79,0,0,1-.5.8c0,.1-.1.1-.1.2v.8a.91.91,0,0,1-.3.7v1a.79.79,0,0,1-.5.8l-.3.3a1,1,0,0,1-.8.5h-.5a.91.91,0,0,1-.7.3h-.4a.86.86,0,0,1-.6.3c-.1.1-.1.1-.2.1h0a.76.76,0,0,1,.2.5.91.91,0,0,1,.3.7v.3a1,1,0,0,0,0,1.2v.6a.79.79,0,0,1-.5.8,1,1,0,0,1-.8.5H471a.79.79,0,0,1-.8-.5c-.1,0-.1-.1-.2-.1l-.3-.3c-.1,0-.1-.1-.1-.2a1,1,0,0,1-.4-.5.87.87,0,0,1-.6-.8l-.3-.3a.86.86,0,0,1-.3-.6h-.2a1,1,0,0,1-1-1c-.1,0-.2-.1-.3-.2h-.1l-1.4.3h-.9l-1.4.3h-1.9l-2.3.3h-4.8l-1,.3h-2.5l-3.1.3H444l1.1,11.1a1.14,1.14,0,0,1-.3.8,1.08,1.08,0,0,1-.7.3h-6.9a1,1,0,0,1-1-.9l-.2-4.1-4.3.7h-.2a1.42,1.42,0,0,1-.6-.2,1,1,0,0,1-.4-.7l-.2-3.4-4.3.4.5,2.2a1.22,1.22,0,0,1,.8.9l.8,11.5,1.1.4a1,1,0,0,1,.5.4l1.2,1.6h2.9v-1.3a1.06,1.06,0,0,1,.9-1l3.9-.5.2-2.1a1,1,0,0,1,.4-.7,1.42,1.42,0,0,1,.6-.2h.2l3.8.7.6-1.8a1,1,0,0,1,.9-.7h8.9a1,1,0,0,1,1,1l.3,8.7a1,1,0,0,1-1,1h-.9l-.2,1.2a1.18,1.18,0,0,1-.9.9l-1.9.2-.6.8a1.38,1.38,0,0,1-.4.3l-.8.4-.2.5.7.7a1.14,1.14,0,0,1,.3.8l-.3,2.6a1.06,1.06,0,0,1-.9.9l-1.1.1.2.5h1.3a.91.91,0,0,1,.7.3,1.08,1.08,0,0,1,.3.7l-.3,10.7a1,1,0,0,1-.8,1l-.7.1v.9l2.9.2a.9.9,0,0,1,.9.9l.6,7.8a1.14,1.14,0,0,1-.3.8,1.08,1.08,0,0,1-.7.3h-3.3l.4,6.2,1.3-.2h.1a1.85,1.85,0,0,1,.7.2,1.14,1.14,0,0,1,.3.8v4.4l1.9.6a1,1,0,0,1,.7,1l-.2,4.9,40.5-2.6a1.05,1.05,0,0,1,.9.5L497,290a1,1,0,0,1-.1,1.2L493,296v.2l8.6-.5a.91.91,0,0,1,.8.4,1,1,0,0,1,.2.9l-1.5,4.9a1,1,0,0,1-.4.5l-2.6,1.8a.37.37,0,0,1-.3.1l-3.5,1-.4,1.5,1.1,3.5a1.13,1.13,0,0,1-.1.8l-1.2,2a1.05,1.05,0,0,1-.9.5h-.1a1,1,0,0,1-.8-.7l-.7-2.4-1,2,.3,1,1.1.7a1.05,1.05,0,0,1,.5.9v2a1.14,1.14,0,0,1-.3.8.84.84,0,0,1-.7.2H491l-.9-.1.5,2.1a1,1,0,0,1-.5,1.1l-2.3,1.2a.6.6,0,0,1-.4.1h-.2l-2.9-.6a1,1,0,0,1-.8-1V316l-2.3.8.2,2.6,1.1.9,4.9,4.6a1,1,0,0,1,0,1.4l-1.9,1.9-.8,2.4c0,.1-.1.1-.1.2l-1.4,2.2-.5,2.9v3l.8,2.5a1.09,1.09,0,0,1-1,1.4h-.1l-2-.3h-.6l-.1.7a1,1,0,0,1-1,.8h-1.2a.91.91,0,0,1-.7-.3l.6,4.6a1,1,0,0,1-.4.9l-.5.3-.1.8,1.1.1V350a.81.81,0,0,1,.3-.9.91.91,0,0,1,.7-.3h.2l1.5.3a1.06,1.06,0,0,1,.7.6l.6,1.5c0,.1.1.2.1.4v1.8a1,1,0,0,1-.7.9l-.4.1h0l1.6,1.3a1.13,1.13,0,0,1,.3,1.1,1,1,0,0,1-.9.7l-8.1.3h-5.8a1.42,1.42,0,0,1-.6-.2c-.1,0-.1-.1-.2-.2h0c-.1-.1-.1-.1-.1-.2l-1.4-3.5a.9.9,0,0,1-.1-.5l.3-2.3c0-.1.1-.2.1-.4l1.5-2.6a.22.22,0,0,1,.2-.2l2.3-2.3v-.8l-1.3.1-.9.6-.5,1.7a1.06,1.06,0,0,1-.6.7l-.4.1-.4,1c-.1.1-.1.2-.2.3l-1,1-.5,2.1a1.06,1.06,0,0,1-.6.7c-.1,0-.2.1-.4.1a1.42,1.42,0,0,1-.6-.2l-2.5-1.6-2.7-.5a1.09,1.09,0,0,1-.8-.8l-.8-5.1-1.5-1.5H453l-.4,2,.6,4.7a1.88,1.88,0,0,1-.2.8,1.08,1.08,0,0,1-.7.3h-1.5a1,1,0,0,1-1-.8l-.7-2.9h-.2l-.4,1.4a1,1,0,0,1-.8.7l-2.6.5-.8,1h1.4a1.06,1.06,0,0,1,1,.9l.3,2a1.14,1.14,0,0,1-.3.8l-.8.8.2,1.5a1.08,1.08,0,0,1-.2.8,1.14,1.14,0,0,1-.8.3l-8.3-.2Zm36.1-2.2.7-3-.4-1.5-1.3-.9-.3.1-.2.5c0,.1-.1.1-.1.2l-1.4,2.2-.7,2.4Zm3.9-13.4c.1,0,.1.1.2.2V340l-.6-1.3v.3a1,1,0,0,1-.4.7l-.4.3v1.6Zm-12.1,0,.2-1.7a1,1,0,0,1,.8-.9l.2-.1-.2-1.1h0l-.4.4-1.1,1.7a1,1,0,0,1-.7.4h-.2a1.42,1.42,0,0,1-.6-.2l-1.1-.8v2Zm-3.6-2.7h0l-.4-.9a.6.6,0,0,1-.1-.4v-1.6l.6-4.3a1.06,1.06,0,0,1,1-.9h2l1.2.3c.2.1.5.2.6.4l.6.9a.75.75,0,0,1,.1.8l-.2,1,.2,1.1.4.1.2-.3.3-.5c0-.1.1-.1.1-.2l.9-1.2a.91.91,0,0,1,.8-.4h.6a1.42,1.42,0,0,1,.6.2l.9.6.3.3.4.7.1-.5a1.06,1.06,0,0,1,1-.9h.6a1.08,1.08,0,0,1,1,.8l.3,1.5,1.6,2.1-.8-1.9a.94.94,0,0,1,.1-.9.91.91,0,0,1,.8-.4h.9a1.05,1.05,0,0,1,.9.5l.2.3h0a1,1,0,0,1,1-.8h.2l.6.1v-.5l-.3-1.5-.4-.8-1-.7a.91.91,0,0,1-.4-.8v-3.1l-.3-2a1.14,1.14,0,0,1,.3-.8.91.91,0,0,1,.7-.3h.1l1.4.2-1-2.5-1.7-2.5c0-.1-.1-.1-.1-.2l-1.2-3.2a.64.64,0,0,1,0-.6l.6-2a1,1,0,0,1,.5-.6v-.6l-.8-1.5a2,2,0,0,1-.1-.8c0-.3.3-.5.5-.6l.4-.2-1.6-.9a1.05,1.05,0,0,1-.5-.9v-1.5a.94.94,0,0,1,1-1h1.1V304l.3-1.5c0-.1.1-.2.1-.4l.4-.7-4.6-3.4-3.7-.4.1.3a.64.64,0,0,1,0,.6L470,300a1.08,1.08,0,0,1-1,.8h-2.3a.94.94,0,0,1-1-1v-1h-2.4v4.7l2.1.1v-1a1.14,1.14,0,0,1,.3-.8.84.84,0,0,1,.7-.2h.1l2.3.3a1.22,1.22,0,0,1,.9.8l.2.9h1.2a1.06,1.06,0,0,1,1,.9l.2,2.1,1.5.2a1.06,1.06,0,0,1,.9,1v2.3a1,1,0,0,1-.6.9,1.23,1.23,0,0,1-.4.8l-.9.6c-.2.1-.3.2-.5.2l.3.1a1,1,0,0,1,.6.5l.3.6a1.06,1.06,0,0,1-.2,1.2l-.4.4a1,1,0,0,1,.5.4l.7,1.1.8.2a1.08,1.08,0,0,1,.8,1v2.6a1,1,0,0,1-1,1l-5.3-.2v1.4l.4.1a.85.85,0,0,1,.7.8l.1.6a.91.91,0,0,1,.7-.3.37.37,0,0,1,.3.1l1.8.6a1.14,1.14,0,0,1,.7.8l.3,1.3.5.7a1.06,1.06,0,0,1,.1.8l-.2.9.1.1,1,.5a.79.79,0,0,1,.5.8l.3,2a1,1,0,0,1-.6,1.1l-1.5.6c-.1,0-.2.1-.4.1H474l-1.8-.3a1,1,0,0,1-.7-.4,1.08,1.08,0,0,1-.2-.8v-.2l-.8.6a1.42,1.42,0,0,1-.6.2c-.2,0-.3,0-.4-.1a1.15,1.15,0,0,1-.6-.9v-2.8h-2.5a1.06,1.06,0,0,1-1-.9l-.3-2v-.4l.3-1.2c0-.1.1-.2.2-.4l.6-.9-.1-1.3h-2.3a.91.91,0,0,1-.8-.4.78.78,0,0,1-.2-.8l.3-1.8a1,1,0,0,1,.9-.8V318a.94.94,0,0,1,1-1h1l.1-.4c0-.1.1-.2.1-.3a1,1,0,0,1-.7-1v-1.6h-2.8a1,1,0,0,1-.9-.7l-.4-1.2-.5-.1-.1.3a1.08,1.08,0,0,1-1,.8h-1.1l-1.4.3h-.4l-1.5-.3a1,1,0,0,1-.8-1l.2-4.6-.5-.1h-1.2v2.5a1.42,1.42,0,0,1-.2.6l-1.5,2a.54.54,0,0,1-.4.3l-.9.4-.2,1.5c-.1.4-.4.8-.8.8l-1.3.3-1.9,1.2-.5,1.4c-.1.2-.2.3-.3.5l-1,.8,1.6,1.9a.91.91,0,0,1,.3.7v7.5l6.4,4.1c.1.1.2.1.3.2l.6.8,1.3-.7a1.3,1.3,0,0,1,1,0,1.05,1.05,0,0,1,.5.9V336a.9.9,0,0,1-.1.5l-1.1,2-.4.9.5.8h0v-.1a1,1,0,0,1,.2-.9,1.14,1.14,0,0,1,.8-.3h.1l2.6.3a1,1,0,0,1,.8.5l.1.2Zm-31.1-20h0l2.5.5-.3-.5a1.1,1.1,0,0,1,0-.8.9.9,0,0,1,.6-.6l1.1-.4.4-.8a1.15,1.15,0,0,1,.9-.6h.2v-.5a1.14,1.14,0,0,1,.3-.8.84.84,0,0,1,.7-.2h.1l.6.1-.2-.4a1.39,1.39,0,0,1,0-.9c.2-.3.4-.5.7-.5l1.2-.2v-.3a1.08,1.08,0,0,1,.8-1l1.8-.3,1.1-.3h2a.91.91,0,0,1,.8.4l.5.7.3-1.2a.85.85,0,0,1,.8-.7l.6-.1-.2-2a.9.9,0,0,1,.7-1l.2-.1v-.3h-2.8a.6.6,0,0,1-.4-.1l-2-.9a1,1,0,0,1-.6-1.1l.6-3.2c0-.1.1-.2.1-.3l.6-1-.6-1.4-1.3-1.3a.52.52,0,0,1-.2-.4l-.4-1.2-2.1-.5a.85.85,0,0,1-.7-.7l-.6-2a1,1,0,0,1,.6-1.2l4.3-1.4-1.4-.5a.1.1,0,0,1-.1-.1l-.9-.4-.3.1v.9a1,1,0,0,1-.8,1l-3.8.9h-.2l-7.1-.2.3,1.7v.2l-.3,14.1V311a1.05,1.05,0,0,1-.5.9l-1.1.7-.2.8a1.06,1.06,0,0,1-.6.7c-.1,0-.2.1-.4.1a1.42,1.42,0,0,1-.6-.2l-.5-.3-.3.1h0l.8,1.6h1.4a.94.94,0,0,1,1,1v3.2Zm-20.7-5.1.2-.1-.1-.3h-1Zm60.9-2.6a.37.37,0,0,1,.3.1l.8.3-.2-.2-.4-.6a1,1,0,0,1-.8.5h-.1v.1C470,311.9,470.1,311.9,470.2,311.9Zm16.6-.1h0v-1.9c0-.2,0-.3.1-.4l.7-1.5-.2-1.7-1.1-.4a1,1,0,0,1-.7-.9,1.23,1.23,0,0,1,.5-1l.5-.3-.2-1.1-.8-1.4h-.2l-.1.2v1.7a1,1,0,0,1-.6.9l-1.2.6a.85.85,0,0,1-.8,0,.9.9,0,0,1-.6-.6l-.1-.4-1-.4-.2.5-.6,1.2c-.1.1-.1.2-.2.3h2.3a.94.94,0,0,1,1,1v3.9l.7-.2,1.4-.6c.1,0,.2-.1.4-.1a1.42,1.42,0,0,1,.6.2.91.91,0,0,1,.4.8v1.6Zm-8.3-5.8Zm-67.1-2.4,1.3-1.3v-2.8a1,1,0,0,1,.7-.9l.2-.1-1.2-.3h-1.9l-2.2-.2v.5l.5,1.3.8,2.2,1.8,1.6Zm39.8-3,3.2-1.5,1.4-3.2-1.6-1.9-2.3-3.1-6.8.5.4,4.3.8.6a1,1,0,0,1,.4.5l.3,1.2.9-.1h.2a.6.6,0,0,1,.4.1l1.5.6a.87.87,0,0,1,.6.8l.2,1.2Zm24.2-6.6.2-1.1-1,.1v1Zm-46.8-14.5h0a.94.94,0,0,1,1-1h1.9v-1.3L428,277v2.4Zm-.8-12.4.5-10-1.1-.1.2,10.1Z" transform="translate(-378.86 -186)"/><g class="b"><path class="c" d="M450.7,303.2a1.06,1.06,0,0,1-1-.9l-.2-1.5-.7-.3-1.5.2h-.2a1.2,1.2,0,0,1-1-.7l-.5-1.7-.9-.7a1,1,0,0,1-.4-.7l-.6-5.7a1.45,1.45,0,0,1,.2-.7,1.61,1.61,0,0,1,.7-.4l8.4-.6a.91.91,0,0,1,.8.4l2.6,3.5,2,2.3a1.09,1.09,0,0,1,.2,1.1l-1.8,4.1a1.21,1.21,0,0,1-.5.5l-3.8,1.8a.6.6,0,0,1-.4.1l-1.4-.1Z" transform="translate(-378.86 -186)"/><path class="c" d="M430.2,248.9a1,1,0,0,1-.9-1v-1h-2.2a.94.94,0,0,1-1-1v-4.3a.86.86,0,0,1-.6-.3h-.8a.79.79,0,0,1-.8-.5c-.1,0-.1-.1-.2-.1a.86.86,0,0,1-.6-.3,1.14,1.14,0,0,1-.3-.8l.3-3.5a1,1,0,0,1,1-.9h3.2l5.2,1.5a1,1,0,0,1,.7,1v5.2l.9.2a1,1,0,0,1,.8,1v4.1a1,1,0,0,1-1,1Z" transform="translate(-378.86 -186)"/><path class="c" d="M516.2,432.7a.6.6,0,0,1-.4-.1,1,1,0,0,1-.6-.9v-.9a.91.91,0,0,1,.3-.7l.3-.3a.35.35,0,0,1,.2-.1c0-.1.1-.1.1-.2h-.2a.94.94,0,0,1-1-1v-.2a.86.86,0,0,1-.3-.6h0a.52.52,0,0,1-.2-.4c-.1-.1-.3-.1-.4-.2a.86.86,0,0,1-.6-.3h-.8a.91.91,0,0,1-.7-.3l-.6-.6h-.5a.91.91,0,0,1-.7-.3h-1a.94.94,0,0,1-1-1v-.3a.6.6,0,0,1,.1-.4.1.1,0,0,1-.1-.1l-.3-.3a.35.35,0,0,1-.1-.2,1,1,0,0,1-.4-.5h-1.2v1.4a.79.79,0,0,1-.5.8,1,1,0,0,1-.8.5h-5.3c-.1.1-.1.2-.2.3a1.06,1.06,0,0,1-1,.9h-.5a.86.86,0,0,1-.6.3c0,.3-.3.6-.6.8a1.06,1.06,0,0,1-.9,1h0v.5a.87.87,0,0,1-.6.9.6.6,0,0,1-.4.1c-.2,0-.3,0-.4-.1a.6.6,0,0,1-.4.1h-1.2a1,1,0,0,0-1.2,0h-.3a.79.79,0,0,1-.8-.5c-.1,0-.1-.1-.2-.1h0a1.06,1.06,0,0,1-.9-1v-.3a.91.91,0,0,1,.3-.7.37.37,0,0,1,.1-.3.55.55,0,0,1-.3-.5.75.75,0,0,1-.5.1h-.8a.91.91,0,0,1-.7.3h-.2a.94.94,0,0,1-1-1v-.2a.35.35,0,0,1-.1-.2c-.1,0-.1-.1-.2-.1a.84.84,0,0,1-.7-.4,1.37,1.37,0,0,1-.5-.8.78.78,0,0,1-.4-.4,1,1,0,0,1-.4-.7h-.5a.91.91,0,0,1-.7-.3h-.8a.91.91,0,0,1-.7-.3h0a.91.91,0,0,1-.7.3h-.6a.87.87,0,0,1-.9-.6.91.91,0,0,1,.2-1.1h0c-.1-.1-.2-.2-.2-.3h-.8a.87.87,0,0,1-.9-.6.91.91,0,0,1,.2-1.1h0v-.3h-.9a.86.86,0,0,1-.6.3h0a.35.35,0,0,1-.2.1,1,1,0,0,1-.8.5h0a1,1,0,0,1-1-1,1.21,1.21,0,0,1-.5-.5c0-.1-.1-.2-.1-.3a1.14,1.14,0,0,1-.8.3h-.2a.35.35,0,0,1-.2.1,1,1,0,0,1-.5.4v.4h.5a.94.94,0,0,1,1,1v.3a1.06,1.06,0,0,1-.9,1h0a.35.35,0,0,1-.2.1,1,1,0,0,1-.8.5h-.8a14751496450374.26,14751496450374.26,0,0,0-1.2.6c-.1.1-.1.1-.2.1a1,1,0,0,1-.8.5h-1.8a.91.91,0,0,1-.7-.3h-1.9a.91.91,0,0,1-.7-.3h-1.3a.91.91,0,0,1-.7-.3H461a.91.91,0,0,1-.7-.3h-.2a.91.91,0,0,1-.7-.3h.1a.91.91,0,0,1-.7-.3,14751496450381,14751496450381,0,0,1-1.2-.6h0a.86.86,0,0,1-.6-.3h0a.86.86,0,0,1-.6-.3h0a.86.86,0,0,1-.6-.3h-.5a.91.91,0,0,1-.7-.3h-.1a.91.91,0,0,1-.7-.3h-.5a.91.91,0,0,1-.7-.3h-1.2a.91.91,0,0,1-.7.3h-3.4a.91.91,0,0,1-.7.3H445a.91.91,0,0,1-.7.3h-.5a.86.86,0,0,1-.6.3h0a.35.35,0,0,1-.2.1,1,1,0,0,1-.8.5h-.3a.91.91,0,0,1-.7-.3l-.3-.3a.35.35,0,0,1-.1-.2l-.3-.3a1,1,0,0,1-.4-.7l-.3-.3a.91.91,0,0,1-.3-.7v-.6a.91.91,0,0,1,.3-.7l.3-.3a.35.35,0,0,1,.2-.1c0-.1.1-.1.1-.2l.3-.3a.35.35,0,0,1,.2-.1l.3-.3c0-.1.1-.1.1-.2v-.5a.91.91,0,0,1,.3-.7,1,1,0,0,1,.4-.7l.3-.3c0-.1.1-.1.1-.2v-.8a.79.79,0,0,1,.5-.8c0-.1.1-.1.1-.2h0a.91.91,0,0,1-.3-.7V410a.75.75,0,0,1,.1-.5.85.85,0,0,1-.7-.8.91.91,0,0,1-.3-.7v-.3a.91.91,0,0,1,.3-.7v-.2a.94.94,0,0,1,1-1h.3l16.7.6.7-5.1c0-.3.3-.6.6-.8l16.2-7.7-.3-.9c0-.1-.1-.2-.1-.3v-3.9l.3-2.3v-.2l.5-1.8-.2-1.3-9.3-.5a.91.91,0,0,1-.7-.3.66.66,0,0,1-.2-.7l.2-3.1-9.7-.5a.91.91,0,0,1-.7-.3,1.08,1.08,0,0,1-.3-.7l.2-4-8-.5a.92.92,0,0,1-.9-1l.5-12h-3.6a1.06,1.06,0,0,1-1-.9l-.3-2a1.14,1.14,0,0,1,.3-.8l.8-.8-.1-.7h-.8l-.6,1.4a1,1,0,0,1-.9.6.76.76,0,0,1-.4-.1l-1.5-.6a1.06,1.06,0,0,1-.6-.7,1,1,0,0,1,.2-.9l3.5-4.3c.1-.2.4-.3.6-.4l2.3-.5.4-1.5a1,1,0,0,1,.8-.7l1.8-.3h.2a1.23,1.23,0,0,1,.8.4l-.1-.5v-.3l.6-2.9a1,1,0,0,1,1-.8h2l-1.1-1.7a1,1,0,0,1-.1-.9l.6-1.5a.1.1,0,0,1,.1-.1l.3-.6c-.1,0-.2.1-.4.1a.91.91,0,0,1-.8-.4l-1.1-1.3-6.8-4.3a1,1,0,0,1-.5-.8V322l-2.1-2.3a.66.66,0,0,1-.2-.7.75.75,0,0,1,.4-.7l1.5-1.3.5-1.5a1,1,0,0,1,.4-.5l2.3-1.5a.37.37,0,0,1,.3-.1l.8-.2.2-1.3a1,1,0,0,1,.6-.8l1.2-.5,1.1-1.5v-3.2a.94.94,0,0,1,1-1H455l1.5.3a1,1,0,0,1,.8,1l-.2,4.6.4.1,1.3-.3h.6l.1-.4a1,1,0,0,1,1-.8h.1l2,.3a1,1,0,0,1,.8.7l.4,1.1h2.8a.94.94,0,0,1,1,1v1.6h.9l-.3-3.3a1.14,1.14,0,0,1,.3-.8,1.08,1.08,0,0,1,.7-.3h.2v.3a1,1,0,0,1,.6-.9l.6-.3c.1-.1.2-.1.4-.1a.91.91,0,0,1-.3-.7l-.2-2h-1.1a1.08,1.08,0,0,1-1-.8l-.2-1-.5-.1v.9a1,1,0,0,1-1,1l-4.2-.3a1,1,0,0,1-.9-1v-6.6a.94.94,0,0,1,1-1h4.3a.94.94,0,0,1,1,1v1h.6V299l-.2-.6a.64.64,0,0,1,0-.6l.3-.9a1,1,0,0,1,.9-.7h.1l4.9.6c.2,0,.3.1.5.2l4.9,3.6h.3a1.05,1.05,0,0,1,.9.5,1.27,1.27,0,0,1,.1.6c.1,0,.2,0,.2.1l2.3.9h.1v-.9a1.42,1.42,0,0,1,.2-.6l.6-.9a.91.91,0,0,1,.8-.4h1.5a1.05,1.05,0,0,1,.9.5l1.2,2c.1.1.1.2.1.4l.3,2v.4a.87.87,0,0,1,.6.8l.3,2.6a1.27,1.27,0,0,1-.1.6l-.8,1.5v.8l1.3-2.6a.75.75,0,0,1,.7-.5h.2a1.42,1.42,0,0,1,.6.2l.9.7-.4-1.3a.45.45,0,0,1,0-.5l.6-2.3a1.21,1.21,0,0,1,.7-.7l3.9-1.1,2.2-1.5,1-3.2-8.5.5a.89.89,0,0,1-.9-1.1l.3-1.8a.55.55,0,0,1,.3-.5l3.6-3.8-1.7-2.9-40.9,2.6a.91.91,0,0,1-.7-.3,1.14,1.14,0,0,1-.3-.8l.3-5.3-1.9-.6a1,1,0,0,1-.7-.9v-4.1l-1.2.2h-.1a1.07,1.07,0,0,1-.6-.2,1.61,1.61,0,0,1-.4-.7l-.6-8.4a1.33,1.33,0,0,1,.3-.8,1.08,1.08,0,0,1,.7-.3h3.3l-.4-5.8-2.9-.2a1,1,0,0,1-.9-1v-2.6a1,1,0,0,1,.8-1l.7-.1.2-8.9h-1a1,1,0,0,1-.9-.6l-.9-2.3a1,1,0,0,1,.1-.9,1.16,1.16,0,0,1,.7-.5l1.6-.2.2-1.4-.8-.8a.91.91,0,0,1-.2-1.1l.6-1.5a1.21,1.21,0,0,1,.5-.5l1-.5.7-1a1,1,0,0,1,.7-.4l1.6-.2.2-1.3a1.06,1.06,0,0,1,1-.9h.7l-.2-6.7h-7.6l-.6,1.9a1,1,0,0,1-.9.7h-.2l-3.6-.7-.2,1.8c0,.5-.4.8-.9.9l-3.8.5v1.5a.94.94,0,0,1-1,1h-4.3a1.23,1.23,0,0,1-.8-.4l-1.3-1.8-1.4-.5a1,1,0,0,1-.7-.9l-.8-11.3a.86.86,0,0,1-.6-.7l-.9-4.1a.78.78,0,0,1,.2-.8,1,1,0,0,1,.7-.4l6.3-.6h.1a1.07,1.07,0,0,1,.6.2.91.91,0,0,1,.3.7l.2,3.3,4.4-.7h.2a1.42,1.42,0,0,1,.6.2,1,1,0,0,1,.4.7l.2,4.3H444l-1.1-11.1a1.14,1.14,0,0,1,.3-.8,1.08,1.08,0,0,1,.7-.3H448l3.1-.3h2.3l1-.3h4.5l2.3-.3H463l1.4-.3h1l1.4-.3h1.1a.79.79,0,0,1,.8.5c.1,0,.1.1.2.1l.3.3a.52.52,0,0,1,.2.4.76.76,0,0,1,.4.2h0a1.06,1.06,0,0,1,.9,1,1.21,1.21,0,0,1,.5.5,1.08,1.08,0,0,1,1,1v.3h0v-1h0c-.1-.1-.1-.1-.1-.2a1,1,0,0,1-.5-.8v-.6a1,1,0,0,1,.6-.9,1,1,0,0,1,.4-.5,1,1,0,0,1,.8-.5h.2a.86.86,0,0,1,.6-.3.91.91,0,0,1,.7-.3h.5a.35.35,0,0,1,.2-.1c0-.1.1-.1.1-.2v-.8a.91.91,0,0,1,.3-.7v-1a.79.79,0,0,1,.5-.8c0-.1.1-.1.1-.2v-.5a.79.79,0,0,1,.5-.8l.3-.3c0-.1.1-.1.1-.2v-2.4a.35.35,0,0,1-.1-.2c-.1,0-.1-.1-.2-.1a.86.86,0,0,1-.6-.3l-.3-.3a1.18,1.18,0,0,1-.9-.9.86.86,0,0,1-.3-.6c-.1-.1-.2-.2-.2-.3a.91.91,0,0,1,.2-1.1h0a.86.86,0,0,1,.3-.6v-1a.91.91,0,0,1,.3-.7v-.2a.91.91,0,0,1,.3-.7l.3-.3a.86.86,0,0,1,.6-.3.91.91,0,0,1,.7-.3h.3c.2,0,.3,0,.4.1s.2-.1.3-.1h0a.35.35,0,0,1,.2-.1,1,1,0,0,1,.8-.5h2a.52.52,0,0,1,.4-.2.76.76,0,0,1,.2-.4l.3-.3a.86.86,0,0,1,.6-.3h0a.91.91,0,0,1,.7-.3h.8a1.53,1.53,0,0,1,1.1-1.1v-1a.91.91,0,0,1,.3-.7v-.8a.79.79,0,0,1,.5-.8,1,1,0,0,1,.8-.5h.3a.6.6,0,0,1,.4.1l2.6,1.2c.1.1.3.2.4.3l2.5,3,2.6,1.3,2.7.2,2-3a.91.91,0,0,1,.8-.4.6.6,0,0,1,.4.1l2.6,1.2a.35.35,0,0,1,.2.1l1.8,1.5.2.2,1.5,2a1,1,0,0,1-.1,1.3l-2.9,2.6-2.2,2.4-1.3,3.4.2,2,2.1.6,4.4-.6h5l5.4-.3h.1l3.2.3,2.6.3,2.9-1.6a.75.75,0,0,1,.5-.1.9.9,0,0,1,.5.1.89.89,0,0,1,.5.8l.3,2.6.3,1.1v3.5l.2.7c0,.1.1.2.1.3v2.6l.3,2v.6l.3,2v.9l.3,2.6v1.4a.91.91,0,0,1,.3.7v2.2l.2.7c0,.1.1.2.1.3v1.5a.79.79,0,0,1-.5.8.78.78,0,0,1-.4.4v.1a.86.86,0,0,1,.3.6h0a.91.91,0,0,1,.3.7v.3a.79.79,0,0,1-.5.8c0,.1-.1.1-.1.2s-.1.3-.2.5c.1.1.1.1.1.2a1,1,0,0,1,.5.4,1,1,0,0,1,.5.8v.5a.78.78,0,0,1,.4.4,1,1,0,0,1,.5.8v2.2l.3.3a.91.91,0,0,1,.3.7v1.4a.91.91,0,0,1-.3.7v.2a.94.94,0,0,1-1,1h-.2v.8a.91.91,0,0,1-.3.7.37.37,0,0,1-.1.3.6.6,0,0,1,.1.4v.3a1.06,1.06,0,0,1-.9,1h0a.35.35,0,0,1-.2.1c0,.1-.1.1-.1.2v.8a.91.91,0,0,1-.3.7,1.18,1.18,0,0,1-.9.9h0v.8a.91.91,0,0,1-.3.7l-.3.3a1.08,1.08,0,0,1-.7.3h-.5a.37.37,0,0,1-.1.3c.1.1.2.1.2.2a1,1,0,0,1,.5.8v.3a.91.91,0,0,1-.3.7v.8a1.06,1.06,0,0,1-.9,1h0a.91.91,0,0,1,.3.7.75.75,0,0,1,.5-.1h.6a.79.79,0,0,1,.8.5c.1.1.2.1.2.2a.6.6,0,0,1,.4-.1h.2a.91.91,0,0,1,.7-.3h.3c.1-.1.1-.2.2-.3a.86.86,0,0,1,.3-.6l.3-.3a.91.91,0,0,1,.7-.3h.3a1.2,1.2,0,0,1,1,.7,1.23,1.23,0,0,1,.8-.4h1.2a.91.91,0,0,1,.7.3h0a7375748225479.14,7375748225479.14,0,0,1,1.2.6h0a1,1,0,0,1,.7.4c.1,0,.1.1.2.1h.5a.91.91,0,0,1,.7.3l.1.1v-.3a.79.79,0,0,1,.5-.8l.3-.3a1,1,0,0,1,.7-.4.91.91,0,0,1,.7-.3h.3c0-.1.1-.2.2-.3h0a1.18,1.18,0,0,1,.9-.9c.1-.1.2-.2.3-.2a.6.6,0,0,1,.4-.1.91.91,0,0,1,.7.3h0a1.18,1.18,0,0,1,.9.9c.1.1.2.3.3.4a.75.75,0,0,1,.5-.1h.3a.6.6,0,0,1,.4.1l.1-.1c.1-.1.3-.2.4-.3a.9.9,0,0,1-.1-.5v-.6a.91.91,0,0,1,.3-.7l.3-.3c.1-.1.2-.2.3-.2v-.8a.94.94,0,0,1,1-1h.2V252a.94.94,0,0,1,1-1h.6a.79.79,0,0,1,.8.5c.1,0,.1.1.2.1h0a1.06,1.06,0,0,1,.9,1v1l.3.3a.86.86,0,0,1,.6.3H555a1.42,1.42,0,0,1,.6.2.76.76,0,0,1,.5-.2c.1-.1.2-.2.3-.2v-2.6a.91.91,0,0,1,.3-.7l.6-.6v-.4a.91.91,0,0,1,.3-.7l.3-.3a.91.91,0,0,1,.7-.3h1.1l.3-.3v-1a.91.91,0,0,1,.3-.7v-.2a.91.91,0,0,1,.3-.7l.3-.3a.91.91,0,0,1,.7-.3h.1l.3-.1c0-.1.1-.1.1-.2a.84.84,0,0,1,.4-.7c.1-.1.1-.2.2-.2s-.1-.2-.1-.3h0a.91.91,0,0,1-.3-.7V242a.91.91,0,0,1-.3-.7v-.9a1.06,1.06,0,0,1,.9-1h0a.91.91,0,0,1,.7-.3h.9l.4-.2a.6.6,0,0,1,.4-.1h.3a.91.91,0,0,1,.7.3h0a1,1,0,0,1,.7.4,1,1,0,0,1,.8-.7h0a.35.35,0,0,1,.2-.1l.3-.3.3-.3a1,1,0,0,1,.8-.5h.5a.86.86,0,0,1,.6-.3h0a.86.86,0,0,1,.6-.3h0a1.06,1.06,0,0,1-.9-1v-.6c0-.2,0-.3.1-.4l.1-.1c-.1-.1-.1-.3-.2-.4l-.3-.3a.91.91,0,0,1-.3-.7v-.3a.91.91,0,0,1,.3-.7h0a.86.86,0,0,1,.3-.6l.3-.3a.35.35,0,0,1,.2-.1,2.9,2.9,0,0,0,.9-.9,1,1,0,0,1,.8-.5h.3a.79.79,0,0,1,.8.5c.1,0,.1.1.2.1l.3.3a.86.86,0,0,1,.6.3h0l.3-.3a.91.91,0,0,1,.7-.3,1.15,1.15,0,0,1,.9-.6h.3a.91.91,0,0,1,.7.3l.3.3a.86.86,0,0,1,.3.6h0c.1.1.2.2.2.3h.5a.79.79,0,0,1,.8.5c.1,0,.1.1.2.1l.3.3a.91.91,0,0,1,.3.7v.2c.1.1.1.2.2.3l.2.4.5.5a.91.91,0,0,1,.3.7v.2a.86.86,0,0,1,.3.6h.8c.2,0,.3,0,.4.1l.3.2a3.33,3.33,0,0,1,.6-.3h0a.91.91,0,0,1,.7-.3h.6a.91.91,0,0,1,.7.3h.5a.79.79,0,0,1,.8.5,1,1,0,0,1,.4.5.76.76,0,0,1,.4.2h0a1.06,1.06,0,0,1,.9.9h.1a1.06,1.06,0,0,1,.9-.9h0a.86.86,0,0,1,.6-.3h0a.91.91,0,0,1,.7-.3h.9a.91.91,0,0,1,.7.3h.2c.2,0,.3,0,.4.1l.4.2h.3c.2,0,.3,0,.4.1l.6.3.1.1a1.42,1.42,0,0,1,.6-.2h1.2a1.14,1.14,0,0,1,.8.3.78.78,0,0,1,.2.8l-.6,3.8a.75.75,0,0,1-.5.7l-1.5.8.1,1.2,1,.6,2.2.8h.1l1.8.9c.1.1.3.2.4.3l1.5,2c0,.1.1.1.1.2l.6,1.5a1.1,1.1,0,0,1,0,.8c-.1.3-.4.4-.7.5l-1.4.3-1.9.8a.6.6,0,0,1-.4.1.91.91,0,0,1-.7-.3l-1.5-1.5c-.1-.1-.1-.2-.2-.3l-.5-1.1-1.1.2,1.2,1.5,2.2,2.1,1.2.5,3.1.6a1,1,0,0,1,.8.9l.6,4.6a1.88,1.88,0,0,1-.2.8,1.14,1.14,0,0,1-.8.3h-3.5a1.06,1.06,0,0,1-1-.9l-.2-1.6-.6-.4H597l-.3.1v1.3l-.3,3.4.8,3.3a.82.82,0,0,1-.4,1l-1.2.9a1.42,1.42,0,0,1-.6.2h-.1l-2.9-.3c-.2,0-.3-.1-.5-.2l-1.4-.9-2.7.6-2.2,3.1.5,2.6,1.7,2.6,4.5.3,7.6-1.7,9-1.2,17.3-2.3,11.6-1.2,6.6-.8.2-3.8a1.23,1.23,0,0,1,.4-.8l6.9-4.6a1.42,1.42,0,0,1,.6-.2.91.91,0,0,1,.8.4l1.7,2.4,2.7-9.1-4.9-2.4L640,255.2h-.2a1.42,1.42,0,0,1-.6-.2,1.23,1.23,0,0,1-.4-.8v-.3a.79.79,0,0,1,.5-.8c0-.1.1-.1.1-.2v-1a.91.91,0,0,1,.3-.7l.3-.3a.52.52,0,0,1-.2-.4h-.1a1,1,0,0,1-.5-1.1.92.92,0,0,1,.4-.6c0-.1.1-.1.1-.2v-.5a.91.91,0,0,1,.3-.7v-.5a.91.91,0,0,1,.3-.7,4538921984766.17,4538921984766.17,0,0,0,.6-1.2l.3-.3a1,1,0,0,1,.4-.7c0-.1.1-.1.1-.2a.84.84,0,0,1,.4-.7c0-.1.1-.1.1-.2a.84.84,0,0,1,.4-.7c0-.1.1-.1.1-.2v-.2a.91.91,0,0,1,.3-.7v-1.3a.91.91,0,0,1,.3-.7V239a.91.91,0,0,1,.3-.7h0a.86.86,0,0,1,.3-.6,1,1,0,0,1,.4-.7c0-.1.1-.1.1-.2V236a.91.91,0,0,1,.3-.7c0-.3.3-.6.6-.8v-.3a.91.91,0,0,1,.3-.7h0a.91.91,0,0,1-.3-.7v-.3a.91.91,0,0,1,.3-.7v-1a.79.79,0,0,1,.5-.8,1,1,0,0,1,.8-.5h.3a.91.91,0,0,1,.7.3h.5a.79.79,0,0,1,.8.5l.3.3c.1,0,.1.1.2.1l.3.3a.86.86,0,0,1,.3.6l.1.1.5.2h.1c.2,0,.3,0,.4.1l.3.2.1-.1.3-.3c0-.1.1-.1.1-.2v-.2a.91.91,0,0,1,.3-.7v-.5a.91.91,0,0,1,.3-.7v-.8a.91.91,0,0,1,.3-.7h0a.91.91,0,0,1,.3-.7v-.8a.91.91,0,0,1,.3-.7v-.5a.91.91,0,0,1,.3-.7.86.86,0,0,1,.3-.6,1,1,0,0,1,.4-.7,1.42,1.42,0,0,1,.6-.2.37.37,0,0,1,.3.1l.9.3c.1,0,.2.1.3.1l.2.1a.86.86,0,0,1,.3-.6v-.5a.79.79,0,0,1,.5-.8c0-.1.1-.1.1-.2a1.06,1.06,0,0,1,1-.9h.2a.84.84,0,0,1,.4-.7,1,1,0,0,1,.5-.4,1,1,0,0,1,.3-1h0a4538921984766.17,4538921984766.17,0,0,0,.6-1.2,1.18,1.18,0,0,1,.9-.9h0a.91.91,0,0,1-.3-.7v-.3c0-.2,0-.3.1-.4a.6.6,0,0,1-.1-.4v.3a.91.91,0,0,1,.3-.7.86.86,0,0,1,.3-.6V213a.91.91,0,0,1-.3-.7V212h0v-.7a1.23,1.23,0,0,1,.4-.8,1.42,1.42,0,0,1,.6-.2.6.6,0,0,1,.4.1l1.5.6c.1.1.2.1.3.2h0a.52.52,0,0,1,.4.2l.9.6,1.4.8.9.6.5.2.8.3c.1,0,.1.1.2.1l.8.5v-.8a.91.91,0,0,1,.3-.7v-.5a.91.91,0,0,1,.3-.7l.3-.3a.86.86,0,0,1,.6-.3.91.91,0,0,1,.7-.3h.3a.91.91,0,0,1,.7.3h0a.91.91,0,0,1,.7-.3.6.6,0,0,1,.4.1.87.87,0,0,1,.6.8h.5a.79.79,0,0,1,.8.5,1,1,0,0,1,.5.8v.9a.91.91,0,0,1-.3.7l.3.3h2a.91.91,0,0,1,.7.3h.2a.79.79,0,0,1,.8.5.92.92,0,0,1,.4.6.9.9,0,0,1,.5-.1.6.6,0,0,1,.4.1,1.76,1.76,0,0,1,.5.4l.3.3.3.3c.1,0,.1.1.2.1a.84.84,0,0,1,.7.4c.1,0,.1.1.2.1l.3.3a.91.91,0,0,1,.3.7v.5a.91.91,0,0,1,.3.7V222a.79.79,0,0,1-.5.8,1,1,0,0,1-.5.4v.5a1.06,1.06,0,0,1-.9,1l-.3.3c-.1.1-.2.2-.3.2v.3a.91.91,0,0,1-.3.7v.5a.91.91,0,0,1-.3.7v.3a.86.86,0,0,1,.3.6c.1.1.1.1.1.2h0a.76.76,0,0,1,.5-.2c.1-.1.1-.1.2-.1a1,1,0,0,1,.8-.5h.2a1.06,1.06,0,0,1,1-.9h.3a.91.91,0,0,1,.7.3l.3.3a.86.86,0,0,1,.3.6h0a.91.91,0,0,1,.3.7v.5h0a.86.86,0,0,1,.6.3l.3.3a.86.86,0,0,1,.3.6h.2a.91.91,0,0,1,.7.3h.3a.91.91,0,0,1,.7-.3.6.6,0,0,1,.4.1c.1,0,.1.1.2.1a1.42,1.42,0,0,1,.6-.2h1.2a.91.91,0,0,1,.7.3l.3.3c.1.1.2.2.2.3a.91.91,0,0,1,.7.3h0a1.06,1.06,0,0,1,.9.9h.2a1.06,1.06,0,0,1,1,.9h1a.91.91,0,0,1,.7.3h.2a.91.91,0,0,1,.7.3l.3.3a.52.52,0,0,1,.2.4.87.87,0,0,1,.6.9v.9a.87.87,0,0,1-.6.9v.5a.91.91,0,0,1,.3.7v1.1a.91.91,0,0,1,.3.7v.3a.6.6,0,0,1-.1.4,1.23,1.23,0,0,1,.4.8v.5c.1.1.2.1.3.2s.1,0,.2.1h0c.1,0,.2.1.4.2l.3.3a.91.91,0,0,1,.3.7v2.3a.94.94,0,0,1-1,1h-.5v.2a1.42,1.42,0,0,1-.2.6c.2.1.3.3.4.4a.91.91,0,0,1,.7.3.84.84,0,0,1,.7.4l.3.3a1,1,0,0,1,.5.8v1.7c.1,0,.2.1.3.2h1.3c.2,0,.3,0,.4.1s.2-.1.3-.1a.91.91,0,0,1,.7-.3h.9a1.06,1.06,0,0,1,1,.9.91.91,0,0,1,.3.7v.2a.86.86,0,0,1,.3.6h0a.86.86,0,0,1,.3.6h0a.86.86,0,0,1,.3.6h0c.1.1.1.2.2.3l.2.4.2.2a.91.91,0,0,1,.3.7v.3a1.06,1.06,0,0,1-.9,1v.1h.2a.79.79,0,0,1,.8.5,1,1,0,0,1,.4.7.91.91,0,0,1,.3.7v.9a1.42,1.42,0,0,1-.2.6,1.05,1.05,0,0,1,.5.9v.2a.35.35,0,0,1,.1.2,1,1,0,0,1,.4.7c.1.1.1.1.1.2a1,1,0,0,1,.4.5,1.09,1.09,0,0,1,.1.5h0a.35.35,0,0,1,.1.2,1,1,0,0,1,.4.7h0a.35.35,0,0,1,.1.2,1,1,0,0,1,.4.7h0a.35.35,0,0,1,.1.2,1,1,0,0,1,.4.7h0a1,1,0,0,1,0,1.4l-.3.3a.91.91,0,0,1-.7.3.6.6,0,0,1-.4-.1c-.1-.1-.2-.1-.3-.2a.86.86,0,0,1-.6-.3l-.6-.6c-.1-.1-.2-.2-.2-.3h-1a.86.86,0,0,1-.3.6l-.3.3a.86.86,0,0,1-.6.3.91.91,0,0,1-.7.3H706a1.14,1.14,0,0,1-.3.6h.4a.91.91,0,0,1,.7-.3H708a.91.91,0,0,1,.7.3.87.87,0,0,1,.8.6h.1c.1-.1.2-.2.3-.2a1.08,1.08,0,0,1,1-1h.9a.89.89,0,0,1,.8.5,1,1,0,0,1,.4.7h0a1,1,0,0,1,.8.6,1.09,1.09,0,0,1,.1.5.86.86,0,0,1,.3.6c.1.1.2.2.2.3a1.09,1.09,0,0,1,.1.5v.3a.86.86,0,0,1,.3.6.91.91,0,0,1,.3.7v.6c0,.2,0,.3-.1.4a.6.6,0,0,1,.1.4v.3a.91.91,0,0,1-.3.7.86.86,0,0,1-.3.6,1.06,1.06,0,0,1-1,.9h-.2a.91.91,0,0,1-.7.3c0,.1-.1.2-.2.3l-.3.3a3470940341290.71,3470940341290.71,0,0,0-.6,1.2v.8a.87.87,0,0,1-.6.9,1,1,0,0,1-.5.8l-.3.3-.3.3a1,1,0,0,1-.8.5h-.2a.91.91,0,0,1-.7.3h-1.3a.91.91,0,0,1-.7-.3h-1a.75.75,0,0,1,.1.5v.2a.91.91,0,0,1,.3.7v.6a.91.91,0,0,1-.3.7v1.6h.8a1.2,1.2,0,0,1,1,.7,1.23,1.23,0,0,1,.8-.4h.3a1.06,1.06,0,0,1,1,.9c.1.1.1.1.1.2l.3.3a1,1,0,0,1,.5.8v.3a.79.79,0,0,1-.5.8c0,.1-.1.1-.1.2v.2a.91.91,0,0,1-.3.7l-.3.3a.87.87,0,0,1-.6.8c-.1.1-.1.3-.2.4a.86.86,0,0,1-.3.6h0a.86.86,0,0,1-.3.6v.5a.94.94,0,0,1-1,1h-.8a1.15,1.15,0,0,1-.9.6h-1.4c-.1.1-.2.2-.3.2a.6.6,0,0,1-.4.1h-1.4a.86.86,0,0,1-.6.3c-.1.1-.2.2-.3.2s-.2.1-.3.1h0a.35.35,0,0,1-.2.1,1,1,0,0,1-.7.4.86.86,0,0,1-.6.3.91.91,0,0,1-.7.3h-.3a.78.78,0,0,1-.4.4,1,1,0,0,1-.5.4c-.1.1-.1.3-.2.4a.84.84,0,0,1-.4.7c0,.1-.1.1-.1.2l-.9.9a.52.52,0,0,1-.4.2.76.76,0,0,1-.2.4l-.3.3a.35.35,0,0,1-.2.1,1,1,0,0,1-.7.4c-.1.1-.1.1-.2.1l-.3.3a1,1,0,0,1-.5.4.76.76,0,0,1-.2.4l-.3.3a.35.35,0,0,1-.2.1l-.3.3c0,.1-.1.1-.1.2a1,1,0,0,1-.5.8h-.1c0,.1-.1.2-.2.3h0a.84.84,0,0,1-.4.7c0,.1-.1.1-.1.2v.2a.91.91,0,0,1-.3.7h0a.84.84,0,0,1-.4.7c0,.1-.1.1-.1.2v.2a.91.91,0,0,1-.3.7v.5a.91.91,0,0,1-.3.7v.8a.79.79,0,0,1-.5.8c0,.1-.1.1-.1.2h0v.7a.91.91,0,0,1-.3.7v.2a.91.91,0,0,1-.3.7h0v.4a.94.94,0,0,1-1,1h-.6a.91.91,0,0,1-.7-.3h-.6a.91.91,0,0,1-.7.3h-.8a.91.91,0,0,1-.7.3h-.3a.91.91,0,0,1-.7.3h-.5a.91.91,0,0,1-.7.3h-.1l-.3.3a.91.91,0,0,1-.7.3.78.78,0,0,1-.4.4,1,1,0,0,1-.7.4l-.3.3c-.1.1-.2.1-.3.2l-.5.2c-.1.1-.2.3-.4.3l-.3.2a1.28,1.28,0,0,1-.5.7h-.1c0,.1-.1.2-.2.3l-.8.8-.5,1a1.21,1.21,0,0,1-.5.5l-.2.5v.1a.91.91,0,0,1-.3.7h0a.86.86,0,0,1-.3.6.86.86,0,0,1-.3.6h0a3535939224101.44,3535939224101.44,0,0,0-.6,1.2v.2a.91.91,0,0,1-.3.7v1.4a.91.91,0,0,1-.3.7v.6a.91.91,0,0,1,.3.7v1.2a.79.79,0,0,1-.5.8c0,.1-.1.1-.1.2a.84.84,0,0,1-.4.7,1,1,0,0,1-.5.4.87.87,0,0,1-.8.6v.6a.75.75,0,0,1-.1.5,1,1,0,0,1-.9.6h-.2a.91.91,0,0,1-.7.3h-.2a.91.91,0,0,1-.7.3h-.3a.75.75,0,0,1,.1.5v.6a1.06,1.06,0,0,1-.9,1h0a.35.35,0,0,1-.2.1l-.3.3-.3.3c0,.1-.1.1-.1.2a.86.86,0,0,1-.3.6,1.18,1.18,0,0,1-.9.9h0a.35.35,0,0,1-.2.1l-.3.3-.3.3a.78.78,0,0,1-.4.4v.5a.91.91,0,0,1-.3.7l-.3.3a.35.35,0,0,1-.2.1c0,.1-.1.1-.1.2l-.3.3c-.1.1-.2.2-.3.2a.37.37,0,0,1-.1.3,1,1,0,0,1-.9.6h-.5a.86.86,0,0,1-.6.3h0a.86.86,0,0,1-.6.3h0a1.06,1.06,0,0,1-1,.9,1,1,0,0,1-.8.6l-.6.6a1.06,1.06,0,0,1-1,.9h-.5l-.1.1a.6.6,0,0,1,.1.4v1.6a.75.75,0,0,1-.1.5.87.87,0,0,1-.8.6h0a.35.35,0,0,1-.2.1l-.3.3a1,1,0,0,1-.7.4h0a.86.86,0,0,1-.6.3l-.3.3c-.1.1-.2.2-.3.2a.91.91,0,0,1-.3.7h0a5900598580220.87,5900598580220.87,0,0,0-.6,1.2l-.3.3a.35.35,0,0,1-.2.1l-.3.3-.3.3a1,1,0,0,1-.5.4,1.23,1.23,0,0,1,.4.8v.6a.91.91,0,0,1-.3.7.84.84,0,0,1-.4.7.78.78,0,0,1-.4.4v.3a.79.79,0,0,1-.5.8l-.3.3a1,1,0,0,1-.7.4v.5a.91.91,0,0,1-.3.7h0a.86.86,0,0,1-.3.6l-.3.3a.86.86,0,0,1-.3.6v.6a.91.91,0,0,1,.3.7v.3a.91.91,0,0,1-.3.7v.2a.91.91,0,0,1-.3.7v1a.91.91,0,0,1-.3.7,4538921984766.74,4538921984766.74,0,0,1-.6,1.2v.2a.91.91,0,0,1-.3.7v.3a.91.91,0,0,1,.3.7V377a.79.79,0,0,1-.5.8c0,.1-.1.1-.1.2l-.3.3h0a.75.75,0,0,1-.1.5,1.76,1.76,0,0,1-.4.5,1,1,0,0,1-.8.5h-.2l-.3.3-.1.1c0,.1.1.2.1.4a1.15,1.15,0,0,1,.6.9v.2a.91.91,0,0,1,.3.7v.3a.91.91,0,0,1-.3.7h0c0,.2-.1.3-.2.5a1.42,1.42,0,0,1,.2.6v.3c0,.2,0,.3-.1.4s.1.2.1.3a.91.91,0,0,1,.3.7v.3a.91.91,0,0,1-.3.7,1.18,1.18,0,0,1-.9.9.91.91,0,0,1-.7.3h-.3c-.2,0-.3,0-.4-.1h-.1a.6.6,0,0,1-.4.1h-.6a.6.6,0,0,1-.4-.1c-.1-.1-.2-.1-.3-.2h-1.7a.87.87,0,0,1-.9-.6h-1a.87.87,0,0,1-.9.6h0a.6.6,0,0,1,.1.4v.3a.6.6,0,0,1-.1.4,2.09,2.09,0,0,1,.4.6.86.86,0,0,1,.3.6.91.91,0,0,1,.3.7v.3c0,.2,0,.3-.1.4a.6.6,0,0,1,.1.4v.9a.91.91,0,0,1-.3.7h0a.91.91,0,0,1,.3.7v.3a.91.91,0,0,1-.3.7l-.3.3a.91.91,0,0,1-.7.3h-.8a.91.91,0,0,1-.7.3h-.6a.79.79,0,0,1-.8-.5l-.3-.3a1,1,0,0,1-.5-.8v-1a.35.35,0,0,1-.1-.2l-.3-.3a1,1,0,0,1-.4-.7h-.1l-1.7.3h-2l-1.7.3h-.1l-4.9.3-2.3.3h-3.5l-1.7.3H608l-1.4.3H603a.91.91,0,0,1-.7.3h-3.7l-1.7.3H595l-2.8.3-3.8.3h-.2l-3,12.6a2.19,2.19,0,0,1-.3.5l-3.2,2.6a.73.73,0,0,1-.6.2.91.91,0,0,1-.7-.3h0a.84.84,0,0,1-.7-.4c-.1,0-.1-.1-.2-.1H579a.91.91,0,0,1-.7-.3l-.3-.3a.35.35,0,0,1-.1-.2.1.1,0,0,1-.1-.1l-1.7-1.4-4.5-2.2h-.1c-.2,0-.3,0-.4-.1l-1.2-.6c-.1,0-.2-.1-.3-.2H569a.37.37,0,0,1-.3-.1l-.9-.3a.1.1,0,0,1-.1-.1l-.4-.2H567a.37.37,0,0,1-.3-.1l-.7-.2h0l-3-.3h-3.3l-1.7.3-1.4.3-1.7.3-1.7.6-1.4.6h-.1l-1.2.3-1.8.3-.8.3c-.1,0-.2.1-.3.1h-.2a.91.91,0,0,1-.7.3h-.1l-.4.2a.6.6,0,0,1-.4.1h-.3a1.06,1.06,0,0,1-1,.9h-.2a.86.86,0,0,1-.6.3.91.91,0,0,1-.7.3h-.6l-.4.2a.6.6,0,0,1-.4.1h-.5a.91.91,0,0,1-.7.3h-2.3a.91.91,0,0,1-.7-.3l-.3-.3a.91.91,0,0,1-.2-1.1,1.76,1.76,0,0,1,.4-.5,1,1,0,0,1,.8-.5h.3a.91.91,0,0,1,.7.3h0c.1-.1.1-.1.2-.1l-.2-.2a.35.35,0,0,1-.1-.2c-.1,0-.1-.1-.2-.1a.84.84,0,0,1-.7-.4c-.1,0-.1-.1-.2-.1l-.3-.3a7375748225425.47,7375748225425.47,0,0,1-.6-1.2.91.91,0,0,1-.3-.7V402a.91.91,0,0,1,.3-.7v-1a.52.52,0,0,1-.2-.4h.2v.6a.91.91,0,0,1-.3.7v.5a.91.91,0,0,1-.3.7v2.8a.91.91,0,0,1-.3.7v.2a.94.94,0,0,1-1,1H534a.94.94,0,0,1-1-1v-.2h0a.91.91,0,0,1-.7.3h-.5a1,1,0,0,1-.9.6h-.2a.35.35,0,0,1-.2.1,1,1,0,0,1-.8.5h-.6a.91.91,0,0,1-.7-.3h-.2a.91.91,0,0,1-.7-.3h0a.37.37,0,0,1-.3-.1c-.1,0-.2.1-.3.1a.91.91,0,0,1-.7.3h-1.5a.79.79,0,0,1-.8-.5c-.1,0-.1-.1-.2-.1l-.1-.1c-.1,0-.2.1-.4.1h-1.6a.91.91,0,0,1-.7.3h-.2a22127244675635.47,22127244675635.47,0,0,0-1.8.9.91.91,0,0,1-.7.3H518a.86.86,0,0,1-.6.3.91.91,0,0,1-.7.3h-.8a.35.35,0,0,1-.2.1l-.3.3a.78.78,0,0,1-.4.4,1,1,0,0,1-.5.8l-.3.3a1,1,0,0,1-.7.4.91.91,0,0,1-.7.3h-.5a.91.91,0,0,1-.7.3h-.2a.84.84,0,0,1-.4.7l-.3.3c0,.1-.1.1-.1.2h0a.86.86,0,0,1-.3.6.75.75,0,0,1-.1.5c-.1.1-.1.3-.2.3a.91.91,0,0,1,.3.7v.5h0a.86.86,0,0,1,.3-.6v-1a1.06,1.06,0,0,1,.9-1,.86.86,0,0,1,.6-.3h0a.86.86,0,0,1,.6-.3c.1-.1.1-.1.2-.1a1,1,0,0,1,.8-.5h.3a.79.79,0,0,1,.8.5,1,1,0,0,1,.5.8v.5c.1.1.1.1.1.2a1,1,0,0,1,.5.8v.3a1.09,1.09,0,0,1-.7,1c.1.1.1.2.1.4a.91.91,0,0,1,.3.7v.3a.79.79,0,0,1-.5.8,1,1,0,0,1-.7.4.86.86,0,0,1-.6.3h0v.2a1.06,1.06,0,0,1-.9,1v.5a.87.87,0,0,1-.6.9v.3a1.2,1.2,0,0,1-.7,1c.1.1.2.2.2.3s.1.1.2.1h.5a.79.79,0,0,1,.8.5,1,1,0,0,1,.5.8v.2H516a.87.87,0,0,1,.9.6h.3a.91.91,0,0,1,.7.3h0c.1-.1.2-.2.3-.2a.6.6,0,0,1,.4-.1.91.91,0,0,1,.7.3l.3.3a.35.35,0,0,1,.1.2l.3.3c.1,0,.1.1.2.1a1.18,1.18,0,0,1,.9.9c.1.1.2.2.2.3h.5a.94.94,0,0,1,1,1v.3a1,1,0,0,0,0,1.2v.3a.91.91,0,0,1-.3.7v.2a.91.91,0,0,1-.3.7l-.3.3a.91.91,0,0,1-.7.3H521a1,1,0,0,1-.8.6.91.91,0,0,1-.7.3h-.3a.91.91,0,0,1-.7-.3l-.1-.1c-.1,0-.2.1-.3.1h0a.86.86,0,0,1-.3.6l-.3.3a.86.86,0,0,1-.3.6l-.9.9C516.7,432.6,516.5,432.7,516.2,432.7Zm-39.7-79.8v.5l-.6,2.8,4.3-.2-.1-.1a.91.91,0,0,1-.3-1l.3-1.2a1,1,0,0,1,.7-.7l.2-.1v-.7h0a1.08,1.08,0,0,1-.7.3l-3.6-.3a.37.37,0,0,1-.3-.1Zm-7.8,1.5.4-1.1a.35.35,0,0,1,.1-.2l1.4-2.2.3-.8a1,1,0,0,1,.5-.6l1.2-.6a.6.6,0,0,1,.4-.1,1.42,1.42,0,0,1,.6.2l2,1.5.3.3.2-1.6a1,1,0,0,1,.4-.7l.4-.2-.5-3.9-1.4-.9a.91.91,0,0,1-.4-.8v-2.6a1.23,1.23,0,0,1,.4-.8l-.8-1.1a.91.91,0,0,1-.7.3h-.9a1.23,1.23,0,0,1-.8-.4l-1.1-1.6-.3-.2-.4.6-.3.5a.1.1,0,0,1-.1.1l-.6.9a1,1,0,0,1-.7.4l.5,2.3a1,1,0,0,1-.7,1.2l-.5.1-.2,1.9,1.1-.7a.6.6,0,0,1,.4-.1l2.6-.3h.1a1,1,0,0,1,1,1v2.3a.91.91,0,0,1-.3.7l-2.5,2.5-1.3,2.3-.2,1.9Zm-7.1-4.8c.1,0,.2.1.4.1l1.4,1,.2-1c0-.2.1-.3.3-.5l1-1,.5-1.3a.9.9,0,0,1,.6-.6l.4-.1.4-1.4h-.2l-4.9-.3a1,1,0,0,1-.9-1v-1.9l-.8-.3a1.21,1.21,0,0,1-.5-.5v-.1l-.7-.1a1.42,1.42,0,0,1-.2.6,1,1,0,0,1-.7.4l-1.3.2,1.9,1.9a1.63,1.63,0,0,1,.3.6l.8,4.8Zm18.3-9.8a.6.6,0,0,1,.1.4v.6a.75.75,0,0,1,.5-.1h1.6l.4.1-.4-1.1c0-.1-.1-.2-.1-.3v-1.6h-.4l-.8-.1-.1.5a1,1,0,0,1-1,.8h-.2Zm-15.8-.4.6-.9c0-.1.1-.1.1-.2l.9-.9-.3-2.1v-.4l.2-.7-.1-.2-.7-.2H464l-.5,3.4v1.2Zm17.5-8a1.38,1.38,0,0,1,.3.4l.6,1.2c0,.1.1.2.1.3h0l.1-.4c0-.1.1-.2.1-.4l1.4-2.2.8-2.5a.76.76,0,0,1,.2-.4l1.3-1.3-4.2-4-.5-.4h0c0,.1.1.1.1.2l1.2,2.9a.64.64,0,0,1,0,.6l-.3,1.2a1,1,0,0,1-1,.8h-.1l-1-.1.1.7v2.8Zm-7,.9.5-.2-.1-.7-.6-.3-.1.7-.1.5Zm-4-4.6a1.2,1.2,0,0,1,1,.7.91.91,0,0,1,.8-.4h.2l.6.2-.3-.4c-.1-.1-.1-.2-.1-.4l-.2-.9-.3-.1-.2.6a1,1,0,0,1-.9.6.37.37,0,0,1-.3-.1l-.9-.3a1,1,0,0,1-.7-.8l-.2-1.7-.2-.1a.1.1,0,0,1-.1.1l-.8,1-.2.8.1,1h2.7Zm-2.9-6.9h.2v-.2a1,1,0,0,1,1-1l5.3.2V319l-.4-.1c-.3-.1-.5-.2-.6-.5l-.6-1,.1.6a.81.81,0,0,1-.3.9.91.91,0,0,1-.7.3h-.3l-3.1-.9v.2a1.08,1.08,0,0,1-1,.8h-.8v.8a1.14,1.14,0,0,1-.3.8l1.5-.1Zm20.7,0,1.3-.7-.7-2.7a1,1,0,0,1,.2-.9,1.08,1.08,0,0,1,.7-.3h.1l1.2.2v-.3l-1-.6a.66.66,0,0,1-.4-.5l-.4-1.3-.6,1.4a1,1,0,0,1-.9.6H487a.9.9,0,0,1-.5-.1v4.9Zm-7.8-.9-.3-3.3a.9.9,0,0,1,.7-1l4.3-1.5c.1,0,.2-.1.3-.1a.6.6,0,0,1,.4.1l-.2-1.7-.2.1-2,.6h-.3a1.42,1.42,0,0,1-.6-.2,1.23,1.23,0,0,1-.4-.8V308H481l-.3.4a1,1,0,0,1-.5.4c0,.1.1.2.1.3l.3,1.2a1,1,0,0,1-.5,1.1l-.3.1.4.9a.6.6,0,0,1,.1.4v2a1.19,1.19,0,0,1-.5.9.6.6,0,0,1-.4.1l-.2.7,1,2.8Zm-8.4-11,.2.2.6.9c.1-.1.2-.1.3-.2l.2-.1V309Zm231.2-39.1c.2.1.3.1.4.3l.2-.2a1,1,0,0,1,.7-.4.86.86,0,0,1,.6-.3l.1-.1h-.8a1.15,1.15,0,0,1-.9.6l-.3.1Z" transform="translate(-378.86 -186)"/><path class="c" d="M427.4,269.7a1,1,0,0,1-1-1l-.3-12.1a1.14,1.14,0,0,1,.3-.8.91.91,0,0,1,.7-.3h.1l3.2.3a1,1,0,0,1,.9,1l-.6,11.9a1.08,1.08,0,0,1-1,1Z" transform="translate(-378.86 -186)"/><polyline class="c" points="98.44 109.6 95.84 109.6 95.84 106.7 98.94 106.4 98.44 109.6"/><polyline class="c" points="54.54 94 53.14 94 51.74 94 51.74 95.1 49.14 94.8 49.14 90.5 54.54 90.8 54.54 94"/></g></svg>