<svg xmlns="http://www.w3.org/2000/svg" viewBox="0 0 186.1 195.7"><defs><style>.a{fill:#00b0f0;stroke:#fff;opacity:0.75;isolation:isolate;}</style></defs><title>texas</title><path class="a" d="M379.4,494.2a1,1,0,0,1-.9-.6.76.76,0,0,1-.4-.2h-.2a1.06,1.06,0,0,1-1-.9h0a3.54,3.54,0,0,1-1.4-1.4c-.1-.1-.1-.1-.1-.2s-.1-.1-.2-.1h-1a.91.91,0,0,1-.7-.3.86.86,0,0,1-.6-.3h-2a.6.6,0,0,1-.4-.1c-.1,0-.1-.1-.2-.1a.76.76,0,0,1-.5.2.91.91,0,0,1-.7.3h-.3a.91.91,0,0,1-.7-.3h-.5a.91.91,0,0,1-.7-.3h-.2a.91.91,0,0,1-.7-.3h-.2a.79.79,0,0,1-.8-.5c-.1,0-.1-.1-.2-.1a1,1,0,0,1-.7-.4l-.3-.3c-.1,0-.1-.1-.2-.1h-.2a1,1,0,0,1-.9-.6,1,1,0,0,1-.5-.4c-.1,0-.1-.1-.2-.1h-.5a.91.91,0,0,1-.7-.3h-.2a.6.6,0,0,1-.4-.1,1.76,1.76,0,0,1-.5-.4h0a1.42,1.42,0,0,1-.6.2h-.3a.91.91,0,0,1-.7-.3l-.3-.3a.87.87,0,0,1-.8-.6.9.9,0,0,1-.6-.6.87.87,0,0,1-.6-.8h0a.91.91,0,0,1-.7.3h-.3a.91.91,0,0,1-.7-.3h-.2a.87.87,0,0,1-.9-.6h-1.2a.91.91,0,0,1-.7-.3l-.3-.3a.35.35,0,0,1-.1-.2,1,1,0,0,1-.5-.8V481a.6.6,0,0,1,.1-.4l-.1-.1a.84.84,0,0,1-.7-.4,1,1,0,0,1-.4-.5,1.1,1.1,0,0,1,0-.8.6.6,0,0,1-.1-.4v-.2a.91.91,0,0,1-.3-.7V477a1.4,1.4,0,0,1-.3-.9h0a.91.91,0,0,1-.3-.7v-.2a.86.86,0,0,1-.3-.6.91.91,0,0,1-.3-.7c-.1,0-.2-.1-.3-.2l-.3-.3a.91.91,0,0,1-.3-.7.78.78,0,0,1-.4-.4c-.1,0-.1-.1-.2-.1l-.3-.3a.91.91,0,0,1-.3-.7v-.3c-.1,0-.2-.1-.3-.2l-.3-.3a.91.91,0,0,1-.3-.7V469a.91.91,0,0,1,.3-.7v-.8c0-.2,0-.3.1-.4a.6.6,0,0,1-.1-.4v-.2a1.06,1.06,0,0,1-.9-1,.78.78,0,0,1-.4-.4,1,1,0,0,1-.4-.5.91.91,0,0,1,.2-1.1l.3-.3a.35.35,0,0,1,.2-.1c0-.1.1-.1.1-.2v-.6a.6.6,0,0,1,.1-.4,1.23,1.23,0,0,1-.4-.8v-1h-.1a.91.91,0,0,1-.7-.3h-.2a.79.79,0,0,1-.8-.5c-.1,0-.1-.1-.2-.1h-.1a1.06,1.06,0,0,1-1-.9h0a.35.35,0,0,1-.1-.2,1,1,0,0,1-.4-.5h0a1.76,1.76,0,0,1-.5-.4,2.9,2.9,0,0,0-.9-.9l-.3-.3a1,1,0,0,1-.5-.8v-.5l-.3-.3a.91.91,0,0,1-.3-.7v-.5h0a.91.91,0,0,1-.3-.7.78.78,0,0,1-.4-.4l-.3-.3a1,1,0,0,1-.5-.8v-.5h0a1.06,1.06,0,0,1-.9-1v-.2a.52.52,0,0,1-.2-.4.76.76,0,0,1-.4-.2h-.2a.91.91,0,0,1-.7-.3,1.18,1.18,0,0,1-.9-.9c-.1-.1-.1-.1-.1-.2l-.3-.3c-.1,0-.1-.1-.2-.1l-.3-.3a.35.35,0,0,1-.1-.2,1,1,0,0,1-.5-.8v-.5a7375748225214.79,7375748225214.79,0,0,1-.6-1.2h0a.91.91,0,0,1-.3-.7v.1a.6.6,0,0,1,.1-.4,1.23,1.23,0,0,1-.4-.8v-.2a.86.86,0,0,1-.3-.6h0a.91.91,0,0,1-.3-.7v-.2a.35.35,0,0,1-.1-.2,1.37,1.37,0,0,1-.5-.8.78.78,0,0,1-.4-.4,1,1,0,0,1-.5-.8v-1a.91.91,0,0,1-.3-.7V436h0a1.06,1.06,0,0,1-.9-1v-.2a.52.52,0,0,1-.2-.4.87.87,0,0,1-.6-.9v-.2c-.1-.1-.2-.2-.2-.3a.91.91,0,0,1,.2-1.1h0a.91.91,0,0,1-.3-.7v-.8c-.1,0-.2-.1-.3-.2l-.6-.6a.35.35,0,0,1-.1-.2l-.3-.3a1,1,0,0,1-.5-.8v-.4h0c-.1-.1-.2-.2-.2-.3a1,1,0,0,1-.8-.5l-.3-.3a2.9,2.9,0,0,0-.9-.9c-.1,0-.1-.1-.2-.1a.84.84,0,0,1-.7-.4c-.1,0-.1-.1-.2-.1l-.3-.3a.86.86,0,0,1-.3-.6.86.86,0,0,1-.3-.6h0c-.1-.1-.2-.2-.2-.3a1.08,1.08,0,0,1-.7-.3h0a.86.86,0,0,1-.6-.3l-.3-.3c-.1-.1-.2-.2-.2-.3h-.5a.79.79,0,0,1-.8-.5,1.37,1.37,0,0,1-.5-.8,1.15,1.15,0,0,1-.6-.9v-.5a1.06,1.06,0,0,1-.9-.9c-.1-.1-.2-.2-.2-.3s-.1-.2-.1-.3a1.06,1.06,0,0,0-.9-.9h-.8a.91.91,0,0,1-.7-.3h0a.91.91,0,0,1-.7.3h-.8a.91.91,0,0,1-.7-.3h-.2a.91.91,0,0,1-.7-.3h-.5a.91.91,0,0,1-.7-.3h-1.3a.91.91,0,0,1-.7-.3h-.5a.91.91,0,0,1-.7.3h-.3a.91.91,0,0,1-.7-.3.86.86,0,0,1-.6-.3.86.86,0,0,1-.6-.3h0a1,1,0,0,1-.7-.4c-.1,0-.1-.1-.2-.1h-.1a.91.91,0,0,1-.8-.4h0c-.1.1-.1.3-.2.4a.86.86,0,0,1-.3.6,1.06,1.06,0,0,1-1,.9h-.2a.6.6,0,0,1-.4-.1c-.1-.1-.2-.1-.3-.2h-.7a.91.91,0,0,1-.7.3h-.5a.91.91,0,0,1-.7.3h-.3c-.1.1-.1.2-.2.3a.84.84,0,0,1-.4.7c0,.1-.1.1-.1.2a.86.86,0,0,1-.3.6h0a.84.84,0,0,1-.4.7c0,.1-.1.1-.1.2a.84.84,0,0,1-.4.7c0,.1-.1.1-.1.2a.86.86,0,0,1-.3.6v1a.79.79,0,0,1-.5.8c0,.1-.1.1-.1.2a.87.87,0,0,1-.6.8c-.1.1-.1.3-.2.4h0a.91.91,0,0,1,.3.7v.6a.94.94,0,0,1-1,1h-.2a.86.86,0,0,1-.6.3h0a.86.86,0,0,1-.6.3c-.1.1-.1.1-.2.1l-.3.3c0,.1-.1.1-.1.2a1.18,1.18,0,0,1-.9.9c-.1.1-.1.1-.2.1s-.1.1-.1.2v.2a.91.91,0,0,1-.3.7,1.06,1.06,0,0,1-1,.9h-1.2a.91.91,0,0,1-.7-.3h-.2a1,1,0,0,1-.9-.6.76.76,0,0,1-.4-.2h-.5a.91.91,0,0,1-.7-.3,3.54,3.54,0,0,1-1.4-1.4c-.1-.1-.1-.1-.1-.2l-.3-.3a.78.78,0,0,1-.4-.4h-.3a.91.91,0,0,1-.7-.3h-.2a.91.91,0,0,1-.7-.3.86.86,0,0,1-.6-.3.84.84,0,0,1-.7-.4,1,1,0,0,1-.4-.5.87.87,0,0,1-.6-.8h0a.86.86,0,0,1-.6-.3h-.2a.91.91,0,0,1-.7-.3h-.2a.91.91,0,0,1-.7-.3h0a.91.91,0,0,1-.7-.3h0a.84.84,0,0,1-.7-.4c-.1,0-.1-.1-.2-.1a.87.87,0,0,1-.8-.6,1,1,0,0,1-.5-.4l-.3-.3-.3-.3a1,1,0,0,1-.4-.7c-.1-.1-.1-.1-.1-.2a1,1,0,0,1-.5-.8v-.2a.35.35,0,0,1-.1-.2c-.1,0-.1-.1-.2-.1h-.5a.91.91,0,0,1-.7-.3h0a.84.84,0,0,1-.7-.4,2.9,2.9,0,0,0-.9-.9c-.1,0-.1-.1-.2-.1l-.3-.3c-.1-.1-.2-.2-.2-.3a1.08,1.08,0,0,1-1-1v-.2a.91.91,0,0,1-.3-.7v-.5a.91.91,0,0,1-.3-.7v-.8l3.8-41.9a.71.71,0,0,1,.3-.6l.3-.3a.91.91,0,0,1,.7-.3h.1l2.6.3,3.8.3h.1l1.4.3h1.7l4.2.3,4.8.6h.5l.8-8a1,1,0,0,1,.8-.9l3.8-.6,10.6-2,6.4-7.5a1.23,1.23,0,0,1,.8-.4l11.4.8,4.6-16.8-9.8-.8a1,1,0,0,1-.7-.4,1.08,1.08,0,0,1-.2-.8l1.2-6.9a1,1,0,0,1,1-.8h.1l13.6,1.1.2-7.4h-9.4a1.06,1.06,0,0,1-1-.9l-.9-5.7a.84.84,0,0,1,.2-.7,1,1,0,0,1,.7-.4l9.1-1.3.8-7.3a1.06,1.06,0,0,1,1-.9l11.9-.3a1,1,0,0,1,1,1v3.2a.91.91,0,0,1-.3.7v5.9a.91.91,0,0,1-.3.7v4.3l-.3,3.3v2.2l-.2,2.2h.3a.79.79,0,0,1,.8.5l.3.3.3.3a1,1,0,0,1,.4.7l.3.3a.35.35,0,0,1,.1.2,1,1,0,0,1,.4.7l.3.3a1.18,1.18,0,0,1,.9.9h.3a1.06,1.06,0,0,1,1-.9h.5a.91.91,0,0,1,.7.3h0a.86.86,0,0,1,.6.3h0a.86.86,0,0,1,.3-.6l.3-.3a.91.91,0,0,1,.7-.3h0a.91.91,0,0,1,.7.3l.6.6a.86.86,0,0,1,.6.3,1.18,1.18,0,0,1,.9.9.86.86,0,0,1,.3.6l.3.3a.91.91,0,0,1,.3.7v1.1h.2a.91.91,0,0,1,.7.3h.6a1.08,1.08,0,0,1,.7-.3.91.91,0,0,1,.7.3h0a.86.86,0,0,1,.6.3l.3.3a.86.86,0,0,1,.6.3h.5a.91.91,0,0,1,.7.3l.3.3h1a.91.91,0,0,1,.7-.3h1.2a.79.79,0,0,1,.8.5l.3.3.3.3a1,1,0,0,1,.4.5h.1a1.79,1.79,0,0,1,1.2-1.2h.9a.91.91,0,0,1,.7.3h.8a1.42,1.42,0,0,1,.6.2,1.05,1.05,0,0,1,.9-.5h.6a.94.94,0,0,1,1,1v1.4a.91.91,0,0,1,.3.7.75.75,0,0,1,.5-.1h.3a.79.79,0,0,1,.8.5,1,1,0,0,1,.5.8V341a.35.35,0,0,1,.1.2h0a.76.76,0,0,1,.5-.2h0a.84.84,0,0,1,.4-.7,1,1,0,0,1,.7-.4h0a1.79,1.79,0,0,1,1.2-1.2h.6a.91.91,0,0,1,.7.3,1.18,1.18,0,0,1,.9.9h0c.1.1.2.2.2.3h.8a.91.91,0,0,1,.7.3l.6.6a.52.52,0,0,1,.2.4c.1-.1.2-.2.3-.2a1,1,0,0,1,.8-.5h.5a.91.91,0,0,1,.7-.3h.9a.79.79,0,0,1,.8.5.92.92,0,0,1,.4.6.75.75,0,0,1,.5-.1h.5V341a.94.94,0,0,1,1-1h1.2a.79.79,0,0,1,.8.5,1,1,0,0,1,.5.8v.5h.8a.75.75,0,0,1,.5.1,2.09,2.09,0,0,1,.4-.6,1,1,0,0,1,.8-.5h.3a.91.91,0,0,1,.7.3h.5a.94.94,0,0,1,1,1v.5c.5,0,.8.4.9.9h.8a1.2,1.2,0,0,1,1,.7,1.23,1.23,0,0,1,.8-.4h1.1v-.2a.89.89,0,0,1,.5-.8,1,1,0,0,1,.8-.5h.2a.91.91,0,0,1,.7-.3h.3a.6.6,0,0,1,.4.1,1.23,1.23,0,0,1,.8-.4h.5a.91.91,0,0,1,.7-.3h.3c.2,0,.3,0,.4.1l.6.3c.1,0,.2.1.3.2h.1a.78.78,0,0,1,.4-.4,1,1,0,0,1,.8-.5h.3a.6.6,0,0,1,.4.1l.1-.1a.91.91,0,0,1,.7-.3,1.15,1.15,0,0,1,.9-.6h.3a.79.79,0,0,1,.8.5c.1,0,.1.1.2.1l.3.3c.1,0,.2,0,.2.1s.2.1.3.2h.2a.91.91,0,0,1,.7.3h.6a.86.86,0,0,1,.6-.3l.3-.3a1.79,1.79,0,0,1,1.2-1.2h.6a.91.91,0,0,1,.7.3h.2a.91.91,0,0,1,.7.3h.2a.79.79,0,0,1,.8.5l.3.3a.78.78,0,0,1,.4.4h.5a1,1,0,0,1,.9.6,2.9,2.9,0,0,1,.9.9c0,.1.1.2.1.3h.5a.91.91,0,0,1,.7.3h.2a1.06,1.06,0,0,1,1,.9h0a.86.86,0,0,1,.6.3h.5a.91.91,0,0,1,.7.3h.2a.94.94,0,0,1,1,1v.6a.78.78,0,0,1-.3.7l-.6,12.3a.67.67,0,0,1-.4.7l-11.4,9.3,8.8,6.3,12.2,1.1h.2a1.06,1.06,0,0,1,1,.9h0a.35.35,0,0,1,.1.2l.3.3c.1,0,.1.1.2.1a.84.84,0,0,1,.7.4l.3.3a1,1,0,0,1,.4.7.86.86,0,0,1,.3.6c.1.1.1.1.1.2a1,1,0,0,1,.4.7.91.91,0,0,1,.3.7v.5a.91.91,0,0,1,.3.7v1.2a.91.91,0,0,1-.3.7v.4c.1.1.1.1.1.2s.1.1.2.1h.2a.79.79,0,0,1,.8.5,1,1,0,0,1,.5.8v.2a.91.91,0,0,1,.3.7v.3a1,1,0,0,1,.5.6.87.87,0,0,1,.6.9,1.23,1.23,0,0,1-.4.8,1,1,0,0,1,.7,1v.2a.86.86,0,0,1,.3.6h.2a.94.94,0,0,1,1,1V395a.6.6,0,0,1-.1.4,2.09,2.09,0,0,1,.4.6.91.91,0,0,1,.3.7.79.79,0,0,1-.5.8c0,.1-.1.1-.2.2a.91.91,0,0,1,.3.7v.3a.87.87,0,0,1-.6.9V401a.91.91,0,0,1-.3.7.84.84,0,0,1-.4.7c0,.1-.1.1-.1.2v.8a.79.79,0,0,1-.5.8,1,1,0,0,1-.5.4v.1a1.1,1.1,0,0,1,0,.8,1.76,1.76,0,0,1-.4.5c-.1.1-.1.2-.2.2a.6.6,0,0,1,.1.4v.2c.1.1.2.2.2.3a1.09,1.09,0,0,1,.1.5v.6a1.06,1.06,0,0,1-.9,1h0v.4a.78.78,0,0,1,.4.4,1,1,0,0,1,.5.8V412c0,.2,0,.3-.1.4s.1.2.1.3a.91.91,0,0,1,.3.7v.3a.91.91,0,0,1-.3.7v.8a.89.89,0,0,1-.5.8c0,.1-.1.1-.1.2a.84.84,0,0,1-.4.7l-.3.3c0,.1-.1.1-.1.2a.86.86,0,0,1-.3.6v.2a.91.91,0,0,1-.3.7h0a.84.84,0,0,1-.4.7,1,1,0,0,1-.5.4.35.35,0,0,1-.1.2.76.76,0,0,1,.2.5c.1.1.1.1.1.2a1,1,0,0,1,.4.7h0a.91.91,0,0,1,.3.7v.3a.79.79,0,0,1-.5.8,1,1,0,0,1-.8.5H440a.91.91,0,0,1-.7-.3H439a.91.91,0,0,1-.7.3h-.8a.86.86,0,0,1-.6.3h0c-.1.1-.2.1-.3.2l-.6.3c-.1,0-.2.1-.3.1h0a.86.86,0,0,1-.6.3h0a.86.86,0,0,1-.6.3h0a.86.86,0,0,1-.6.3h0a.86.86,0,0,1-.6.3.91.91,0,0,1-.7.3h-.1l-.4.2a.6.6,0,0,1-.4.1h-.2l-.3.3a.91.91,0,0,1-.7.3h-.2a.86.86,0,0,1-.6.3h0a.86.86,0,0,1-.6.3h0a.86.86,0,0,1-.6.3h0a.35.35,0,0,1-.2.1,1,1,0,0,1-.7.4h0a.35.35,0,0,1-.2.1c0,.1-.1.1-.1.2l-.6.6a.35.35,0,0,1-.2.1,1,1,0,0,1-.8.5h-2.3v.2a.94.94,0,0,1-1,1h-.5l-.3.3a.84.84,0,0,1-.4.7l-.3.3c0,.1-.1.1-.1.2l-.3.3a.35.35,0,0,1-.2.1,1,1,0,0,1-.7.4h0a.52.52,0,0,1-.4.2c.1.1.3.2.3.4a.91.91,0,0,1-.2,1.1l-.6.6a.35.35,0,0,1-.2.1c0,.1-.1.1-.1.2l-.3.3a.86.86,0,0,1-.6.3l-.9.9a.84.84,0,0,1-.4.7,1.37,1.37,0,0,1-.8.5c0,.1-.1.2-.2.3l-.3.3a.91.91,0,0,1-.7.3h-.5c-.1.1-.1.1-.2.1a1,1,0,0,1-.7.4.86.86,0,0,1-.6.3h0a.35.35,0,0,1-.2.1,1,1,0,0,1-.7.4.86.86,0,0,1-.6.3h0a.35.35,0,0,1-.2.1,1,1,0,0,1-.7.4.86.86,0,0,1-.6.3c-.1.1-.2.1-.3.2l-.6.3c-.1,0-.2.1-.3.1l-.3.3a.91.91,0,0,1-.7.3h-.1l-.2.1-.2.2a19668661934166.49,19668661934166.49,0,0,0-1.2.6.86.86,0,0,1-.6.3.91.91,0,0,1-.7.3h0a.86.86,0,0,1-.6.3h0a.86.86,0,0,1-.6.3h0a.86.86,0,0,1-.6.3c-.1.1-.2.1-.3.2l-.6.3c-.1,0-.2.1-.3.1h0a.86.86,0,0,1-.6.3c-.1.1-.1.1-.2.1a1,1,0,0,1-.7.4h0a.86.86,0,0,1-.6.3l-.3.3a.35.35,0,0,1-.2.1,1,1,0,0,1-.8.5h-.3a.91.91,0,0,1-.8-.4c-.1,0-.2.1-.3.1h0a.86.86,0,0,1-.6.3.91.91,0,0,1-.7.3h-.1l-.2.1-.2.2a.91.91,0,0,1-.7.3,1,1,0,0,1-.8.6h0a.91.91,0,0,1-.7.3.6.6,0,0,1-.4-.1c-.1-.1-.2-.1-.3-.2s-.3-.1-.4-.1v.9a.91.91,0,0,1-.3.7l-.3.3a.86.86,0,0,1-.6.3c-.1.1-.1.1-.2.1s-.1.1-.1.2h0a1.79,1.79,0,0,1-1.2,1.2h-.2a.91.91,0,0,1-.7.3h.4a.6.6,0,0,1,.1.4v.3a.79.79,0,0,1-.5.8l-.3.3-.3.3c0,.1-.1.1-.1.2h0a.84.84,0,0,1-.4.7c0,.1-.1.1-.1.2a.84.84,0,0,1-.4.7c0,.1-.1.1-.1.2l-.6.6v.2a.94.94,0,0,1-1,1h-.3a.91.91,0,0,1-.7-.3,1,1,0,0,1-.8-.7c-.1.1-.2.1-.4.1a.37.37,0,0,1-.1.3v.1a.76.76,0,0,1,.4.2h0a.86.86,0,0,1,.6.3.37.37,0,0,1,.3.1l.6.3a1,1,0,0,1,.5,1.1.92.92,0,0,1-.4.6l-.3.3c0,.1-.1.1-.1.2v.2a.91.91,0,0,1-.3.7.86.86,0,0,1-.3.6h0a.86.86,0,0,1-.3.6v.2a.91.91,0,0,1-.3.7v.2a.91.91,0,0,1-.3.7v.5a.91.91,0,0,1-.3.7h0a.86.86,0,0,1-.3.6v.2a.91.91,0,0,1-.3.7v.8a.91.91,0,0,1-.3.7v1.1a.91.91,0,0,1-.3.7h0a.75.75,0,0,1-.1.5c-.1.1-.1.2-.2.3a.75.75,0,0,1-.1.5v.1a1.27,1.27,0,0,1,.1.6v.1a1,1,0,0,1-.9,1,.86.86,0,0,1,.3.6l.3.3a.91.91,0,0,1,.2,1.1,1.76,1.76,0,0,1-.4.5h0a.76.76,0,0,1,.2.5h0a.91.91,0,0,1,.3.7v1a.91.91,0,0,1,.3.7v.8a.86.86,0,0,1,.3.6.91.91,0,0,1,.3.7c0,.2,0,.3-.1.4a.6.6,0,0,1,.1.4v.3a1.42,1.42,0,0,1-.2.6,1,1,0,0,1,.4.5c0,.1.1.2.1.3a.87.87,0,0,1,.8.6,1.09,1.09,0,0,1,.1.5v.4a.6.6,0,0,1-.1.4c.1.1.2.1.2.2a1,1,0,0,1,.5.8v1.9h0a.86.86,0,0,1,.3.6h.5a.91.91,0,0,1,.7.3h.2a.94.94,0,0,1,1,1v2a.94.94,0,0,1-1,1h-1.5a.86.86,0,0,1-.6.3h0a.86.86,0,0,1-.6.3v.5a.94.94,0,0,1-1,1h-1.8v-2.9Zm19-50.5h.3l.5-.5a.86.86,0,0,1,.6-.3h0a.91.91,0,0,1-.3-.7v-.5h0a.86.86,0,0,1-.6.3h0a.35.35,0,0,1-.2.1,1,1,0,0,1-.7.4.86.86,0,0,1-.6.3l.1.1a.84.84,0,0,1,.7.4C398.2,443.4,398.3,443.5,398.4,443.7ZM423.8,426a.87.87,0,0,1,.8-.6l.3-.3h-.5a.94.94,0,0,1-1-1v-.6a.87.87,0,0,1,.6-.9.6.6,0,0,1,.4-.1h.2v-.2a.91.91,0,0,1,.3-.7v-1c-.1,0-.1-.1-.2-.1l-.3.1-.1.1a.86.86,0,0,1-.3.6v.2a.79.79,0,0,1-.5.8,1,1,0,0,1-.8.5h-.5v.2a.91.91,0,0,1-.3.7h.5a.94.94,0,0,1,1,1v.5a1.51,1.51,0,0,1,.4.8Z" transform="translate(-261.6 -301.9)"/></svg>