<svg xmlns="http://www.w3.org/2000/svg" viewBox="0 0 327.7 412.22"><defs><style>.a{fill:#00b0f0;stroke:#fff;opacity:0.75;isolation:isolate;}</style></defs><title>western</title><path class="a" d="M262.2,412a.91.91,0,0,1-.7-.3l-.3-.3a7375748225348.42,7375748225348.42,0,0,1-.6-1.2.86.86,0,0,1-.3-.6.86.86,0,0,1-.3-.6l-.3-.3a.91.91,0,0,1-.3-.7v-2.4a.91.91,0,0,1,.3-.7v-2.1a.35.35,0,0,1-.1-.2l-.3-.3a1,1,0,0,1-.4-.7.86.86,0,0,1-.3-.6c-.1-.1-.1-.1-.1-.2a1.37,1.37,0,0,1-.5-.8,1.21,1.21,0,0,1-.5-.5,1.1,1.1,0,0,1,0-.8.6.6,0,0,1-.1-.4v-1.2a.91.91,0,0,1-.3-.7V396H257a.94.94,0,0,1-1-1v-.5h-.2a1.06,1.06,0,0,1-1-.9c-.1-.1-.1-.1-.1-.2l-.3-.3-.3-.3-.3-.3c-.1,0-.1-.1-.2-.1a.84.84,0,0,1-.7-.4c-.1,0-.1-.1-.2-.1h-.2a.91.91,0,0,1-.7-.3.84.84,0,0,1-.7-.4c-.1,0-.1-.1-.2-.1a.86.86,0,0,1-.6-.3,1.06,1.06,0,0,1-.9-1v-.2a.35.35,0,0,1-.1-.2l-.3-.3-.3-.3-.3-.3a2.9,2.9,0,0,0-.9-.9,1,1,0,0,1-.4-.7h0a.91.91,0,0,1-.3-.7v-.5a.52.52,0,0,1-.2-.4,1,1,0,0,1-.5-.4l-.3-.3c-.1,0-.1-.1-.2-.1h0c-.3,0-.6-.3-.8-.6a1.08,1.08,0,0,1-1-1v-.2l-.6-.6a.86.86,0,0,1-.3-.6.52.52,0,0,1-.2-.4.9.9,0,0,1-.6-.6.87.87,0,0,1-.6-.9,1,1,0,0,1-.5-.6.76.76,0,0,1-.4-.2h-.2a1,1,0,0,1-.9-.6.76.76,0,0,1-.4-.2l-.6-.6a1.18,1.18,0,0,1-.9-.9h0a.86.86,0,0,1-.3-.6h0a.86.86,0,0,1-.3-.6c-.1-.1-.1-.1-.1-.2a1,1,0,0,1-.5-.8v-.8a.86.86,0,0,1-.3-.6h0a.91.91,0,0,1-.3-.7,1,1,0,0,1-.6-.8h-.8a.79.79,0,0,1-.8-.5l-.3-.3c-.1-.1-.2-.1-.2-.2l-2.8-.2-6-.9h-.4l-1.4-.3h-2.1l-1-.3h-1.3a.91.91,0,0,1-.7-.3h0l-1.9-.2h-1.2l-2.3-.3h-.8a.91.91,0,0,1-.7-.3h-1.2l-1.2-.2-.3,2.9v.4l-.3,1.5-.3,2.8a1,1,0,0,1-.4.7,1.42,1.42,0,0,1-.6.2h-.1l-2-.3h-1.2l-9.7-1.4h-.5l-3-.3h-.2l-.7-.2h-1.3a.91.91,0,0,1-.7-.3h-1.1l-8.1-1.2h-.1l-1.9-.5H174a.37.37,0,0,1-.3-.1l-.8-.3-2.8-.3a.37.37,0,0,1-.3-.1l-.4-.2h-.8l-1.1-.3-2.6-.3-2.9-.6h-1.7a.75.75,0,0,1-.5-.1l-1.5-.9-1.7-1.2-1.1-.6c-.1,0-.1-.1-.2-.1l-1.1-.8-1.3-.5a.35.35,0,0,1-.2-.1l-1.1-.8-2.3-1.1-6.7-4.1-5.7-3.2a.22.22,0,0,1-.2-.2h0a.52.52,0,0,1-.4-.2l-1.8-1.2-2.6-1.4-1.8-1h0a1.42,1.42,0,0,1-.6-.2L127,350l-1.4-.8-6.6-4.1-1.1-.5-8.7-5.2-2.6-1.4-.5-.3c-.1,0-.2-.1-.3-.2l-.6-.6a.91.91,0,0,1-.3-.7v-.5a.91.91,0,0,1,.3-.7v-.2a.91.91,0,0,1,.3-.7V334a1.23,1.23,0,0,1,.4-.8l-1.5-.3h-1.7a.37.37,0,0,1-.3-.1l-.7-.2h-.9l-1.7-.3H97.5l-3.4-.6H92.5l-3.4-.6H87.2l-1-.3h-1l-1-.3H82.4l-1-.3H81l-3-.3a.37.37,0,0,1-.3-.1l-.4-.2H77l-1.7-.3H73.1l-1.8-.3-1.5-.3a1,1,0,0,1-.8-1v-1.9h-.5a.94.94,0,0,1-1-1v-1a.91.91,0,0,1,.3-.7v-1.6a.87.87,0,0,1,.6-.9v-3.3a.91.91,0,0,1-.3-.7v-.5a.91.91,0,0,1-.3-.7v-.2a.86.86,0,0,1-.3-.6.91.91,0,0,1-.3-.7v.1a.86.86,0,0,1-.3-.6h0a14751496450571.22,14751496450571.22,0,0,1-.6-1.2h0a.35.35,0,0,1-.1-.2l-.3-.3-.3-.3a1,1,0,0,1-.4-.7.86.86,0,0,1-.3-.6.52.52,0,0,1-.2-.4,1,1,0,0,1-.5-.4l-.3-.3a1,1,0,0,1-.4-.7.86.86,0,0,1-.3-.6c-.1-.1-.1-.1-.1-.2a1,1,0,0,1-.4-.7c-.1-.1-.1-.1-.1-.2l-.3-.3c-.1,0-.1-.1-.2-.1a.84.84,0,0,1-.7-.4,1,1,0,0,1-.4-.7l-.3-.3a.35.35,0,0,1-.1-.2l-.3-.3a1,1,0,0,1-.4-.7.86.86,0,0,1-.3-.6c-.1-.1-.1-.1-.1-.2s-.2-.1-.2-.2h0a.6.6,0,0,1-.4.1,1.42,1.42,0,0,1-.6-.2,1.42,1.42,0,0,1-.6.2H57a.79.79,0,0,1-.8-.5l-.3-.3c-.1,0-.1-.1-.2-.1h-.2a.94.94,0,0,1-1-1V300a.79.79,0,0,1,.5-.8c.1-.1.1-.2.2-.2a.6.6,0,0,1-.1-.4v-1.3a.86.86,0,0,1-.3-.6.86.86,0,0,1-.3-.6.52.52,0,0,1-.2-.4c-.1-.1-.3-.1-.4-.2H52.7a.91.91,0,0,1-.7-.3h-.3a.91.91,0,0,1-.7.3h-.3a1.06,1.06,0,0,1-1-.9h0a.86.86,0,0,1-.6-.3H49a.79.79,0,0,1-.8-.5l-.3-.3c-.1,0-.1-.1-.2-.1a.84.84,0,0,1-.7-.4l-.3-.3c-.1,0-.1-.1-.2-.1h-.2a.79.79,0,0,1-.8-.5,1,1,0,0,1-.4-.7h0a.35.35,0,0,1-.1-.2l-.3-.3a1,1,0,0,1-.4-.7h0a.91.91,0,0,1-.3-.7v-1.1a.78.78,0,0,1-.4-.4,1,1,0,0,1-.4-.7h0a.35.35,0,0,1-.1-.2c-.1,0-.1-.1-.2-.1l-.3-.3a.35.35,0,0,1-.1-.2l-.3-.3a1,1,0,0,1-.4-.7h0a.84.84,0,0,1-.7-.4l-.3-.3c-.1,0-.1-.1-.2-.1a.86.86,0,0,1-.6-.3h0a.91.91,0,0,1-.7.3h-.6a.79.79,0,0,1-.8-.5l-.3-.3c-.1,0-.1-.1-.2-.1h-.8a.79.79,0,0,1-.8-.5l-.3-.3c-.1,0-.1-.1-.2-.1a.84.84,0,0,1-.7-.4c-.1,0-.1-.1-.2-.1a.86.86,0,0,1-.6-.3h-1a.79.79,0,0,1-.8-.5c-.1,0-.1-.1-.2-.1h-.5a.91.91,0,0,1-.7-.3h-.5a.91.91,0,0,1-.7-.3H27.2a.94.94,0,0,1-1-1v.1a.91.91,0,0,1-.3-.7v-.5l-.3-.3a.86.86,0,0,1-.6-.3,1.18,1.18,0,0,1-.9-.9.91.91,0,0,1-.3-.7.79.79,0,0,1,.5-.8c0-.1.1-.1.1-.2h0a.84.84,0,0,1,.4-.7c0-.1.1-.1.1-.2s.1-.3.2-.5a1.42,1.42,0,0,1-.2-.6v-.1a.79.79,0,0,1,.5-.8c0-.1.1-.1.1-.2s.1-.3.2-.5a.76.76,0,0,1-.2-.5c-.1-.1-.2-.2-.2-.3a.91.91,0,0,1,.2-1.1h0a.86.86,0,0,1,.3-.6h0a.86.86,0,0,1,.3-.6h0a.86.86,0,0,1,.3-.6v-.2a.91.91,0,0,1,.3-.7V267c-.1-.1-.2-.1-.3-.2h-.2a.91.91,0,0,1-.7-.3l-.3-.3a.35.35,0,0,1-.1-.2l-.3-.3-.3-.3-.3-.3a1,1,0,0,1-.4-.7h0a.91.91,0,0,1-.3-.7v-.6a.79.79,0,0,1,.5-.8l.1-.1v-.1a.86.86,0,0,1,.3-.6.86.86,0,0,1,.3-.6v-.3a.84.84,0,0,1-.7-.4c-.1,0-.1-.1-.2-.1h0a1.18,1.18,0,0,1-.9-.9.86.86,0,0,1-.3-.6h0a.86.86,0,0,1-.3-.6h0a.91.91,0,0,1-.3-.7v-.2a.91.91,0,0,1-.3-.7v-.2a.52.52,0,0,1-.2-.4c-.1-.1-.3-.1-.4-.2a.84.84,0,0,1-.7-.4l-.3-.3a1,1,0,0,1-.5-.8v-1.4a.35.35,0,0,1-.1-.2,1,1,0,0,1-.4-.7.86.86,0,0,1-.3-.6.86.86,0,0,1-.3-.6.91.91,0,0,1-.3-.7V248h0a1.18,1.18,0,0,1-.9-.9.91.91,0,0,1-.3-.7V246h0v-.2a.91.91,0,0,1-.3-.7V245h0a.86.86,0,0,1-.3-.6.86.86,0,0,1-.3-.6c-.1-.1-.1-.1-.1-.2l-.3-.3-.3-.3c-.1,0-.1-.1-.2-.1l-.3-.3a.86.86,0,0,1-.3-.6h0a.86.86,0,0,1-.3-.6c-.1-.1-.1-.1-.1-.2a1,1,0,0,1-.4-.5.91.91,0,0,1,.2-1.1v-2c0-.1-.1-.3,0-.4v-1a.85.85,0,0,1,0-.7v-.1a.6.6,0,0,1-.1-.4v-.3a.79.79,0,0,1,.5-.8l.3-.3.3-.3a1,1,0,0,1,.8-.5h.3a.91.91,0,0,1,.7.3l.2-.2c0-.1.1-.1.1-.2v-.2a.91.91,0,0,1,.3-.7.86.86,0,0,1,.3-.6c0-.2.1-.3.2-.5a1.42,1.42,0,0,1-.2-.6v-.8a.91.91,0,0,1-.3-.7v-.2H16.2a.91.91,0,0,1-.7-.3.84.84,0,0,1-.7-.4l-.3-.3-.3-.3-.3-.3a1,1,0,0,1-.4-.7.91.91,0,0,1-.3-.7v-.2a.86.86,0,0,1-.3-.6.86.86,0,0,1-.3-.6c-.1-.1-.1-.1-.1-.2a1,1,0,0,1-.4-.7.91.91,0,0,1-.3-.7v-.2a.91.91,0,0,1-.3-.7V220a.91.91,0,0,1,.3-.7.86.86,0,0,1,.3-.6.86.86,0,0,1,.3-.6v-.3a.91.91,0,0,1-.3-.7V216a.86.86,0,0,1-.3-.6.91.91,0,0,1-.3-.7v.2a.91.91,0,0,1,.3-.7V214a1,1,0,0,1,.6-.9.76.76,0,0,1,.2-.4v-1a.91.91,0,0,1,.3-.7v-1a.86.86,0,0,1-.3-.6c-.1-.1-.1-.1-.1-.2l-.3-.3a.78.78,0,0,1-.4-.4h-.3a.94.94,0,0,1-1-1v-.2a.35.35,0,0,1-.1-.2,1,1,0,0,1-.5-.8v-.2a.35.35,0,0,1-.1-.2,1,1,0,0,1-.4-.7h0a.91.91,0,0,1-.7.3H8.5a.79.79,0,0,1-.8-.5,1,1,0,0,1-.5-.8.89.89,0,0,1,.5-.8l.3-.3c0-.1.1-.1.1-.2h0a.84.84,0,0,1,.4-.7l.3-.3c0-.1.1-.1.1-.2v-2a.75.75,0,0,1,.1-.5c-.2,0-.3-.1-.4-.3l-.4-.4a1.42,1.42,0,0,1-.2-.6v.1a.76.76,0,0,1,.2-.5l.1-.1v-.6a.91.91,0,0,1-.3-.7v-.2a.35.35,0,0,1-.1-.2,1,1,0,0,1-.4-.7c-.1-.1-.1-.1-.1-.2l-.3-.3a1,1,0,0,1-.4-.7h0a.35.35,0,0,1-.1-.2l-.3-.3a1,1,0,0,1-.5-.8v-.2a.91.91,0,0,1-.3-.7v-.5a.91.91,0,0,1-.3-.7V190a.35.35,0,0,1-.1-.2,1,1,0,0,1-.4-.7c-.1-.1-.1-.1-.1-.2a1,1,0,0,1-.5-.8v.4a.35.35,0,0,1-.1-.2,1,1,0,0,1-.4-.7.86.86,0,0,1-.3-.6.86.86,0,0,1-.3-.6.91.91,0,0,1-.3-.7v-.2a.91.91,0,0,1-.3-.7V184a.79.79,0,0,1,.5-.8l.3-.3c0-.1.1-.1.1-.2l.3-.3v-1.8a.91.91,0,0,1-.3-.7V177h0v-.6a.91.91,0,0,1,.3-.7.86.86,0,0,1,.3-.6v-.2a.91.91,0,0,1,.3-.7,1,1,0,0,1,.4-.7l.3-.3.3-.3c0-.1.1-.1.1-.2v-1a.91.91,0,0,1,.3-.7v-.6a.91.91,0,0,1-.3-.7v-.9a.91.91,0,0,1,.3-.7h0a.35.35,0,0,1-.1-.2,1,1,0,0,1-.5-.8v-.8a.91.91,0,0,1-.3-.7v-.5a.72.72,0,0,1-.4-.6h0a.52.52,0,0,1-.2-.4.87.87,0,0,1-.6-.9v-1.4c-.1,0-.2,0-.2-.1s-.1-.1-.2-.1l-.3-.3a.35.35,0,0,1-.1-.2.84.84,0,0,1-.4-.7.86.86,0,0,1-.3-.6H2a.35.35,0,0,1-.1-.2,1,1,0,0,1-.4-.7.86.86,0,0,1-.3-.6.91.91,0,0,1-.3-.7V157a.91.91,0,0,1,.3-.7.86.86,0,0,1,.3-.6v-.6a.91.91,0,0,1-.3-.7V154a.79.79,0,0,1,.5-.8c0-.1.1-.1.1-.2h0a.86.86,0,0,1,.3-.6.84.84,0,0,1,.4-.7l.3-.3.3-.3c0-.1.1-.1.1-.2a.84.84,0,0,1,.4-.7l.3-.3.3-.3.3-.3a1,1,0,0,1,.5-.4,1,1,0,0,1,.4-.5l.3-.3.3-.3.3-.3.3-.3c0-.1.1-.1.1-.2l.3-.3a.84.84,0,0,1,.4-.7l.3-.3c0-.1.1-.1.1-.2h0a.86.86,0,0,1,.3-.6.86.86,0,0,1,.3-.6h0a.91.91,0,0,1-.3-.7v-.2a.91.91,0,0,1,.3-.7v-.8a1.06,1.06,0,0,1,.9-1c.1-.1.1-.1.2-.1s.1-.1.1-.2h0a.86.86,0,0,1,.3-.6.84.84,0,0,1,.4-.7c0-.1.1-.1.1-.2h0a.86.86,0,0,1,.3-.6h0a.86.86,0,0,1,.3-.6v-.2a.91.91,0,0,1,.3-.7.86.86,0,0,1,.3-.6v-1.1h0a.76.76,0,0,1,.2-.5h0l.1-.1v-2.8a1,1,0,0,1-.6-.8.91.91,0,0,1-.3-.7v-.5a.79.79,0,0,1,.5-.8c0-.1.1-.1.1-.2h0a.86.86,0,0,1,.3-.6.86.86,0,0,1,.3-.6.86.86,0,0,1,.3-.6v-.2a1.42,1.42,0,0,1,.2-.6.76.76,0,0,1-.2-.5l-.3-.3a.35.35,0,0,1-.1-.2,1,1,0,0,1-.5-.8v-.2a1,1,0,0,1,0-1.4v-2.8c0-.2,0-.3.1-.4a.6.6,0,0,1-.1-.4V119a.91.91,0,0,1,.3-.7v-.2a.91.91,0,0,1,.3-.7h0V117a.91.91,0,0,1,.3-.7.86.86,0,0,1,.3-.6.84.84,0,0,1,.4-.7c.1-.1.1-.2.2-.2a.6.6,0,0,1-.1-.4.91.91,0,0,1,.3-.7h0a.91.91,0,0,1-.3-.7h0a1.15,1.15,0,0,1-.6-.9v-.3a.91.91,0,0,1,.3-.7v-.3l-.1-.1a1.42,1.42,0,0,1-.2-.6v-.3a1,1,0,0,1,.6-.9.87.87,0,0,1,.8-.6l.3-.3a.84.84,0,0,1,.4-.7c0-.1.1-.1.1-.2h0a.84.84,0,0,1,.4-.7c0-.1.1-.1.1-.2h0a.86.86,0,0,1,.3-.6v-.2a.79.79,0,0,1,.5-.8c0-.1.1-.1.1-.2h0a.84.84,0,0,1,.4-.7c0-.1.1-.1.1-.2v-.2a.91.91,0,0,1,.3-.7.86.86,0,0,1,.3-.6v-.5a.94.94,0,0,1,1-1h.2a.35.35,0,0,1,.2-.1l.3-.3.3-.3c0-.1.1-.1.1-.2l.3-.3a.84.84,0,0,1,.4-.7l.3-.3c0-.1.1-.1.1-.2h0a.86.86,0,0,1,.3-.6h0a.84.84,0,0,1,.4-.7c0-.1.1-.1.1-.2h0a.86.86,0,0,1,.3-.6h0a.86.86,0,0,1,.3-.6.86.86,0,0,1,.3-.6h0a.86.86,0,0,1,.3-.6h0a.86.86,0,0,1,.3-.6.86.86,0,0,1,.3-.6h0a.86.86,0,0,1,.3-.6h0a.86.86,0,0,1,.3-.6v-.2a.91.91,0,0,1,.3-.7.86.86,0,0,1,.3-.6h0a.86.86,0,0,1,.3-.6v-.2a1.42,1.42,0,0,1,.2-.6l.1-.1a.86.86,0,0,1,.3-.6v.2a.91.91,0,0,1,.3-.7v-.2a.91.91,0,0,1,.3-.7.86.86,0,0,1,.3-.6V86a.91.91,0,0,1,.3-.7v-.5a.91.91,0,0,1,.3-.7.84.84,0,0,1,.4-.7c0-.1.1-.1.1-.2V83a.79.79,0,0,1,.5-.8c0-.1.1-.1.1-.2v-.5a.91.91,0,0,1,.3-.7V81a.91.91,0,0,1,.3-.7.86.86,0,0,1,.3-.6.86.86,0,0,1,.3-.6v-.2a.91.91,0,0,1,.3-.7V78a.91.91,0,0,1,.3-.7v-.4a.91.91,0,0,1,.3-.7V76a.91.91,0,0,1,.3-.7.84.84,0,0,1,.4-.7c0-.1.1-.1.1-.2h0a.86.86,0,0,1,.3-.6h0a118011971604416.62,118011971604416.62,0,0,0,.6-1.2A.86.86,0,0,1,32,72v-.4a.91.91,0,0,1,.3-.7.84.84,0,0,1,.4-.7c0-.1.1-.1.1-.2a29502992901109.24,29502992901109.24,0,0,0,.6-1.2v-.2a.91.91,0,0,1,.3-.7h0a.86.86,0,0,1,.3-.6v-.4a.91.91,0,0,1-.3-.7,1.06,1.06,0,0,1,.9-1h0a.86.86,0,0,1,.3-.6h0v-.7a.79.79,0,0,1,.5-.8c0-.1.1-.1.1-.2a.86.86,0,0,1,.3-.6v-.2a.91.91,0,0,1,.3-.7,39337323868130.18,39337323868130.18,0,0,1,.6-1.2V58.6a.91.91,0,0,1,.3-.7V58a.91.91,0,0,1,.3-.7v-.2a.91.91,0,0,1,.3-.7h0a.91.91,0,0,1-.2-1.1.87.87,0,0,1,.8-.6.52.52,0,0,1,.4-.2c.1-.1.1-.3.2-.4v-.5a.91.91,0,0,1,.3-.7V52a.91.91,0,0,1-.3-.7v-.8a1,1,0,0,1-.6-.9V49a.79.79,0,0,1,.5-.8c0-.1.1-.1.1-.2a.86.86,0,0,1,.3-.6v-.2a.91.91,0,0,1,.3-.7V46a.91.91,0,0,1,.3-.7.37.37,0,0,1,.1-.3l.2-.4V44a.91.91,0,0,1,.3-.7V43a.79.79,0,0,1,.5-.8c0-.1.1-.1.2-.2a.91.91,0,0,1-.3-.7v-.6A.91.91,0,0,1,41,40v-.5a.91.91,0,0,1,.3-.7v-.3a.86.86,0,0,1-.3-.6c-.1-.1-.2-.2-.2-.3a.91.91,0,0,1,.2-1.1h0a.37.37,0,0,1,.1-.3l.2-.4v-.3a.91.91,0,0,1,.3-.7v-.5a.91.91,0,0,1,.3-.7V31.7a.91.91,0,0,1,.3-.7h0a.35.35,0,0,1-.1-.2,1,1,0,0,1-.5-.8v-.5a.91.91,0,0,1-.3-.7v-.9a.91.91,0,0,1,.3-.7v-.5a.91.91,0,0,1,.3-.7v-.8a.91.91,0,0,1,.3-.7v-3l-.3-.3a.91.91,0,0,1-.2-1.1h0a1.23,1.23,0,0,1-.4-.8v-.2a.35.35,0,0,1-.1-.2l-.3-.3a1,1,0,0,1-.5-.8v-2a.91.91,0,0,1,.3-.7v-.6c0-.2,0-.3.1-.4s-.1-.2-.1-.3a.91.91,0,0,1-.3-.7v-.3a.94.94,0,0,1,1-1h.1v-.2a.79.79,0,0,1,.5-.8c0-.1.1-.1.1-.2a.37.37,0,0,1,.1-.3c0-.1-.1-.2-.1-.3a.91.91,0,0,1-.3-.7V9a1.05,1.05,0,0,1,.5-.9l.4-1.5c-.3-.3-.1-.5.3-.6h.3a1.42,1.42,0,0,1,.6.2l1.5,1.2L47.7,9l.1.1,1.1,1.1,3,2.4a.1.1,0,0,1,.1.1l.5.5,1,.5a.1.1,0,0,1,.1.1l.6.4a.76.76,0,0,1,.5.2l.8.5,1.2.5H60l1.5-1.2a.75.75,0,0,1-.1-.5v-5a.94.94,0,0,1,1-1H63l2.1-.2V7.4l-1.2-2-.8-1.1-.6-.9a1.08,1.08,0,0,1,0-1.1c0-.2.3-.3.6-.3h.3l2.9.9.9.3,3.2.9,7.8,2.3,1.4.5H80a.37.37,0,0,1,.3.1l.7.2,1.4.3a.55.55,0,0,1,.5.3H83l2.3.6.9.3,4,1.2,1.4.3h.1l1.8.6,10.6,2.6c.1,0,.1,0,.2.1l1,.5,1.5.3h.2a.91.91,0,0,1,.7.3h.8l2,.6,5.7,1.4,1.9.6h.6l2.3.6,1.4.3,3.5.9c.1,0,.1,0,.2.1l.4.2,1.9.3h.2l.8.3,5.1,1.2h.1l.9.3,3.1.8,1.7.3,5.8,1.2h.1l1.7.6,2.8.6h.4l1.5.3h.1l.8.3,9.4,2h.7l1.4.3h.7l2.6.6h.1l.8.3,2.8.6h.2a.37.37,0,0,1,.3.1l.8.3,4,.6h.2l.8.3,3.7.6a.37.37,0,0,1,.3.1l.4.2h.3l15.6,2.9,4.5.6,9,1.8,3.5.6,3.1.3,8.4,1.5h.9l4.3.6,2.1.3,1.7.3h.5c.2,0,.3,0,.4.1l.4.2h.6c.2,0,.3,0,.4.1l.4.2h1.5c.2,0,.3,0,.4.1l.4.2,3.6.3h.1l2.8.6h1.7a.91.91,0,0,1,.7.3h1.3a.91.91,0,0,1,.7.3h1.6a.91.91,0,0,1,.7.3h0l2.3.3h1l1,.3h1.8l1,.3h1.9c.2,0,.3,0,.4.1l.7-.5h1.2a.91.91,0,0,1,.7.3h2l2.3.3,6.3.9h1.4l12,1.2a.76.76,0,0,1,.4.1l.4.2,11.7.9a.91.91,0,0,1,.7.3.66.66,0,0,1,.2.7L301,66l-2.3,26.3-.6,8.3-1.5,17.6-.2,3.3,13.1,10.4a1,1,0,0,1,.4.9l-.5,7.6,16,5.2a1,1,0,0,1,.7.8l1.5,10.4v.2l-.3,7.8a1.07,1.07,0,0,1-1,1l-33.7.9-.2,2-.9,10.1v1.8l-.6,5.4v.3l-.3,2.3-.8,9.4,5.6.5,13.5,1.2,8.1.6a1,1,0,0,1,.9,1.1l-.6,11-.6,8.1-.3,8.3-.6,10.1-1.2,14.7v.2l-.9,16.5-.6,7.8a1,1,0,0,1-1,.9l-4.3-.3a.71.71,0,0,1-.6-.3h-3l-1.7-.3h-1.7l-2.2-.2v.1l-.3,3.3v1.9l-.3,1.7v1.7a1.09,1.09,0,0,1-.7,1l-.1.9v3.2l-4.9,32.6a1,1,0,0,1-.4.7l-9.2,6-6.1,4.2-7.2,11.7v5.6l-.9,5.9.3,6.2a.6.6,0,0,1-.1.4l-2,5-3.8,41.7a1.07,1.07,0,0,1-.7.9C262.5,412,262.3,412,262.2,412ZM17,214.5a1.14,1.14,0,0,1,.6.3v-.5a1,1,0,0,1-.6-.8c-.1-.1-.2-.3-.3-.4h-.1a.85.85,0,0,0,0,.8v.2c.1.1.1.1.1.2C16.9,214.4,16.9,214.5,17,214.5Zm.1-8.3a.6.6,0,0,1,.4-.1h.8a.35.35,0,0,1-.1-.2l-.3-.3h0a1.69,1.69,0,0,1-.5.2c0,.1-.1.2-.3.4ZM50.9,319.5a.6.6,0,0,1-.4-.1.87.87,0,0,1-.6-.8l-.3-.3a.35.35,0,0,1-.1-.2,1,1,0,0,1-.5-.8v-.2a.35.35,0,0,1-.1-.2,1,1,0,0,1-.5-.8v-1.6a.91.91,0,0,1-.3-.7v-.3a.94.94,0,0,1,1-1h.6a.94.94,0,0,1,1,1v.5a.86.86,0,0,1,.3.6h0a.86.86,0,0,1,.3.6c.1.1.1.1.1.2a1,1,0,0,1,.4.7h0a.86.86,0,0,1,.3.6h0a.52.52,0,0,1,.2.4.87.87,0,0,1,.6.9v.6a.94.94,0,0,1-1,1,1.42,1.42,0,0,1-.6-.2A1,1,0,0,1,50.9,319.5Zm3.5-9a.87.87,0,0,1-.9-.6h-.3a.91.91,0,0,1-.7-.3h0a.84.84,0,0,1-.7-.4,1,1,0,0,1-.4-.5,1.09,1.09,0,0,1-.1-.5v-.4a.75.75,0,0,1,.1-.5c-.2,0-.3-.1-.4-.3l-.3-.3a.86.86,0,0,1-.3-.6h0a.91.91,0,0,1-.3-.7v-.3a.94.94,0,0,1,1-1h.3a.91.91,0,0,1,.7.3h.2a1.06,1.06,0,0,1,1,.9h0a.84.84,0,0,1,.7.4c.1,0,.1.1.2.1h0a1.79,1.79,0,0,1,1.2,1.2v.5l.3.3a.91.91,0,0,1,.3.7v.9a.94.94,0,0,1-1,1l-.6.1Zm-17.6-2.6a.91.91,0,0,1-.7-.3.84.84,0,0,1-.7-.4c-.1,0-.1-.1-.2-.1l-.6-.6a.91.91,0,0,1-.3-.7v-.7a.87.87,0,0,1,.6-.9.6.6,0,0,1,.4-.1h.8a.79.79,0,0,1,.8.5l.3.3c.1,0,.1.1.2.1l.3.3a.35.35,0,0,1,.1.2,1,1,0,0,1,.5.8v.3a.91.91,0,0,1-.3.7l-.3.3a.91.91,0,0,1-.7.3Zm7.8-3.1a.79.79,0,0,1-.8-.5,1,1,0,0,1-.5-.8.94.94,0,0,1,1-1h.6a.94.94,0,0,1,1,1,.79.79,0,0,1-.5.8A1,1,0,0,1,44.6,304.8Zm-3.2-11.3a.91.91,0,0,1-.7-.3.75.75,0,0,1-.7-.5,1.42,1.42,0,0,1-.6.2H35.6a.91.91,0,0,1-.7-.3h-.2a.79.79,0,0,1-.8-.5c-.1,0-.1-.1-.2-.1l-.3-.3-.1-.1a1,1,0,0,1-1,.7H32a.91.91,0,0,1-.7.3H29.8a.79.79,0,0,1-.8-.5l-.3-.3a1,1,0,0,1-.5-.8v-.2a.91.91,0,0,1-.3-.7v-.2c-.1-.1-.2-.2-.2-.3a.37.37,0,0,1-.3-.1c-.1-.1-.2-.1-.3-.2h-.5a.79.79,0,0,1-.8-.5c-.1,0-.1-.1-.2-.1a.76.76,0,0,1-.5-.2l-.2-.2h0a.76.76,0,0,1-.2-.5v-.4a.94.94,0,0,1,1-1h.8a1,1,0,0,1,1.4,0,1.06,1.06,0,0,1,.9,1v.2c.1.1.2.2.2.3a.91.91,0,0,1,.7.3h0a.91.91,0,0,1,.7-.3.6.6,0,0,1,.4.1c.1.1.2.1.3.2h.7a1.05,1.05,0,0,1,.9.5c.1-.1.2-.3.3-.4a1,1,0,0,1,.8-.5H34a.91.91,0,0,1,.7.3.86.86,0,0,1,.6.3l.3.3h.2a.91.91,0,0,1,.7.3h0a.86.86,0,0,1,.6.3.87.87,0,0,1,.8.6h0l.1-.1a.91.91,0,0,1,.7-.3h.6a.79.79,0,0,1,.8.5,1,1,0,0,1,.5.8v.2h1.6a.94.94,0,0,1,1,1v.3a.94.94,0,0,1-1,1h-.7v.2ZM6.8,211.1a1,1,0,0,1,0-2h.3a1,1,0,0,1,0,2Zm-2-2.1a.94.94,0,0,1-1-1v-.3a.94.94,0,0,1,1-1h.3a.94.94,0,0,1,1,1v.3a.94.94,0,0,1-1,1Z" transform="translate(-0.4 -1.5)"/></svg>